<svg xmlns="http://www.w3.org/2000/svg" width="51.302" height="51.32" viewBox="0 0 51.302 51.32">
  <g id="Grupo_4426" data-name="Grupo 4426" transform="translate(0.001)">
    <path id="Caminho_3543" data-name="Caminho 3543" d="M16.326,6154.093c2.686-.6,18.057-.725,19.9.468,2.112,1.363,1.84,5.9,1.82,8.843-.021,3.179-.009,6.775-2.94,7.382s-18.037.807-20.05-.479c-2.063-1.318-1.9-5.886-1.842-8.805C13.283,6158.145,13.165,6154.8,16.326,6154.093ZM.04,6164.49c.812,13.511,12.913,24.532,27.565,23.566a25.677,25.677,0,0,0-3.929-51.2c-13.668.875-24.527,12.819-23.637,27.639Z" transform="translate(0.01 -6136.795)" fill="#fff"/>
    <path id="Caminho_3550" data-name="Caminho 3550" d="M451.393,6705.67a33.094,33.094,0,0,1,6.465,3.475l-6.473,3.213Zm-6.78-4.757c-3.161.71-3.043,4.053-3.11,7.409-.058,2.92-.22,7.488,1.842,8.807,2.013,1.285,17.116,1.087,20.05.479s2.919-4.2,2.94-7.384c.02-2.946.291-7.479-1.82-8.843C462.669,6700.19,447.3,6700.311,444.613,6700.913Z" transform="translate(-428.277 -6683.617)" fill="#22b9c2"/>
    <path id="Caminho_3581" data-name="Caminho 3581" d="M773.03,6881.148l6.473-3.212a33.08,33.08,0,0,0-6.465-3.475Z" transform="translate(-749.921 -6852.409)" fill="#fff"/>
  </g>
</svg>
