<svg xmlns="http://www.w3.org/2000/svg" width="51.322" height="51.344" viewBox="0 0 51.322 51.344">
  <g id="Grupo_4427" data-name="Grupo 4427" transform="translate(0.001)">
    <path id="Caminho_3534" data-name="Caminho 3534" d="M4168.587,31.907c.257-3.858-1.457-9.283,8.84-8.008l.019,4.216-3.431.237c-.62.975-.438,2.361-.346,3.556l3.765-.019c-.244,4.777.119,4.288-3.823,4.159l0,12.459-4.98-.037.021-12.35-2.558.019-.047-4.241,2.539.009Zm-22.408,6.542a25.674,25.674,0,1,0,23.369-27.855,25.624,25.624,0,0,0-23.369,27.855Z" transform="translate(-4146.093 -10.504)" fill="#fff"/>
    <path id="Caminho_3561" data-name="Caminho 3561" d="M4816.187,460.406l-2.538-.009.047,4.241,2.557-.019-.02,12.35,4.982.037,0-12.459c3.941.128,3.578.618,3.822-4.159l-3.764.019c-.092-1.194-.274-2.58.348-3.556l3.429-.237-.019-4.216c-10.3-1.274-8.582,4.15-8.84,8.008Z" transform="translate(-4793.693 -439.003)" fill="#22b9c2"/>
  </g>
</svg>
