<svg xmlns="http://www.w3.org/2000/svg" width="254.506" height="103.241" viewBox="0 0 254.506 103.241">
  <g id="Grupo_4194" data-name="Grupo 4194" transform="translate(-105.951 -113.178)">
    <path id="Caminho_10707" data-name="Caminho 10707" d="M3226.648,132.036a20.108,20.108,0,0,1-5.369-.734,18.2,18.2,0,0,1-5.06-2.279,18.969,18.969,0,0,1-6.49-6.992,19.4,19.4,0,0,1-2.318-9.387h13.055a5.682,5.682,0,0,0,1.006,3.593,7.29,7.29,0,0,0,1.776,1.738,5.831,5.831,0,0,0,3.013,1,6.834,6.834,0,0,0,3.167-.617,5.145,5.145,0,0,0,1.738-1.16,6.325,6.325,0,0,0,1.006-1.353,3.728,3.728,0,0,0,.424-1.273,8.589,8.589,0,0,0,.079-1.006,8.453,8.453,0,0,0-.079-1,4.124,4.124,0,0,0-.424-1.313,5.263,5.263,0,0,0-1.006-1.353,6.646,6.646,0,0,0-1.738-1.2,16.8,16.8,0,0,0-1.815-.695q-.966-.312-2.047-.695-1.933-.62-4.016-1.392a22.54,22.54,0,0,1-4.174-2.084,16.325,16.325,0,0,1-4.559-4.251,16.922,16.922,0,0,1-2.665-5.485,17.092,17.092,0,0,1-.54-6.065,15.988,15.988,0,0,1,1.738-5.987,17.02,17.02,0,0,1,3.476-4.56,16.506,16.506,0,0,1,10.122-4.4,18.029,18.029,0,0,1,5.949.541,17.214,17.214,0,0,1,5.3,2.2,16.6,16.6,0,0,1,4.108,3.632,15.336,15.336,0,0,1,2.654,4.751,16.322,16.322,0,0,1,.927,5.485H3230.9a2.675,2.675,0,0,0-1.122-2.472,7.737,7.737,0,0,0-1.969-.927,5.337,5.337,0,0,1-.734-.115,3.687,3.687,0,0,0-1.313,0,4.609,4.609,0,0,0-1.507.541,3.024,3.024,0,0,0-1.237,1.351,3.469,3.469,0,0,0-.232,2.589,3.685,3.685,0,0,0,1.546,2.123,16.825,16.825,0,0,0,2.394,1.121q1.314.5,2.781.967,1.314.385,2.667.849c.9.309,1.8.67,2.73,1.082a18.185,18.185,0,0,1,10.828,16.764,17.926,17.926,0,0,1-2.886,9.89,19.179,19.179,0,0,1-12.025,8.151,20.825,20.825,0,0,1-4.17.426Z" transform="translate(-2893.953 47.996)" fill="#ccc"/>
    <path id="Caminho_10708" data-name="Caminho 10708" d="M2267.535,87.068a28.641,28.641,0,0,1,4.584.62A5.479,5.479,0,0,0,2277.314,93l.2,0c0,3.541.952,5.886,2.694,5.886a4.2,4.2,0,0,0,2.792-1.6c1.021,2.252,2.408,3.637,3.937,3.637a3.52,3.52,0,0,0,2.637-1.486,29.994,29.994,0,0,1,3.029,5.566,28.016,28.016,0,0,1,2.125,10.892,27.435,27.435,0,0,1-2.087,10.7,28,28,0,0,1-5.756,8.768,28.455,28.455,0,0,1-8.614,6.065,29.146,29.146,0,0,1-10.74,2.589H2254.48V86.99h13.055Zm2.925,22.387a4.7,4.7,0,0,1,3.488,4.117c-1.2,0-6.455-1.248-7.473-1.248.444-1.907,3.3-1.509,3.538-1.57.525-.132.185-.164.7-.3a1.429,1.429,0,0,0-.249-1Zm3.418-3.494h.217l.848.125c0,1.734-.8,2.227-1.121,3.618.992,1.483,1.619,1.963,1.619,4.242.66.014.928.287,1,.681v.512c-.062.492-.259,1.062-.375,1.552l-1.245.125a18.759,18.759,0,0,1-.828,2.915c-.542,1.848-2.216,7.363-2.785,8.44l-4.369-.738c-.709-.141-1.408-.27-2.107-.386-.669-.111-1.449-.319-2.116-.375,0-1.04,0-2.081,0-3.12-.006-1.1.126-1.812.125-2.994,0-2.158.125-3.9.125-5.989-.66-.015-.928-.287-1-.681v-.512a15.784,15.784,0,0,1,.374-1.552,3.905,3.905,0,0,1,1.245-.125c.1-1.168,1.342-2.321,2.116-2.871,2.239-1.59,4.655-1.354,6.976-.124a9.123,9.123,0,0,1,1.3-2.745Z" transform="translate(-2002.674 34.942)" fill="#ccc"/>
    <path id="Caminho_10709" data-name="Caminho 10709" d="M34.225,110.9H13.056v8.574H29.821V132.53H13.056v22.018H0V97.84H34.225Z" transform="translate(105.951 24.792)" fill="#ccc"/>
    <g id="Grupo_4193" data-name="Grupo 4193" transform="translate(347.66 113.178)">
      <g id="_1931372768816" transform="translate(0)">
        <path id="Caminho_10710" data-name="Caminho 10710" d="M3815.364,3.352l.018-.044c-.87-.346-3.672.68-4.19,1.631-1.955.218.549-5.356,5.113-4.914a1.728,1.728,0,1,1-.941,3.326Z" transform="translate(-3810.521 0)" fill="#ccc"/>
      </g>
      <path id="Caminho_10711" data-name="Caminho 10711" d="M3823.826,27.361c-1.775-.5-5.647,2.246-4.643,3.25" transform="translate(-3818.513 -25.674)" fill="none"/>
      <g id="_1931372771312" transform="translate(5.079 4.923)">
        <path id="Caminho_10712" data-name="Caminho 10712" d="M3900.958,86.421c-3.353-2.061-2.361-1.16-5.3-2.307,1.845-2.3,4.048-1.541,6.681-.862a1.729,1.729,0,0,1-1.383,3.168Z" transform="translate(-3895.661 -82.567)" fill="#ccc"/>
      </g>
      <path id="Caminho_10713" data-name="Caminho 10713" d="M3901.65,102.968c-2.231-.974-3.588-1.552-5.989-.723" transform="translate(-3890.582 -95.776)" fill="none"/>
      <g id="_1931372774352" transform="translate(2.754 9.825)">
        <path id="Caminho_10714" data-name="Caminho 10714" d="M3861.14,168.65a19.778,19.778,0,0,1-4.411-3.659c4.1-.239,2.1-.447,6,.588a1.729,1.729,0,0,1-1.588,3.071Z" transform="translate(-3856.729 -164.796)" fill="#ccc"/>
      </g>
      <path id="Caminho_10715" data-name="Caminho 10715" d="M3861.924,170.193a33.57,33.57,0,0,0-5.2-2.123" transform="translate(-3853.966 -158.05)" fill="none"/>
    </g>
    <g id="Grupo_4087" data-name="Grupo 4087" transform="translate(228.614 192.432)">
      <text id="machine" transform="translate(-1.91 17.487)" fill="#ccc" stroke="#ccc" stroke-linecap="round" stroke-linejoin="round" stroke-width="1.5" font-size="25" font-family="ROCKETWILDNESS"><tspan x="0" y="0">machine</tspan></text>
    </g>
    <g id="_1931378527424" transform="translate(197.782 121.403)">
      <path id="Caminho_10716" data-name="Caminho 10716" d="M1421.046,104.319c2.984-.1,4.669,4.518,8.27,5.8a7.829,7.829,0,0,0,7.906-1.675,15.338,15.338,0,0,1,1.945-1.581,11.969,11.969,0,0,0,.207,3.63,9.7,9.7,0,0,0,17.174,3.483,10.713,10.713,0,0,0,.8-1.268c.863-1.639.112-1,1.331-1.75,2.455-1.494,3.711-3.977,7.219-3.8,5.362.272,5.281,5.5,10.381,6.227a24.474,24.474,0,0,1-1.644,5.561,28.012,28.012,0,0,1-52.621-2.563,28.551,28.551,0,0,1-.968-12.069Zm27.212-4.474a8.344,8.344,0,1,1-7.8,8.877,8.346,8.346,0,0,1,7.8-8.877Zm-7.418-13c2.629-.02,3.871-.438,5.394-1.721,1.688-1.419,2.116-2.91,2.48-4.949a28.072,28.072,0,0,1,12.638,2.966A28.213,28.213,0,0,1,1475.281,99.1a28.267,28.267,0,0,1,1.247,12.917,5.084,5.084,0,0,1-2.546-1.057,12.843,12.843,0,0,1-1.764-1.728,9.543,9.543,0,0,0-4.015-3.036,7.789,7.789,0,0,0-5.833.337c-1.795.9-3.221,2.621-3.96,2.934,0-2.54.125-4-1.414-6.46a9.72,9.72,0,0,0-17.158,1.423c-.416,1.029-.247.371-1.623,1.411-2,1.507-3.513,3.506-6.611,3.328a6.332,6.332,0,0,1-3.172-1.016c-2.351-1.6-3.363-4.665-7.144-5.21l.1-.574c.455-.006,1.26.249,1.916.268a7.165,7.165,0,0,0,7.382-7.106,13.127,13.127,0,0,0,2.1.667,7.167,7.167,0,0,0,8.068-4.846,7.4,7.4,0,0,0-.015-4.506Zm-1.829-.794a7.444,7.444,0,0,1,.836,2.8,5.829,5.829,0,0,1-8.432,5.486c-.491-.249-.763-.528-1.156-.759a.655.655,0,0,0-1.043.622,14.411,14.411,0,0,1,.113,1.685,5.839,5.839,0,0,1-7.492,5.154c-1.447-.44-1.462-.535-1.859,1.525a29.568,29.568,0,0,0,1.372,16.035,29.367,29.367,0,1,0,32.337-39.371,29.988,29.988,0,0,0-5.432-.409c-.719.009-.873.245-.891,1.01a5.835,5.835,0,0,1-5.643,5.682c-1.2.03-2.915-.779-2.71.536Z" transform="translate(-1419.45 -78.823)" fill="#ccc"/>
      <path id="Caminho_10717" data-name="Caminho 10717" d="M1505.605,701.389c-.47.184-.519.63-.271,1.1a28.63,28.63,0,0,0,2.767,4.328l1.1,1.289a26.035,26.035,0,0,0,6.172,5.094c.421.256,1.758,1.164,2.3.948a.693.693,0,0,0,.222-1.053l-3.049-1.826a25.632,25.632,0,0,1-8.248-9.278c-.166-.342-.388-.844-1-.6Z" transform="translate(-1499.64 -661.052)" fill="#ccc"/>
      <path id="Caminho_10718" data-name="Caminho 10718" d="M1805.187,847.228c-.8.285-1.763.78-2.553,1.16-.388.189-.988.35-1.125.743-.2.591.276,1.036.886.861.251-.075.977-.453,1.265-.59.635-.3,2.244-.913,2.38-1.344A.643.643,0,0,0,1805.187,847.228Z" transform="translate(-1776.747 -797.472)" fill="#ccc"/>
      <path id="Caminho_10719" data-name="Caminho 10719" d="M2145.155,688.84c-.851.332-1.638.759-2.486,1.15-.408.188-1.009.327-1.135.756a.669.669,0,0,0,.9.839c.315-.106.9-.4,1.216-.558.588-.285,2.26-.944,2.4-1.325a.653.653,0,0,0-.895-.862Z" transform="translate(-2094.785 -649.316)" fill="#ccc"/>
      <path id="Caminho_10720" data-name="Caminho 10720" d="M1566.923,456.953c-.843.333-1.646.762-2.489,1.15-.393.182-1.014.357-1.137.753a.67.67,0,0,0,.9.844c.339-.118.869-.4,1.213-.564.447-.2,2.261-.944,2.4-1.325a.654.654,0,0,0-.891-.859Z" transform="translate(-1553.955 -432.432)" fill="#ccc"/>
      <path id="Caminho_10721" data-name="Caminho 10721" d="M2151.041,383.871c-.851.317-1.7.793-2.544,1.166-.416.184-1,.36-1.119.754a.668.668,0,0,0,.881.846l2.519-1.177c.33-.149,1.006-.354,1.134-.739a.656.656,0,0,0-.871-.852Z" transform="translate(-2100.251 -364.088)" fill="#ccc"/>
      <path id="Caminho_10722" data-name="Caminho 10722" d="M1473.045,559.879a21.937,21.937,0,0,0-2.273,1.088c-.373.181-.842.315-.942.719a.661.661,0,0,0,.847.821c.3-.065,1.87-.908,2.257-1.1.364-.176.833-.318.917-.738A.659.659,0,0,0,1473.045,559.879Z" transform="translate(-1466.548 -528.739)" fill="#ccc"/>
      <path id="Caminho_10723" data-name="Caminho 10723" d="M2007.627,790.26c-.411.182-.37.369-.586.989-.13.373-.8,2.245-.8,2.485a.651.651,0,0,0,.921.617c.531-.182.781-1.58,1-2.211a6.87,6.87,0,0,0,.387-1.3.626.626,0,0,0-.921-.576Z" transform="translate(-1968.277 -744.169)" fill="#ccc"/>
      <path id="Caminho_10724" data-name="Caminho 10724" d="M1681.036,370.029c-.4.179-.376.41-.578.992-.144.419-.276.824-.417,1.234a6.8,6.8,0,0,0-.38,1.251.662.662,0,0,0,.919.617c.515-.178,1.39-3.385,1.389-3.515a.632.632,0,0,0-.933-.58Z" transform="translate(-1662.826 -351.121)" fill="#ccc"/>
      <path id="Caminho_10725" data-name="Caminho 10725" d="M1681.3,741.308c-.461.194-.454.493-.629,1.015a20.043,20.043,0,0,0-.788,2.512.663.663,0,0,0,.9.575c.459-.158.78-1.539,1.023-2.25a5.852,5.852,0,0,0,.38-1.287.614.614,0,0,0-.891-.565Z" transform="translate(-1663.035 -698.391)" fill="#ccc"/>
      <path id="Caminho_10726" data-name="Caminho 10726" d="M1918.521,172.759c-.351.168-.424.427-.754.951-.236.372-.442.672-.665,1.027a3.922,3.922,0,0,0-.592,1.091.664.664,0,0,0,.969.664,15.818,15.818,0,0,0,1.994-3.1A.642.642,0,0,0,1918.521,172.759Z" transform="translate(-1884.348 -166.612)" fill="#ccc"/>
      <path id="Caminho_10727" data-name="Caminho 10727" d="M1946.38,293.447c-.473.14-.49.461-.666.987l-.81,2.5a.653.653,0,0,0,.865.672c.48-.122.8-1.494,1.052-2.234a7.458,7.458,0,0,0,.387-1.269A.637.637,0,0,0,1946.38,293.447Z" transform="translate(-1910.909 -279.534)" fill="#ccc"/>
      <path id="Caminho_10728" data-name="Caminho 10728" d="M2020.891,392.168a.665.665,0,0,0-.42,1.052c.064.1,2.785,1.742,3.312,1.582a.694.694,0,0,0,.334-1.029,3.714,3.714,0,0,0-1.014-.608C2022.668,392.934,2021.343,392.066,2020.891,392.168Z" transform="translate(-1981.462 -371.888)" fill="#ccc"/>
      <path id="Caminho_10729" data-name="Caminho 10729" d="M1787.852,294.811a.651.651,0,0,0-.355.992c.181.287.729.481,1.049.651.43.23,1.811,1.11,2.26.969a.688.688,0,0,0,.35-1.007,3.846,3.846,0,0,0-1.042-.655c-.4-.223-1.828-1.125-2.261-.951Z" transform="translate(-1763.576 -280.816)" fill="#ccc"/>
      <path id="Caminho_10730" data-name="Caminho 10730" d="M2033.734,622.75a.669.669,0,0,0-.348,1.018c.145.218,2.82,1.709,3.3,1.6a.68.68,0,0,0,.308-1.083,20,20,0,0,0-2.093-1.163c-.348-.184-.74-.523-1.164-.375Z" transform="translate(-1993.555 -587.525)" fill="#ccc"/>
      <path id="Caminho_10731" data-name="Caminho 10731" d="M2046.778,263.291a.529.529,0,0,0-.395.438c-.164.72.5.845,1.168,1.211.45.246,1.778,1.124,2.283.932a.7.7,0,0,0,.223-1.088c-.006-.006-2.742-1.718-3.279-1.492Z" transform="translate(-2005.799 -251.338)" fill="#ccc"/>
      <path id="Caminho_10732" data-name="Caminho 10732" d="M1849.791,729.193a.646.646,0,0,0-.271,1.058c.08.087,2.765,1.729,3.276,1.539a.686.686,0,0,0,.285-1.046c-.106-.128-2.827-1.765-3.29-1.551Z" transform="translate(-1821.524 -687.099)" fill="#ccc"/>
      <path id="Caminho_10733" data-name="Caminho 10733" d="M1621.83,662.32a.689.689,0,0,0-.24,1.073l2.1,1.16c.323.171.787.526,1.2.348a.7.7,0,0,0,.234-1.067c-.039-.043-2.772-1.753-3.3-1.514Z" transform="translate(-1608.357 -624.548)" fill="#ccc"/>
      <path id="Caminho_10734" data-name="Caminho 10734" d="M1485.253,653.607c-.636.22-.512.647-.271,1.291.167.454.349,1.041,1.042.792.523-.186.4-.792.219-1.285-.178-.472-.323-1.027-.99-.8Z" transform="translate(-1480.559 -616.371)" fill="#ccc"/>
    </g>
    <path id="Caminho_10736" data-name="Caminho 10736" d="M3.863,1296.653c5.18,1.217,7.735,5.954,13.333,7.738,7.718,2.168,12-.721,17.848-5.108,13.377-10.031,23.2,14.146,36.236,4.378,20.152-13.98,15.284-2.81,28.563,1.462,14.09,4.536,15.659-7.507,26.12-7.411l-.017-4.271a31.655,31.655,0,0,0-4.034.441,12.726,12.726,0,0,0-4.042,1.607c-21.681,14.7-16.161-.745-32.105-2.36-13.142-1.332-17.3,14.989-30.507,5.016-4.611-3.483-7.065-5.81-13.3-5.575-6.181.234-8.921,3.087-13.882,6.639C17.147,1305.674,13.32,1292.6,1.1,1292.1l-.039,4.192,2.8.361Z" transform="translate(104.958 -1092.204)" fill="#ccc"/>
    <path id="Caminho_10737" data-name="Caminho 10737" d="M515.159,61.16A31.274,31.274,0,1,1,483.4,92.43,31.517,31.517,0,0,1,515.159,61.16ZM493.941,93.02a1.447,1.447,0,0,0,1.724,1.1l37.717-7.1a1.407,1.407,0,1,0-.6-2.739l-37.545,7.07A1.5,1.5,0,0,0,493.941,93.02Zm18.557,17.1c5.349-1.007,11.89-2.049,17-3.467a13.522,13.522,0,0,0,3.979-1.859,6.45,6.45,0,0,0,2.633-6.08c-.026-.226-.094-.455-.119-.682-.03-.275.017-.325-.033-.623l-18.255,3.438a30.4,30.4,0,0,0-9.624,3.406,11.369,11.369,0,0,0-1.475,1.018c-.23.2-.426.34-.627.547s-.378.426-.578.656a3.255,3.255,0,0,0-.489.641,4.157,4.157,0,0,1-.417.766c-.329-1.194-3.433-3.9-4.013-3.792-4.19.789-3.424.363-3.165,1.667a6.338,6.338,0,0,0,5.088,4.965c2.8.55,6.489.076,10.091-.6ZM494.134,98.779c.326,1.731.421,3.537,2.165,4.41a3.576,3.576,0,0,0,2.2.419l1.223-.262c.364-.069.491-.028.71-.062l1.013-.262c.364-.069.49-.028.71-.062l1.013-.262c.364-.069.491-.028.71-.062l1.012-.262c.364-.069.49-.028.71-.062l1.013-.262c.364-.069.491-.028.71-.062l1.013-.262c.364-.069.49-.028.71-.062l1.012-.262c.364-.069.491-.028.71-.062l1.012-.262c.364-.069.49-.028.71-.062l1.012-.262c.364-.069.49-.028.71-.062l1.013-.262c.364-.069.491-.028.71-.062l1.012-.262c.364-.069.49-.028.71-.062l1.012-.262c.364-.069.49-.028.71-.062l1.013-.262c.363-.069.49-.028.71-.062l1.013-.262c.364-.069.491-.028.711-.062l1.012-.262c.364-.069.49-.028.71-.062l1.012-.262c.364-.069.491-.028.711-.062l1.012-.262c.364-.069.49-.028.71-.062L529,97.835c.364-.069.491-.028.71-.062l1.013-.262c.364-.069.49-.028.71-.062l1.012-.262a6.962,6.962,0,0,0,.918-.118c.963-.306,1.55-.16,2.516-1.137,1.59-1.608.974-3.27.593-5.3a3.855,3.855,0,0,0-1.734-2.185c-1.381-.728-2.7-.369-4.307-.065-.314.059-.961,1.52-1.581,2.222-.227.257-.388.45-.6.714-1.715,2.106-4.191,3.939-6.864,2.181-.836-.551-2.466-1.967-3.261-1.818-2.192.413-1.327,1.141-2.594,1.38a2.523,2.523,0,0,1-1.506-.542c-.261-.181-.408-.22-.643-.377-.566-.377-.417-.471-.689-.42l-14.984,2.821a4.275,4.275,0,0,0-2.782,1.4,3.637,3.637,0,0,0-.789,2.838ZM513.953,84.7c-.115-.609,1.966-.925,2.066-.389C516.126,84.881,514.06,85.27,513.953,84.7Zm-15.146,1.961c.659-.29,1.872-.387,2.213.386C500.342,87.548,499.042,87.387,498.807,86.664Zm22.744-5.175c1.558-.686,2.71.382,1.97.521a2.6,2.6,0,0,1-1.363.018A.726.726,0,0,1,521.551,81.489Zm-14.386,3.155a.511.511,0,0,1-.566-.161c.047-.626,1.095-1.029,1.953-.992.118.712-.785,1.04-1.388,1.154Zm18.372-6.135c.051-.678,1.514-1.016,2.121-.578C527.415,78.715,525.921,78.868,525.538,78.51ZM512.7,79.946a1.407,1.407,0,0,1,1.184.134c-.051.684-1.555.82-2.12.578C511.8,80.194,512.15,80.05,512.7,79.946ZM503.31,82.16c-1.542.29-.877-1.1,1.146-1.018.071.432-.036.489-.338.67a3.786,3.786,0,0,1-.808.349Zm13.34-4.92c-.078-.759,1.321-1.243,1.937-1.078.049.474-.3.681-.692.878A1.549,1.549,0,0,1,516.65,77.24Zm-9.624.029a1.82,1.82,0,0,1,2.153-.406c-.056.738-1.718.726-1.826.7C506.992,77.464,507.176,77.459,507.026,77.269Zm-12.37,13.386,38.406-7.232c.329-.062.159-.219.064-.63a11.2,11.2,0,0,0-5.42-6.578,24.065,24.065,0,0,0-16.295-2.178c-5.084.958-10.567,3.495-13.95,7.43a13.738,13.738,0,0,0-2.647,4.5,9.185,9.185,0,0,0-.443,4.205c.027.266-.054.553.286.489Z" transform="translate(-346.176 59.1)" fill="#ccc"/>
    <path id="Caminho_11528" data-name="Caminho 11528" d="M2927.051,92.546l10.674-.786,1.563,21.226-10.676.785Z" transform="translate(-2625.83 25.716)" fill="#ccc"/>
  </g>
</svg>
