<svg id="Camada_x0020_1" xmlns="http://www.w3.org/2000/svg" width="19.355" height="9.39" viewBox="0 0 19.355 9.39">
  <path id="Caminho_11827" data-name="Caminho 11827" d="M8.863,7.169c-.041-.084-1.554-1.6-1.64-1.639-.553.482-.993,1.243-2,1.466a2.364,2.364,0,1,1-.16-4.646,2.335,2.335,0,0,1,1.179.536c.31.274.586.573.88.866l3.49,3.489a7.634,7.634,0,0,0,1.892,1.6,4.727,4.727,0,0,0,4.211.082A4.812,4.812,0,0,0,18.2,7.811a4.745,4.745,0,0,0,.926-4.663A4.691,4.691,0,0,0,12.418.586a5.9,5.9,0,0,0-1.435,1.181c-.147.15-.3.285-.437.44.041.084,1.554,1.6,1.64,1.639.545-.475,1-1.249,2-1.467a2.364,2.364,0,1,1,.159,4.647,2.332,2.332,0,0,1-1.179-.536c-.311-.275-.584-.573-.879-.866-.616-.612-1.157-1.149-1.745-1.744S9.382,2.724,8.8,2.135A7.633,7.633,0,0,0,6.9.538,4.716,4.716,0,0,0,2.692.457a5.178,5.178,0,0,0-1.054.69A4.8,4.8,0,0,0,.259,3.229,4.7,4.7,0,0,0,6.992,8.79,5.885,5.885,0,0,0,8.427,7.608c.147-.15.3-.285.437-.44Z" transform="translate(-0.018 0.002)" fill="#177b81"/>
</svg>
