<svg id="Grupo_4967" data-name="Grupo 4967" xmlns="http://www.w3.org/2000/svg" width="134.286" height="134.286" viewBox="0 0 134.286 134.286">
  <rect id="Retângulo_3636" data-name="Retângulo 3636" width="134.286" height="134.285" rx="31" transform="translate(0 0)" fill="#ec2333"/>
  <g id="_2422296701200" transform="translate(11.322 43.744)">
    <path id="Caminho_13777" data-name="Caminho 13777" d="M6478.872,746.112c-1.935.122-3.587-1.067-8.216.817a20.1,20.1,0,0,0-5.456,4.16c-2.809,3.329-5.916,7.848-5.909,13.677a6.524,6.524,0,0,0,1.894,4.89c2.588,2.529,8.16,1.217,10.294-.254a16.445,16.445,0,0,0,1.933-1.483c1.187-1.117.935-1.685,1.71-1.561-.024,1.332-1.046,2.979-.973,4.15,1.5.156,5.962.058,7.764.057,1.506,0,.8-.819,1.535-3.807l3.677-17.674c.41-1.52.529-3.006.906-4.565.338-1.4.612-2.911.9-4.394a37.675,37.675,0,0,0,.881-4.664l-8.59-.011c-.312.881-.833,4.1-1.147,5.317a54.511,54.511,0,0,1-1.2,5.345Z" transform="translate(-6375.945 -735.386)" fill="#fdfffd"/>
    <path id="Caminho_13778" data-name="Caminho 13778" d="M6042.819,900.494a1.434,1.434,0,0,1-.317.12c-.064.02-.255.07-.322.086a15.614,15.614,0,0,0-4.21,1.6,20.785,20.785,0,0,0-3.784,2.8,18.947,18.947,0,0,0-4.943,8.261c-1.116,3.56-1.029,7.513,2.067,10,2.869,2.3,6.863,2.717,10.488,2.083a17.127,17.127,0,0,0,10.286-6.234l.524-.63a1.042,1.042,0,0,0,.21-.288,19.293,19.293,0,0,0,2.709-5.53c1.249-3.965.831-7.9-2-10.1a11.173,11.173,0,0,0-4.572-2.025C6047.96,900.423,6043.805,900.088,6042.819,900.494Z" transform="translate(-5972.011 -889.993)" fill="#fdfffd"/>
    <path id="Caminho_13779" data-name="Caminho 13779" d="M5604.227,899.724c-.588.091-.9.06-1.505.191-.544.117-.73.225-1.237.35a10.555,10.555,0,0,0-2.485.844,16.766,16.766,0,0,0-4.041,2.562c-3.677,2.971-6.623,8.568-6.462,13.525.119,3.683,2.335,5.766,5.369,7a15.6,15.6,0,0,0,6.691.791,16.907,16.907,0,0,0,9.125-4.061,17.647,17.647,0,0,0,1.631-1.657,17.275,17.275,0,0,0,3.808-6.2c1.259-3.565,1.611-7.7-.963-10.312A12.014,12.014,0,0,0,5604.227,899.724Z" transform="translate(-5559.261 -889.329)" fill="#fdfffd"/>
    <path id="Caminho_13780" data-name="Caminho 13780" d="M5319.126,745.219l-2.994.038a29.175,29.175,0,0,0-.88,4.956l2.767.017a27.655,27.655,0,0,1-.914,4.838c-.8,4.866-2.016,9.818-2.882,14.827-.158.918-.467,2.227-.683,3.192a23.93,23.93,0,0,0-.613,3.289c1.874.147,6.586.07,8.618.028.189-1.163.473-2.1.681-3.25l1.325-6.806c.524-2.028,1.518-7.488,2.067-10.055l1.008-5.078c.3-1.53-.075-1.056,5.413-1.084l1.1-.011a12.854,12.854,0,0,0,.575-2.448l.387-1.92c.051-.511.1-.261-.1-.477-.34-.326-5.337-.111-6.19-.141a9.611,9.611,0,0,1,1.046-3.874c.986-1.529,2.214-1.618,3.941-1.615,3.893.008,4.015.964,5.07.82a37.831,37.831,0,0,0,.856-5.01c-1.257-.688-4.644-1-6.305-1-3.089,0-6.714,1.088-8.791,3.23-2.814,2.9-3,3.177-4.505,7.528Z" transform="translate(-5300.825 -734.458)" fill="#fdfffd"/>
    <path id="Caminho_13781" data-name="Caminho 13781" d="M5581.106,1412.59c-.278.617-3.324,2.815-4.161,3.282a34.119,34.119,0,0,1-5.107,2.495c-.9.318-1.759.591-2.708.96a33.273,33.273,0,0,1-10.1,1.115,22.193,22.193,0,0,1-14.564-7.928,20.883,20.883,0,0,1-2.244-3.452c-.314-.67-.2-.946-.986-.9-.04,1.492,1.636,5.525,2.263,6.713a23.8,23.8,0,0,0,8.733,9.257,20.31,20.31,0,0,0,6.43,2.6,33.45,33.45,0,0,0,22.413-3.414,29.573,29.573,0,0,0,4.135-2.713c.389-.315.89-.848,1.366-.84.211.564.342,1.089.533,1.666.188.557.407,1.118.634,1.764l.905,2.669a2.9,2.9,0,0,0,.167.465c.147.275.043.2.287.328l3.5-17.419c.334-1.594.084-1.2-4.122-1.2h-4.308c-2.73,0-5.948-.161-8.616,0,.306.789,5.176,3.639,5.551,4.551Z" transform="translate(-5514.947 -1366.105)" fill="#fdfffd"/>
    <path id="Caminho_13782" data-name="Caminho 13782" d="M5118.2,931.472l8.617.021,2.413-12.206c.293-1.686,2.474-11.156,2.287-12.155l-6.935-.01c-1.809,0-1.554-.928-2.49,4.555-.231,1.353-.587,2.559-.8,4.016-.168,1.163-.541,2.662-.794,3.89l-1.542,8C5118.828,928.062,5118.175,931.145,5118.2,931.472Z" transform="translate(-5118.197 -896.331)" fill="#fdfffd"/>
    <path id="Caminho_13783" data-name="Caminho 13783" d="M5209.1,741.471c.977.089,7.973.19,8.442-.108.44-.278.637-2.311.829-3.346a21.489,21.489,0,0,0,.644-3.548l-8.536-.049a59.9,59.9,0,0,0-1.379,7.051Z" transform="translate(-5203.454 -734.42)" fill="#fdfffd"/>
  </g>
</svg>
