<svg id="Camada_x0020_1" xmlns="http://www.w3.org/2000/svg" width="14.426" height="14.052" viewBox="0 0 14.426 14.052">
  <path id="Caminho_11832" data-name="Caminho 11832" d="M1.772,12.371c.128-.358.25-.748.378-1.125.223-.659.441-.857.283-1.114A5.8,5.8,0,0,1,1.51,7.941a5.559,5.559,0,0,1,.122-2.785A5.493,5.493,0,0,1,3.546,2.423,6.915,6.915,0,0,1,4.5,1.8a5.657,5.657,0,0,1,2.439-.672,5.856,5.856,0,0,1,4.6,1.661,5.481,5.481,0,0,1,1.793,4.387,6.011,6.011,0,0,1-1.495,3.54,2.565,2.565,0,0,1-.2.182l-.414.393a6.188,6.188,0,0,1-4.795,1.3,6.37,6.37,0,0,1-2.276-.838c-.211-.113-.933.188-1.19.27a10.137,10.137,0,0,1-1.191.35ZM.017,14.04c.128.067.274-.028.722-.172L2.909,13.2c1.111-.324.848-.378,1.388-.126a7.343,7.343,0,0,0,7.383-.746,6.746,6.746,0,0,0,2.21-8.077A7.15,7.15,0,0,0,1.829,2.627,6.621,6.621,0,0,0,.956,9.842c.327.7.251.715-.006,1.433-.124.346-.971,2.64-.933,2.765Z" transform="translate(-0.016 -0.011)" fill="#177b81"/>
  <path id="Caminho_11833" data-name="Caminho 11833" d="M621.011,586.519c-.314-.142-.7-.425-1.207-.627-.11-.044-.228-.09-.34-.125-.312-.1-.384.1-.744.552-.332.413-.536.3-1.231-.11a4.755,4.755,0,0,1-1.44-1.365c-.15-.229-.3-.377-.135-.6.361-.5.6-.425.318-1.2a4.28,4.28,0,0,0-.627-1.219,1.146,1.146,0,0,0-1.321.438c-1,1.54.991,3.875,2.144,4.733a6.614,6.614,0,0,0,2.553,1.138,2.053,2.053,0,0,0,1.452-.3,1.373,1.373,0,0,0,.577-1.32Z" transform="translate(-610.128 -578.075)" fill="#177b81"/>
</svg>
