<svg xmlns="http://www.w3.org/2000/svg" xmlns:xlink="http://www.w3.org/1999/xlink" width="247.453" height="319.558" viewBox="0 0 247.453 319.558">
  <defs>
    <filter id="Caminho_13684">
      <feOffset dx="5" dy="-9" input="SourceAlpha"/>
      <feGaussianBlur stdDeviation="9" result="blur"/>
      <feFlood flood-opacity="0.141" result="color"/>
      <feComposite operator="out" in="SourceGraphic" in2="blur"/>
      <feComposite operator="in" in="color"/>
      <feComposite operator="in" in2="SourceGraphic"/>
    </filter>
    <clipPath id="clip-path">
      <path id="Caminho_13349" data-name="Caminho 13349" d="M30131.037,5955.47a97.063,97.063,0,1,1-97.055,97.063A97.061,97.061,0,0,1,30131.037,5955.47Z" transform="translate(-30033.982 -5955.47)"/>
    </clipPath>
  </defs>
  <g id="Grupo_4870" data-name="Grupo 4870" transform="translate(22075.564 2286.17)">
    <g data-type="innerShadowGroup">
      <path id="Caminho_13684-2" data-name="Caminho 13684" d="M30131.037,5955.47a97.063,97.063,0,1,1-97.055,97.063A97.061,97.061,0,0,1,30131.037,5955.47Z" transform="translate(-52109.547 -8116.211)" fill="#fff"/>
      <g transform="matrix(1, 0, 0, 1, -22075.56, -2286.17)" filter="url(#Caminho_13684)">
        <path id="Caminho_13684-3" data-name="Caminho 13684" d="M30131.037,5955.47a97.063,97.063,0,1,1-97.055,97.063A97.061,97.061,0,0,1,30131.037,5955.47Z" transform="translate(-30033.98 -5830.04)" fill="#fff"/>
      </g>
    </g>
    <g id="Grupo_4867" data-name="Grupo 4867" transform="translate(-23323.619 -3405.715)">
      <g id="Grupo_4487" data-name="Grupo 4487" transform="translate(1248.057 1244.978)" clip-path="url(#clip-path)">
        <g id="_2500134801424" transform="translate(38.554 105.493)">
          <path id="_1" data-name="1" d="M31835.494,10626.574c-6.344.844-14.262.627-20.824.565-19.445-.19-44.031-1.04-62.559-.215l-.184-.968c0,4.354-.961,8.353-.961,12.524a26.185,26.185,0,0,1-.121,4.609,23.727,23.727,0,0,0-.172,4.245c-.059,4.128-.969,9.056-.969,13.221.008,4.576-.641,8.582-.625,12.938.023,2.031-.32,2.6-.32,4.405,0,6.408-.328,11.87-.3,18.307.008,1.914-.32,2.288-.32,4.086l-.309,22.714v4.736l-.641,17.653a30.042,30.042,0,0,1-.3,4.437c-.3,2.721.289,6.378-.031,9.1l-.613,18c.012,1.938-.309,2.476-.332,4.082-.1,7.518-.613,15.162-.613,22.718,0,8.808-.961,17.53-.945,26.493l-.3,9.153c0,1.794-.332,2.169-.32,4.09l-.316,6.62c-.051.645,0,1.541,0,2.21l-.641,13.233c-.062,1.514.121,3.265.012,4.747l-.332,4.407a27.31,27.31,0,0,1-.281,4.128c-.164,1.389.051,3.264-.016,4.719l-.625,8.524c-.145,1.307.051,3.043,0,4.405l-.637,13.548h31.848l1.246-22.705c-.008-1.856.285-2.348.336-3.772l1-19.185c.523-3.378.457-8.038.859-11.44.148-1.252-.113-2.8.035-4.052.836-7.136.68-15.089,1.535-22.439l.637-15.439c.059-1.431.355-1.912.332-3.774s.27-2.344.316-3.774c.223-5.677,1.207-14.706,1.258-18.94.035-3.685.8-7.43.945-11.351l.98-11c.438-4.028,1.078-8.639,1.223-12.646l5.68-54.87a92.493,92.493,0,0,1,.828-9.583c.469-2.613.109-5.046.5-7.688.445-2.93.02-4.51,3.719-4.5,1.207,0,2.492.063,3.063.749,1.078,1.321,1.121,10.535,1.367,12.8.125,1.031.223.338.3,1.6.113,1.634.223,2.3.324,3.783l2.441,23.719c.121.762.027,1.391.1,2.117l.418,3.683c.2,1.124.3,2.764.426,3.658.109.693.023,1.166.074,1.826l3.453,32.795c.051.6-.031,1.259.035,1.871l1.848,18.653c.293,2.585.219,5.3.59,7.612l1.648,26.417c-.031,4.191.645,7.176.625,11.363-.016,1.853.3,2.165.324,3.768l1.883,30.6c.1,1.334-.141,2.715.074,4.033a19.693,19.693,0,0,1,.23,3.546l1.582,26.8a31.245,31.245,0,0,1,.32,3.78c-.023,3.064.629,7.623.629,11.667,10.23,0,19.594.315,29.949.315,0-8.836-.926-17.586-.926-26.49,0-3.391-.324-5.6-.324-8.834,0-6.239-.332-11.577-.316-17.971.008-3.038-.32-5.476-.32-8.83,0-6.761.574-21.3-.5-27.248l-1.082-26.351c-.121-2.985.078-6.159.027-9.17-.027-1.61-.348-2.144-.332-4.084l-.309-13.878c.016-13.585-.7-26.815-.633-40.367.008-2.027-.324-2.6-.324-4.405,0-2.485.285-6.795-.121-9.028l-.492-18.11c-.023-1.613-.34-2.146-.316-4.087v-13.891c-.023-1.61-.328-2.145-.328-4.09l-.812-13.058c-.48-2.638-.285-5.834-.687-8.45l-.363-4.057C31837.2,10643.019,31836.686,10628.751,31835.494,10626.574Z" transform="translate(-31740.893 -10625.957)" fill="#191919"/>
        </g>
      </g>
      <path id="Caminho_13350" data-name="Caminho 13350" d="M32645.762,2173.15a28,28,0,0,0,2.66,3.1,22.627,22.627,0,0,0,11.391,7.242,18.765,18.765,0,0,0,10.578-.535,21.522,21.522,0,0,0,4.145-1.831,22.605,22.605,0,0,0,2.016-1.165,9.173,9.173,0,0,1,1.988-1.278c.047,7.833-9.977,16.474-18.555,12.793C32655.48,2189.539,32647.344,2179.261,32645.762,2173.15Zm30.938-11.491c-.457,4.282-4.457,5.307-8.984,5.194-4.406-.108-7.6-1.506-8.7-5.18Zm-40.555-14.489c-1.266-.875-2.863-.3-3.883-1.577.355-.264.121-.27.773-.466,2.148-.654,6.789,1.864,6.824,5.7-1.582-.429-1.18-1.233-2.418-2.217-2.652,1.946-1.289,1.913-.9,5.083C32632.738,2152.765,32634.9,2149.322,32636.145,2147.17Zm-3.742,54.818c.949-.024.7.236.941,1.325a18.915,18.915,0,0,1,.414,2.206c1.082.482,1.066.773,1.8,1.582l1.293,1.537a3.885,3.885,0,0,1,.445.656c.91,0,.148-.068.465.316-.687,0-.012-.092-.316.6l.82-.41c3.289,1.328,3.043,2.355,9.633,4.17,8.012,2.212,23.34,1.911,30.816-2.208a24.636,24.636,0,0,1,4.77-2.46c.566-1.4,1.957-2.736,2.7-3.872l4.926.039-4.465-.288c.168-.625.289-1.137.465-1.724.477-1.754.363-1.253.8-1.654-.238-.989.094-.469-.6-1.056a30.893,30.893,0,0,0-7.6-3.439c0-4.395-.324-7.856-.324-11.984,0-5.114-1.02-6.711,2.445-10.172a23.112,23.112,0,0,0,4.773-7.842l2.23-8.826c.332-1.287.2-.477.016-1.226l.242-1.015-.539-.9c-3.387.849-5.094,2.283-9.09,1.231a10.106,10.106,0,0,1-3.762-1.948,20.192,20.192,0,0,0-2.723-2.559h-.586c0,2.244.469,5.493-1.043,6.61-1.082.8-4.52,1.035-5.266-1.061,2.594-.337,2.5.753,5.121-.343l-.2-10.669c-.539-1.348-1.41-1.134-3.043-.711-1.609,2.831-.613,4.823-3.437,7.547-4.711,4.55-10.75,4.61-15.449.378-1.918-1.728-2.613-4.021-3.355-7.312-1.785-.02-4.176.345-5.832-.268l-.492-1.907c-.773-2.681-.508-2.164-2.273-3.787a9.473,9.473,0,0,0-4.086-2.1c-3.68,2.251-7.668,3.677-3.273,12.614a23.31,23.31,0,0,0,3.813,5.971c2.332,2.336,4.344,2.434,7.66,2.434.2,2.6,1.129,5.741,1.5,8.265l.066,24.216c0,2.05-.3,3.129-.3,4.73-2.578.6-6.566,2.824-8.836,4.419-.43.3-.844.583-1.258.888Z" transform="translate(-31321.195 -979.69)" fill="#f1a295"/>
      <path id="Caminho_13351" data-name="Caminho 13351" d="M32809.477,441.515a9.58,9.58,0,0,1,4.1,2.1c1.777,1.623,1.5,1.105,2.27,3.787l.93.5c.367-3.4,1.781-7.454,2.434-10.944.758-3.995.941-8.212,1.715-12.173,2.3.508,11.059,4.286,18.6,6.111,13.746,3.319,18.262-.1,22.117.919l1.488,7.26.266,1.109.488.857c1.09.118,1.285.653,1.855,1.192a7.7,7.7,0,0,0,1.855,1.27l.082.189c-.051-.94-.281-.844.145-1.5a30.171,30.171,0,0,1,.656-5.163c.238-1.461.641-3.448.855-4.83.242-1.645-.184-4.08.113-5.559.7-3.493,8.223-8.61.895-18.661-1.742-2.4-5.852-4.589-9.219-5.287a22.478,22.478,0,0,0-2.664-.387h-4.758a71.989,71.989,0,0,0-12.687,2.523c-1.387.368-2.949.832-4.383,1.3a14.5,14.5,0,0,1-4.762,1.226c-.227-.979-.391-.913-.625-1.892-7.18,0-13.754,7.118-13.879,12.614a40.05,40.05,0,0,0-4.918,3.592l-1.93,2.165c-4.727,5.677-.047,12.718-1.043,17.69Z" transform="translate(-31497.648 717.246)" fill="#191919"/>
      <path id="Caminho_13352" data-name="Caminho 13352" d="M31354.348,5275.658c-6.773.738-10.223,2.3-15.055,7.1l-3.242,4.34c1.078.392.172-.5.961.934l13.656,2.98c.012-3.453-.762-3.425,2.4-3.4l79.793-.115c14.32-.029,12.176-1.157,13.621,3.014l11.926-2.614.691-.739a28.392,28.392,0,0,0-6.492-7.5c-2.312-1.73-6.828-4.442-9.969-4.126l-21.766-.086a24.689,24.689,0,0,0-4.766,2.462c-7.484,4.12-22.809,4.417-30.828,2.208-6.574-1.815-6.332-2.842-9.629-4.171l-.809.409c-1.668-.594-11.977-.381-14.824-.694Z" transform="translate(-30058.586 -4045.824)" fill="#f2f1ee"/>
      <path id="Caminho_13353" data-name="Caminho 13353" d="M32208.018,10190.759c.2,1.5-.035,2.991.121,4.393a28.839,28.839,0,0,1,.3,4.207l.2.966c18.516-.829,43.109.021,62.559.212,6.566.061,14.484.282,20.824-.561,1.438-1.937,1.254-7,1.254-10.41l-85.312-.065Z" transform="translate(-30910.789 -8848.887)" fill="#f2f1ee"/>
      <path id="Caminho_13354" data-name="Caminho 13354" d="M31288.684,5802.716l-1.262.013a4.9,4.9,0,0,0-.766,2.051c-.133,1.041,0,1.446,1.082,1.731l-.316.488c5.824-.058,9.629,2.174,15.188,2.557l.078-3.494,94.645-.06.148,3.124c4.176.027,6.676-1.28,10.207-1.881a19.606,19.606,0,0,0,3.512-.419c.012-.774.387-.292,1.09-1.261a19.9,19.9,0,0,0-.613-2.243c-.375-1.167-.6-.75-1.59-.741l-11.93,2.611c-1.434-4.171.7-3.043-13.613-3.014l-79.785.115c-3.18-.023-2.395-.051-2.418,3.4Z" transform="translate(-30010.258 -4560.508)" fill="#191919"/>
      <path id="Caminho_13355" data-name="Caminho 13355" d="M32028.02,6512.841c2.672.506,90.9.159,93.277.159l.164-3.809-93.484,0Z" transform="translate(-30734.883 -5251.709)" fill="#191919"/>
      <path id="Caminho_13356" data-name="Caminho 13356" d="M32090.98,7918.362c2.527.832,38.746.228,44.613.228h45.105l.281-3.822-90.473-.018Z" transform="translate(-30796 -6625.521)" fill="#191919"/>
      <path id="Caminho_13357" data-name="Caminho 13357" d="M32060.8,7218.81l91.867.05.043-3.806-91.828,0Z" transform="translate(-30766.961 -5941.623)" fill="#191919"/>
      <path id="Caminho_13358" data-name="Caminho 13358" d="M32131.828,8625.955h66.539c3.43,0,20.445-.567,22,.313l.215-3.859h-88.75v3.543Z" transform="translate(-30836.383 -7317.188)" fill="#191919"/>
      <path id="Caminho_13359" data-name="Caminho 13359" d="M30986.984,7207.916c7.781-.037,16.57,3.8,24.438,4.645l-.055-3.676c-1.5-.792-20.984-4.617-23.754-4.994A19.082,19.082,0,0,0,30986.984,7207.916Z" transform="translate(-29717.414 -5930.717)" fill="#191919"/>
      <path id="Caminho_13360" data-name="Caminho 13360" d="M33153.336,1912.115l9.258-.135.25,3.972a10.571,10.571,0,0,1,3.75,10.622c-1.859,6.9-12.617,11.517-18.508,2.168-3.094-4.9-.109-7.847,1.016-11.8l-.148.049c-2.547,2.315-1.914,2.859-3.008,6.166-.211.27-4.141,1.372-5.477-.442l-.914-.5.477,1.906c1.656.614,4.055.249,5.852.27.734,3.291,1.438,5.583,3.344,7.311,4.7,4.23,10.742,4.172,15.453-.377,2.82-2.725,1.828-4.716,3.43-7.547,1.633-.424,2.516-.639,3.047.71.609.531.148-.744.648,1.014.117.434.164,1.117.3,1.635.3,1.251.742,1.557,1.031,2.815a20.954,20.954,0,0,1,2.727,2.559,10.084,10.084,0,0,0,3.758,1.948c3.984,1.052,5.7-.383,9.094-1.232,1.07-2.026,2.875-2.611,3.922-5.514.82-2.314.836-6.168-.492-8.1l-.266.152c-.289,4.465,2.594,6.772-3.5,12.246-4.273,3.85-15.57,2.71-16.008-8.591l-.352-.642-4.492.154c-.523-6-3.6-6.172-4.062-8.005a34.755,34.755,0,0,1-.148-3.6,33.474,33.474,0,0,0-5.219-.033C33155.375,1911.34,33153.953,1910.891,33153.336,1912.115Z" transform="translate(-31821.352 -757.566)" fill="#2c2b2b"/>
      <path id="Caminho_13361" data-name="Caminho 13361" d="M36140.27,7201.549a5.577,5.577,0,0,0,0-3.866,3.5,3.5,0,0,1-1.586-.414c-3.1,1.35-12.934,2.273-18,3.845-3.6,1.116-3.066.678-3.289,4.659C36124.992,7205.049,36132.574,7201.536,36140.27,7201.549Z" transform="translate(-34731.934 -5924.248)" fill="#191919"/>
      <path id="Caminho_13362" data-name="Caminho 13362" d="M36173.945,6523.83c.395-.6,1.047-1.193.918-2.169a2.812,2.812,0,0,0-1.543-1.9l-17.117,3.553a11.918,11.918,0,0,0-.484,3.8Z" transform="translate(-34769.41 -5262.043)" fill="#191919"/>
      <path id="Caminho_13363" data-name="Caminho 13363" d="M31127.434,6525.017c6.922-.249,13.082,3.083,19.121,3.368v-3.5l-18.8-4.191-1.6,3.077Z" transform="translate(-29853.43 -5262.951)" fill="#191919"/>
      <path id="Caminho_13364" data-name="Caminho 13364" d="M32132.156,5107.032h5.68c1.605-.737,11.914-.226,14.664-.226a4.959,4.959,0,0,0-.441-.657l-1.3-1.537c-.723-.809-.711-1.1-1.793-1.582l-8.293-.111c-4.414.553-7.586,2.962-8.84,3.253C32132.066,5107.026,32131.8,5106.439,32132.156,5107.032Z" transform="translate(-30836.383 -3877.2)" fill="#191919"/>
      <path id="Caminho_13365" data-name="Caminho 13365" d="M32823.8,2430.064c1.012,1.276,2.605.7,3.879,1.577-1.227,2.151-3.4,5.594.41,6.526-.387-3.169-1.762-3.138.891-5.083,1.25.983.828,1.788,2.418,2.217-.047-3.838-4.668-6.357-6.828-5.7C32823.941,2429.8,32824.172,2429.8,32823.8,2430.064Z" transform="translate(-31512.734 -1264.161)" fill="#d7726d"/>
      <path id="Caminho_13366" data-name="Caminho 13366" d="M32522.8,4954.8l8.281.111c-.1-.8-.223-1.415-.395-2.208-.254-1.091,0-1.35-.949-1.326a16.462,16.462,0,0,0-3.793,1.313A9.042,9.042,0,0,0,32522.8,4954.8Z" transform="translate(-31218.531 -3729.078)" fill="#f2f1ee"/>
      <path id="Caminho_13367" data-name="Caminho 13367" d="M32137.336,8816.936c13.7,1.052,29.3.585,43.2.585,14.207,0,29.477.344,43.563-.573l.27-1.368c0-2.468.746-6.992.012-8.98v-.627c.063-.47.414-.347-1.891-.324-.953.01-1.9.007-2.84.007H32136.7v.317c-.391.729-.145,4.263.066,5.606C32137.012,8813.146,32136.922,8815.4,32137.336,8816.936Z" transform="translate(-30840.953 -7496.262)" fill="#f2f1ee"/>
      <path id="Caminho_13368" data-name="Caminho 13368" d="M32175,9543.684h85.16c0-1.666.234-9.585.609-10.4h-87.016a42.752,42.752,0,0,0,.277,5.382C32174.246,9540.391,32173.375,9543.684,32175,9543.684Z" transform="translate(-30877.367 -8207.486)" fill="#f2f1ee"/>
      <path id="Caminho_13369" data-name="Caminho 13369" d="M32173.686,9248.125v4.17h81.039c7.035,0,5.988,1.35,5.988-5.523l-.27,1.366c-14.09.915-29.336.579-43.562.579C32203.006,9248.717,32187.381,9249.181,32173.686,9248.125Z" transform="translate(-30877.305 -7927.455)" fill="#191919"/>
      <path id="Caminho_13370" data-name="Caminho 13370" d="M32198.379,10026.956l-.07-1.258,85.309.063v-3.54c-28.594,0-56.637-.312-85.461-.312C32198.156,10023.447,32197.891,10025.8,32198.379,10026.956Z" transform="translate(-30901.148 -8685.086)" fill="#191919"/>
      <path id="Caminho_13371" data-name="Caminho 13371" d="M30934.2,6026c-5.867,0-42.078.6-44.605-.227l-.48-3.616,90.477.018-.281,3.825Zm-45.672-19.646,91.828.006-.051,3.8-91.867-.049Zm-.82-15.941,93.465.005-.145,3.8c-2.383,0-90.609.35-93.277-.158Zm-15.953-10.995-1.574.171c-.074,3.019-3.082,8.658-1.262,11.083l18.8,4.19-.008,3.5c-6.023-.283-12.187-3.617-19.1-3.368-1.9.041-1.762.041-2.094,1.716l-1.7,9.391c2.773.375,22.258,4.2,23.754,4.993l.051,3.677c-7.867-.841-16.656-4.683-24.437-4.646-.051.061-.133.072-.141.178l-.492.781c-.934,1.9-2.207,8.687-2.207,10.418,1.934.163,2.023.8,3.789.634l24.219,5.711.594,10.047h66.637c4.344,0,19.082.569,22.223-.164l.621-10.127,22.555-5.255,4.113-.845-1.691-9.022c-.328-1.349-.531-1.778-1.473-2.248-7.7-.012-15.254,3.5-22.859,4.222.2-3.979-.3-3.542,3.281-4.66,5.063-1.572,14.9-2.493,18.008-3.843.34-.775.172-.592,1.262-.846a37.187,37.187,0,0,0-1.016-4.979,26.258,26.258,0,0,1-.875-5.111,6.08,6.08,0,0,0-1.582-.3l-18.211,3.28a11.837,11.837,0,0,1,.469-3.8l17.121-3.551c1.063-2.443.047-4.692-.824-8.38a20.525,20.525,0,0,0-.75-3.022h-1.414a20.019,20.019,0,0,1-3.508.418c-3.531.6-6.047,1.907-10.207,1.883l-.145-3.127-94.656.06-.07,3.493C30881.381,5981.588,30877.588,5979.359,30871.752,5979.414Z" transform="translate(-29594.602 -4732.92)" fill="#f2f1ee"/>
      <path id="Caminho_13372" data-name="Caminho 13372" d="M31095.734,7874.328a61.116,61.116,0,0,1,7.656-3.473l.137-.009c.609-.242,1.168-.444,1.719-.623-.332-.019-.652-.035-.945-.059,1.84-.288,8.012-4.147,12.82-5.1,5.094-2.379,9.746-2.024,17.066-7.3,2.141-1.537,12.055-10.517,6.105-14.7-6.172-.69-11.836,3.93-16.648,5.285.6-2.61,2.68-3.1,1.469-6.249-3.07.255-5.484,2.3-7.906,3.219-1.039,1.031-1.617,1.159-2.453,2.154-.871,1.021-1.449,1.183-2.176,2.554-1.59,3.017-.488,4.168-4.559,4.978a21.025,21.025,0,0,1-7.363,2.359c-1.008,1.028-9.871,3.289-12.113,3.945-3.336.975-9.18,3.484-12.172,3.871-1.8,1.218-13.82,4.839-16.629,5.23l.391-.884c-.855-.387-.441.59-.621-1.236l1.617-24.3h.758l-.391-.342c-.664-.573-.355-4.436-.367-5.481-3.582-.059-21.156.629-23.418,1.319l-.121,1.979.516,38.787a31.485,31.485,0,0,0,1.215,8.566c2.2,6.579,6.754,7.222,12.7,5.355l7.215-2.883c0,.125-.023,1.257-.023,1.275.219,1.04-.074.343.59.932l-.434-2.628,1.781-.436c.887-.89,2.469-1.4,3.73-2.024a26.35,26.35,0,0,1,3.816-1.719,15.392,15.392,0,0,1,4.063-.491l.23-.138-2.516,0c.816-.941,1.547-.954,3-1.666,3.172-1.544,15.512-7.243,19.945-8.982.426-.2.848-.393,1.238-.58Z" transform="translate(-29766.875 -6550.662)" fill="#f1a295"/>
      <ellipse id="Elipse_921" data-name="Elipse 921" cx="10.693" cy="11.598" rx="10.693" ry="11.598" transform="translate(1400.498 1265.485)" fill="#686266" stroke="#686266" stroke-width="8.26"/>
      <path id="Caminho_13373" data-name="Caminho 13373" d="M35915.6,7692.426c-2.1.3-19.043,4.188-19.98,4.762l-.234,11.314.1,3.725c-.824,0-2.75-.271-3.129.242l-.1.313,3.328,0-.094,11.353-3.234-.268.223.579,3.063.182-.191,3.556.105,11.5-2.246-.362a11.383,11.383,0,0,1,.309,1.121l1.863.088.027,3.408-.1.7c2.652,1.469,3.559,3.371,9.313,1.964,3.973-.975,10.727-4.217,14.438-6.066.926-.466,1.7-.868,2.723-1.373,1.059-.522,1.773-.714,2.855-1.256s1.742-.742,2.832-1.255c6.836-3.248,16.422-7.253,22.488-10.308.941-.47,1.91-.792,2.844-1.259l11.164-5.239c1.648-.66,4.039-2.012,6.164-2.026,6.2-.039,1.227-.471,6.23,1.373,3.9,1.441,11.453-1.259,12.875-2.307-.711-.719-7.289-3.144-8.734-3.734-3.242-1.315-5.809-1.947-8.125-4.04-.82-5.139,7.789-19.241,7.02-22.5-4.32-1.716-4.422,2.349-8.691,9.081-.418.65-.844,1.374-1.191,1.963a18.274,18.274,0,0,1-1.191,2.267,14.794,14.794,0,0,0-1.395,1.754,16.934,16.934,0,0,0-.969,2.186c-1.523,3.063-3.988,3.4-7.918,4.705l-24.52,7.646c-1.664.55-2.937,1.092-4.637,1.66-2.98.989-12.262,4.157-14.863,4.374C35914.027,7711.591,35915.6,7702.882,35915.6,7692.426Z" transform="translate(-34511.887 -6402.143)" fill="#f1a295"/>
      <path id="Caminho_13374" data-name="Caminho 13374" d="M30951.555,7749.312c4.406,1.079,12.758,2.981,16.93,3.815s4.152.6,4.152-.545c-.016-1.15,0-3.222-.074-4.605a4.3,4.3,0,0,0-.6-2.568c-.379-.491-1-.764-3.965-.748s-8.262.312-12.148.782a62.344,62.344,0,0,0-7.594,1.383c-1.242.288-1.254.234-1.242.384s.059.506-.074.623-.4-.01-.332.063C30946.691,7747.968,30947.148,7748.228,30951.555,7749.312Z" transform="translate(-29677.914 -6459.27)" fill="#f2f1ee" stroke="#f2f1ee" stroke-width="8.26"/>
      <g id="_2497789816080" transform="translate(1303.961 1234.255)">
        <path id="Caminho_13375" data-name="Caminho 13375" d="M34611.977,5525.572c-1.379-10.618,15.109-13.241,16.492-2.056C34629.871,5534.814,34613.418,5536.429,34611.977,5525.572Zm-41.91-21.907a9.678,9.678,0,0,1-.836,3.068l-.391,1.471c-.418,2.8-2.355,8.888-2.875,11.026h-.094l-.109.353h.02l-.863,3.343h-.039l-.191.687-3.109,11.585-.973,3.753-.473,2.461c2.418-.92,4.832-2.965,7.9-3.218,1.215,3.148-.883,3.635-1.5,6.251,4.84-1.36,10.508-5.979,16.656-5.291,5.977,4.185-3.941,13.167-6.074,14.7-7.344,5.276-11.992,4.921-17.074,7.3l27.184.051,18.355.006,9.145-.011c.41,0,1.281-.058,1.605-.03,1.93.147.723-.078,1.254.48,2.762-1.22,28.211-.213,33.75-.451,3.293-3.949,4.824-.626,7.457-8.283,1.41-4.1,2.289-8.6,3.637-12.527-.1-.416-.2-.316.23-.316l10.547-38.042c1.3-3.915,3.969-12.165,2.18-16.3a7.014,7.014,0,0,0-.855-1.353l-2.863-2.187c-3.887-1.92-10.555-1.378-15.3-1.4-2.105-.01-2.727.328-4.73.321-3.3-.012-5.879-.319-9.453-.319h-48.941c-1.6.641-12.762.381-15.008,1.067-1.039.318-2.551,2.158-3.34,4.291a3.107,3.107,0,0,1-.184.673c-.047.139-.094.282-.148.474a.844.844,0,0,0-.055.21h-.027c-.242.841-.715,2.543-2.031,7.348C34571.809,5497.223,34570.965,5500.347,34570.066,5503.666Z" transform="translate(-34513.711 -5480.736)" fill="#686266"/>
        <path id="Caminho_13376" data-name="Caminho 13376" d="M32509.936,8695.868l-.309.288a4.335,4.335,0,0,0,.492,4.551c.957,1.537,2.246,1.306,4.648,1.507,2.988-.391,8.832-2.9,12.176-3.872,2.246-.65,11.1-2.922,12.094-3.947l-26.895-.134C32511.158,8695.371,32512.076,8695.019,32509.936,8695.868Z" transform="translate(-32509.201 -8621.676)" fill="#2c2b2b"/>
      </g>
      <path id="Caminho_13377" data-name="Caminho 13377" d="M34597.422,2087.8c-1.02-3.427-.1-4.335,3.445-4.032a4.234,4.234,0,0,1,.773,3.216C34600.563,2088.619,34599.574,2088.5,34597.422,2087.8Zm-.469-7.407c-2.492.792-4.414,4.258-4.625,7.479.457,11.3,11.73,12.442,16,8.591,6.1-5.474,3.223-7.78,3.52-12.246-.551-.331-.258-.2-1.02-.355a22.375,22.375,0,0,0-.355,2.362c-.035.242-.086.9-.137,1.085-.289,1.417-.121.551-.426,1-.5-.563,0,.537-.527-.791a7.609,7.609,0,0,1-.262-1.008l-1.582-6.2-.477-.857-1.09,0,.6,1.36C34603.469,2080.9,34600.539,2080.073,34596.953,2080.388Z" transform="translate(-33241.324 -922.022)" fill="#f1b2a9"/>
      <path id="Caminho_13378" data-name="Caminho 13378" d="M34025.813,3165.97l-17.68.013c1.109,3.675,4.3,5.071,8.7,5.179C34021.352,3171.275,34025.352,3170.25,34025.813,3165.97Z" transform="translate(-32670.305 -1984.001)" fill="#f2f1ee"/>
      <path id="Caminho_13379" data-name="Caminho 13379" d="M35099.164,5093.716l-4.934-.036c-.758,1.134-2.121,2.471-2.7,3.872l21.766.085c-.7-1.221-2.254-1.779-4.109-2.625-1.605-.738-4.5-1.318-4.969-1.574-.551.289.539.06-.7.269Z" transform="translate(-33729.254 -3867.934)" fill="#191919"/>
      <path id="Caminho_13380" data-name="Caminho 13380" d="M35318.578,2168.557c.77.552.379-.061.758,1.1,1.328,1.934,1.32,5.789.492,8.1-1.02,2.9-2.836,3.488-3.914,5.514l.539.9-.242,1.016c4.1-1.366,8.348-11,6.984-15.2a4.358,4.358,0,0,0-4.469-2.941c-.426.66-.207.563-.148,1.5Z" transform="translate(-33948.566 -1007.622)" fill="#e68d84"/>
      <path id="Caminho_13381" data-name="Caminho 13381" d="M34576.586,1924.474l.367.642c.2-3.222,2.133-6.688,4.641-7.48,2.086-3.083,7.961-1.414,8.531-2.187a7.978,7.978,0,0,0-4.945-2.378,32.744,32.744,0,0,0-7.266.137c0,4.732-.383,3.918,1.109,4.99-.891,2.086-2.6,2.718-2.437,6.278Z" transform="translate(-33225.926 -759.271)" fill="#191919"/>
      <path id="Caminho_13382" data-name="Caminho 13382" d="M35236,4945.914l4.363-.008c1.277-.215.168.017.707-.271a13.406,13.406,0,0,0-1.645-1.265c-.437-.246-1.395-.561-2.02-.811-1.574-.627-2.641-1.507-4.605-1.313-.434.4-.309-.1-.785,1.653-.156.588-.32,1.1-.465,1.725l4.449.288Z" transform="translate(-33866.105 -3720.129)" fill="#f2f1ee"/>
      <path id="Caminho_13383" data-name="Caminho 13383" d="M34328.242,2504.954c-.3-1.257-.738-1.564-1.051-2.815-.137-.518-.164-1.2-.3-1.634-.48-1.758-.047-.483-.641-1.015l.2,10.669c-2.605,1.1-2.527.007-5.117.344.734,2.1,4.2,1.859,5.266,1.061,1.5-1.116,1.027-4.366,1.027-6.608Z" transform="translate(-32976.449 -1332.572)" fill="#d7726d"/>
      <path id="Caminho_13384" data-name="Caminho 13384" d="M33817.832,2260.971c4.977.621,4.133-3.5,2.2-4.348C33816.961,2255.275,33815.57,2258.461,33817.832,2260.971Z" transform="translate(-32483.203 -1094.879)" fill="#454444"/>
      <path id="Caminho_13385" data-name="Caminho 13385" d="M34801.152,2272.08c2.137.7,3.141.825,4.211-.814a4.28,4.28,0,0,0-.754-3.215C34801.059,2267.747,34800.109,2268.654,34801.152,2272.08Z" transform="translate(-33445.027 -1106.309)" fill="#454444"/>
      <path id="Caminho_13386" data-name="Caminho 13386" d="M34797.793,2026.248c3.586-.315,6.52.512,9.621.426l-.613-1.361,1.094,0-.285-1.109-1.289-.142c-.551.773-6.441-.894-8.527,2.187Z" transform="translate(-33442.129 -867.882)" fill="#454444"/>
      <path id="Caminho_13387" data-name="Caminho 13387" d="M35271.094,2121.275l.246-.152c-.4-1.164.012-.551-.762-1.1l-.082-.189a8.209,8.209,0,0,1-1.855-1.27c-.562-.539-.766-1.074-1.848-1.192l1.566,6.2c.066.232.191.829.266,1.008.543,1.326.023.227.516.79.324-.448.164.417.453-1,.023-.182.074-.843.113-1.085a23.491,23.491,0,0,1,.352-2.363c.766.16.477.026,1.035.355Z" transform="translate(-33900.551 -959.085)" fill="#454444"/>
      <path id="Caminho_13388" data-name="Caminho 13388" d="M39610.773,7246.457l.969.19c.469-1.123.184-1.1.445-2.031l.8-1.674c-1-2.464-.355-2.148.113-4.415-2.113-1.9-1.941-4.391,1.211-4.719a72.763,72.763,0,0,1,8.469.1c.379-1.264.211-.281.535-.742,1.156-2.061,4.949-12.3,4.754-14.824-1.512-1.908-4.883-2.876-7.477-3.8-9-3.209-8.281-5.265-11.3,1.687l-5.77,15.352c-.781,2.271-3.973,8.445-2.73,10.641C39601.422,7243.4,39608.754,7246.243,39610.773,7246.457Z" transform="translate(-38136.379 -5938.232)" fill="#04162d" stroke="#04162d" stroke-width="1"/>
      <path id="Caminho_13389" data-name="Caminho 13389" d="M39447.43,7021.545c.77,3.263-7.844,17.364-7.035,22.5,2.336,2.091,4.895,2.727,8.137,4.04,1.438.593,8.016,3.02,8.727,3.733,2.449.466,2.094,1.224,4.6,0-1.223-.837-3.324-1.242-4.949-1.7-2.562-.716-2.3-1.59-2.086-4.271l-.6-.294c-2.008-.215-9.32-3.062-9.984-4.233-1.23-2.193,1.945-8.372,2.746-10.639l5.766-15.356c3.02-6.945,2.289-4.893,11.293-1.681,2.59.921,5.965,1.888,7.484,3.795.2,2.528-3.605,12.76-4.75,14.824.5,1.11-.121.521,1.02.807,0,0,1.523,0,1.6,0,.293-1.607,1.867-5.3,2.477-7.157,2.234-6.759,5.926-10.917,1.105-13.313-2.348-1.154-4.488-1.823-6.957-2.827-15.059-6.132-11.414-5.666-16.937,8.486C39448.734,7019.153,39448.3,7021.116,39447.43,7021.545Z" transform="translate(-37979.832 -5737.33)" fill="#04162d"/>
      <path id="Caminho_13390" data-name="Caminho 13390" d="M40055.3,8180.76l.586.291c-.234,2.685-.473,3.559,2.086,4.272,1.641.455,3.719.859,4.953,1.7,4.09,0,3.18-.494,4.184-3.037.445-1.132,1.141-.944,1.836-1.638.723-.746.555-1.829.555-3.21,2.828-.652,2.922-2.08,2.219-5.047a2.774,2.774,0,0,0,2.113-3.347,4.015,4.015,0,0,0-3.375-2.466c-.066,0-1.605,0-1.605,0-1.121-.285-.52.308-1.012-.8-.332.458-.156-.521-.535.744a71.538,71.538,0,0,0-8.48-.1c-3.145.33-3.309,2.824-1.223,4.721-.418,2.267-1.086,1.951-.094,4.413l-.8,1.677c-.25.931.027.908-.453,2.028Z" transform="translate(-38580.902 -6872.529)" fill="#f1b2a9"/>
      <path id="Caminho_13391" data-name="Caminho 13391" d="M33180.8,1420.788c1.309,1.814,5.238.712,5.445.443,1.094-3.307.469-3.852,3.02-6.167l-.426-.772,2.082-2.745c.629-.714,1.4-1.6,2.723-1.356.617-1.224,2.039-.775,4.746-.829a33.419,33.419,0,0,1,5.223.033,28.994,28.994,0,0,0,.18,3.6c.441,1.834,3.535,2.008,4.039,8l4.492-.152c-.164-3.561,1.527-4.192,2.43-6.277-1.5-1.071-1.113-.257-1.129-4.99a32.807,32.807,0,0,1,7.277-.137,7.91,7.91,0,0,1,4.934,2.378l1.3.141-1.488-7.26c-3.855-1.016-8.363,2.4-22.1-.919-7.551-1.825-16.316-5.6-18.621-6.11-.773,3.96-.945,8.178-1.707,12.172C33182.563,1413.333,33181.148,1417.385,33180.8,1420.788Z" transform="translate(-31861.664 -255.642)" fill="#f1a295"/>
      <path id="Caminho_13392" data-name="Caminho 13392" d="M33466.766,2129.546c-2.273-2.51-.879-5.7,2.191-4.348C33470.887,2126.043,33471.746,2130.167,33466.766,2129.546Zm-5.422-7.482c-.437.536-.469.843-1.437.763-1.113,3.956-4.113,6.907-1.023,11.8,5.9,9.349,16.652,4.729,18.5-2.169a10.547,10.547,0,0,0-3.727-10.622l-.781.02Z" transform="translate(-32132.141 -963.453)" fill="#f1b2a9"/>
      <path id="Caminho_13393" data-name="Caminho 13393" d="M33421.586,3674.67c1.57,6.113,9.7,16.391,14.211,18.324,8.59,3.68,18.613-4.96,18.566-12.794a9.307,9.307,0,0,0-1.992,1.279c-.723.484-1.2.713-2.012,1.164a21.9,21.9,0,0,1-4.16,1.833,18.725,18.725,0,0,1-10.562.533,22.818,22.818,0,0,1-11.414-7.243A28.529,28.529,0,0,1,33421.586,3674.67Z" transform="translate(-32097.008 -2481.209)" fill="#191919"/>
      <path id="Caminho_13394" data-name="Caminho 13394" d="M33537.313,1950.988l.164-.049c.969.08,1.008-.226,1.43-.762l.508-.335c.07-.032.18-.1.254-.138l1.8-1.034c2.422-1.156,6.941-1.383,9,1.3l.746-.02-.246-3.972-9.25.135a2.812,2.812,0,0,0-2.723,1.356l-2.1,2.744Z" transform="translate(-32209.719 -791.565)" fill="#191919"/>
      <path id="Caminho_13395" data-name="Caminho 13395" d="M33626.094,2031.18l11.563-.2c-2.07-2.685-6.578-2.458-9-1.3l-1.812,1.033c-.07.04-.172.106-.227.139Z" transform="translate(-32296.898 -872.57)" fill="#454444"/>
      <g id="Grupo_4490" data-name="Grupo 4490" transform="translate(1386.455 1266.201)">
        <path id="Caminho_13396" data-name="Caminho 13396" d="M3.453,10.727q-.121-.008-.241-.025t-.238-.041q-.118-.025-.235-.057t-.232-.073q-.115-.041-.226-.09t-.218-.108q-.107-.058-.21-.125t-.2-.143a3.33,3.33,0,0,1-.32-.282,3.1,3.1,0,0,1-.274-.314A3.046,3.046,0,0,1,.83,9.122a3.189,3.189,0,0,1-.39-1.2,3.38,3.38,0,0,1-.022-.431A3.752,3.752,0,0,1,.45,7.049L2.8,7.214a1.591,1.591,0,0,0-.014.195,1.118,1.118,0,0,0,.011.173.815.815,0,0,0,.037.152.647.647,0,0,0,.063.13q.038.06.074.11t.071.092a.968.968,0,0,0,.068.073.608.608,0,0,0,.065.055,1.042,1.042,0,0,0,.118.082.985.985,0,0,0,.259.108,1.053,1.053,0,0,0,.141.026,1.222,1.222,0,0,0,.145.008,1.236,1.236,0,0,0,.145-.009,1.3,1.3,0,0,0,.146-.026,1.429,1.429,0,0,0,.146-.043q.051-.017.1-.037t.089-.043a.931.931,0,0,0,.08-.049.818.818,0,0,0,.071-.055q.034-.029.064-.057t.057-.057q.027-.028.05-.057t.043-.056q.019-.028.036-.056t.03-.055q.013-.028.023-.055t.017-.054l.013-.052.011-.047q0-.022.008-.042t.006-.037q0-.017,0-.037t0-.042q0-.022,0-.047t0-.053a.559.559,0,0,0,0-.056q0-.029-.008-.058T4.95,7.177q-.009-.031-.02-.063T4.9,7.05q-.015-.032-.034-.063t-.041-.063q-.022-.031-.048-.063A.807.807,0,0,0,4.726,6.8q-.031-.03-.066-.06t-.076-.058q-.04-.028-.086-.056l-.073-.039-.076-.037L4.27,6.515l-.082-.034L4.1,6.446,4.017,6.41l-.089-.038-.091-.04-.168-.069L3.5,6.19l-.174-.076-.177-.08q-.089-.041-.178-.088t-.176-.1q-.088-.053-.174-.112t-.173-.124q-.112-.084-.212-.177a2.687,2.687,0,0,1-.191-.195,2.646,2.646,0,0,1-.169-.212,2.691,2.691,0,0,1-.148-.23q-.068-.119-.125-.242t-.1-.249q-.044-.126-.076-.256t-.051-.263q-.019-.133-.026-.268t0-.27q.006-.136.024-.273T1.42,2.7q.03-.138.074-.273t.1-.265q.057-.13.126-.257t.153-.249q.078-.112.163-.217t.176-.2q.092-.1.19-.184T2.6.89Q2.71.811,2.819.741t.222-.13Q3.155.55,3.272.5T3.511.406q.121-.042.246-.073T4.008.281Q4.135.26,4.266.249T4.53.237q.133,0,.266.009t.265.032q.132.022.264.055T5.587.41q.128.04.248.089t.233.107q.113.058.218.124t.2.141q.1.075.189.156t.171.169q.081.087.154.181t.137.194q.066.1.121.2t.1.215q.046.11.081.225t.061.235q.026.12.041.241t.02.245q0,.123,0,.249t-.023.252L5.208,3.27a.791.791,0,0,0,.007-.147A.505.505,0,0,0,5.193,3a.371.371,0,0,0-.05-.1.353.353,0,0,0-.078-.08q-.046-.035-.09-.064T4.889,2.7q-.042-.024-.081-.042t-.076-.031l-.018,0-.028-.006L4.65,2.608,4.6,2.6l-.053-.012-.057-.007-.061,0-.065,0q-.034,0-.068.009t-.07.016q-.035.01-.072.023t-.074.03a.519.519,0,0,0-.072.039.549.549,0,0,0-.066.05.624.624,0,0,0-.061.062.75.75,0,0,0-.055.074.71.71,0,0,0-.059.108.624.624,0,0,0-.037.112.609.609,0,0,0-.014.116.665.665,0,0,0,.008.121.676.676,0,0,0,.028.117A.6.6,0,0,0,3.8,3.56a.593.593,0,0,0,.067.093.653.653,0,0,0,.086.082l.093.061.1.059.1.056.109.054.114.053.117.052.121.051.125.051.114.044.114.045.115.047.116.049.116.051.116.055.116.058.117.062a3.375,3.375,0,0,1,.4.26,3.022,3.022,0,0,1,.344.3,2.888,2.888,0,0,1,.289.349,2.963,2.963,0,0,1,.233.394,3.05,3.05,0,0,1,.172.424,2.968,2.968,0,0,1,.1.442,3.1,3.1,0,0,1,.037.46,3.506,3.506,0,0,1-.126.944,3.3,3.3,0,0,1-.157.441,3.345,3.345,0,0,1-.219.416,3.6,3.6,0,0,1-.28.391,3.539,3.539,0,0,1-.332.353,3.476,3.476,0,0,1-.375.3,3.609,3.609,0,0,1-.417.251,3.944,3.944,0,0,1-.459.2q-.095.035-.19.064t-.191.053q-.1.024-.191.042t-.192.03q-.1.012-.191.02t-.19.011q-.095,0-.189,0t-.188-.008Z" transform="translate(38.359 2.444)"/>
        <path id="Caminho_13397" data-name="Caminho 13397" d="M3.657.184q.106.013.209.031t.206.039q.1.021.2.047t.2.055A1.088,1.088,0,0,0,4.52.734a.971.971,0,0,0,.167.316.867.867,0,0,0,.264.222.834.834,0,0,0,.339.1l.037,0a2.7,2.7,0,0,0-.023.433,1.315,1.315,0,0,0,.051.338.531.531,0,0,0,.125.224.306.306,0,0,0,.2.09.422.422,0,0,0,.123-.01A.652.652,0,0,0,5.935,2.4a1.04,1.04,0,0,0,.14-.081,1.594,1.594,0,0,0,.146-.112,1.8,1.8,0,0,0,.115.282,1.092,1.092,0,0,0,.145.216.651.651,0,0,0,.172.142.469.469,0,0,0,.2.059A.479.479,0,0,0,6.977,2.9a.582.582,0,0,0,.129-.043.788.788,0,0,0,.127-.075,1.106,1.106,0,0,0,.125-.1q.065.12.124.245t.111.253q.052.129.1.262t.085.271a4.6,4.6,0,0,1,.108.474,4.7,4.7,0,0,1,.058.486,4.95,4.95,0,0,1,.008.5q-.008.252-.042.51t-.088.5q-.055.244-.133.479t-.178.459q-.1.225-.223.44t-.261.415q-.139.2-.294.386T6.4,8.709q-.171.171-.358.328t-.386.3q-.2.139-.411.26t-.435.225q-.224.1-.46.189t-.479.149q-.243.063-.492.1t-.506.059q-.256.018-.52.014L0,10.168,1.294,0,3.659.17Zm.017,4.035a.465.465,0,0,1,.193.087.85.85,0,0,1,.182.181.873.873,0,0,1,.128.242A.637.637,0,0,1,4.21,5a2.008,2.008,0,0,1-.272-.054c-.12-.03-.261-.068-.4-.106s-.28-.076-.4-.105a1.918,1.918,0,0,0-.254-.053A.329.329,0,0,1,3.039,4.5a.563.563,0,0,1,.216-.063,1.165,1.165,0,0,1,.2,0c.056,0,.1.009.107.007a.278.278,0,0,0,.049-.012.064.064,0,0,0,.019-.01.068.068,0,0,1,.018-.011A.259.259,0,0,1,3.7,4.4c0-.027.006-.047.006-.064a.189.189,0,0,0,0-.04.172.172,0,0,0-.01-.034l-.017-.043Zm.7-.579.039,0,.15.033a.8.8,0,0,1-.049.195.887.887,0,0,1-.075.145c-.028.044-.057.087-.085.133a.922.922,0,0,0-.077.158c.036.069.07.127.1.181a1.042,1.042,0,0,1,.073.159.69.69,0,0,1,.036.183,1.329,1.329,0,0,1-.012.254.3.3,0,0,1,.075.016.151.151,0,0,1,.05.029.111.111,0,0,1,.028.04.145.145,0,0,1,.01.049l-.012.091c-.006.022-.013.044-.021.067s-.017.046-.027.069l-.029.069c-.009.023-.018.045-.027.066l-.228.006A.559.559,0,0,1,4.26,5.7c-.017.043-.038.091-.061.14s-.046.1-.068.143-.041.086-.055.117c-.035.081-.088.2-.15.339s-.133.294-.2.446-.14.3-.2.42a2.617,2.617,0,0,1-.143.262l-.772-.186-.093-.025-.093-.024L2.33,7.3l-.093-.022-.092-.024L2.05,7.23l-.1-.025c-.031-.007-.062-.014-.092-.018l.018-.139L1.9,6.909l.018-.139.017-.139c.006-.049.013-.093.021-.136s.016-.083.024-.124.016-.083.024-.127.015-.092.022-.144c.012-.1.025-.187.039-.276s.027-.175.041-.261.028-.171.041-.259.026-.177.038-.27a.3.3,0,0,1-.075-.016.151.151,0,0,1-.05-.029.111.111,0,0,1-.029-.04.144.144,0,0,1-.01-.049l.012-.091c.006-.022.013-.044.021-.067s.017-.046.027-.069L2.107,4.6c.009-.023.019-.045.027-.067l.059-.008.046,0h.051l.073,0a.443.443,0,0,1,.067-.151.843.843,0,0,1,.116-.136,1.324,1.324,0,0,1,.136-.114,1.451,1.451,0,0,1,.128-.084,1.194,1.194,0,0,1,.329-.132,1.041,1.041,0,0,1,.322-.023,1.179,1.179,0,0,1,.313.071,1.587,1.587,0,0,1,.3.151c.007-.018.024-.054.047-.1s.053-.1.084-.15.063-.1.093-.144a.279.279,0,0,1,.075-.079Z" transform="translate(27.275 1.803)"/>
        <path id="Caminho_13398" data-name="Caminho 13398" d="M7.205,2.8l-3.88-.277L3.141,4.065l3.072.218L5.932,6.626,2.862,6.41l-.47,3.946L0,10.191,1.207,0,7.488.452Z" transform="translate(0.72 0.014)"/>
        <g id="Grupo_4488" data-name="Grupo 4488" transform="translate(45.954 1.488)">
          <g id="_1931372768816">
            <path id="Caminho_13399" data-name="Caminho 13399" d="M.908.66l0-.008A.351.351,0,0,0,.742.636,1.259,1.259,0,0,0,.5.682,1.294,1.294,0,0,0,.272.773.435.435,0,0,0,.121.889C.032.892,0,.834.018.748A.723.723,0,0,1,.2.437,1.2,1.2,0,0,1,.6.15.97.97,0,0,1,1.156.08a.289.289,0,0,1,.1.064.285.285,0,0,1,.065.1.3.3,0,0,1,.022.115.314.314,0,0,1-.026.121.333.333,0,0,1-.071.1.34.34,0,0,1-.1.07.329.329,0,0,1-.118.029A.306.306,0,0,1,.908.66Z"/>
          </g>
          <path id="Caminho_13400" data-name="Caminho 13400" d="M.94.073A.523.523,0,0,0,.647.08,1.377,1.377,0,0,0,.311.218a.919.919,0,0,0-.249.2C.008.481-.01.544.029.592" transform="translate(0.091 0.296)" fill="none"/>
          <g id="_1931372771312" transform="translate(0.818 0.943)">
            <path id="Caminho_13401" data-name="Caminho 13401" d="M.954.754C.816.652.722.586.651.541A1.019,1.019,0,0,0,.486.452C.44.433.4.419.331.395S.183.336.058.275A.817.817,0,0,1,.347.081.7.7,0,0,1,.642.039,1.4,1.4,0,0,1,.949.1c.106.031.215.07.329.109A.284.284,0,0,1,1.42.39a.3.3,0,0,1,.006.118.32.32,0,0,1-.042.117.337.337,0,0,1-.193.151.322.322,0,0,1-.12.013A.3.3,0,0,1,.954.754Z"/>
          </g>
          <path id="Caminho_13402" data-name="Caminho 13402" d="M1.075.277C.981.226.9.181.814.143A1.37,1.37,0,0,0,.574.054.937.937,0,0,0,.319.025a1.316,1.316,0,0,0-.3.045" transform="translate(0.859 1.148)" fill="none"/>
          <g id="_1931372774352" transform="translate(0.283 1.786)">
            <path id="Caminho_13403" data-name="Caminho 13403" d="M.8.742C.672.637.594.572.54.526S.454.454.425.425.368.362.32.3.2.164.091.035c.185,0,.3,0,.384,0A.994.994,0,0,1,.648.042a.879.879,0,0,1,.16.049c.073.027.178.067.346.126A.284.284,0,0,1,1.24.3a.288.288,0,0,1,.043.108.3.3,0,0,1,0,.118.324.324,0,0,1-.049.115.338.338,0,0,1-.2.139A.32.32,0,0,1,.91.784.3.3,0,0,1,.8.742Z"/>
          </g>
          <path id="Caminho_13404" data-name="Caminho 13404" d="M.934.445C.866.4.8.36.723.32S.577.241.5.2.353.131.277.1.126.03.05,0" transform="translate(0.324 1.82)" fill="none"/>
        </g>
        <g id="Grupo_4489" data-name="Grupo 4489" transform="translate(22.745 13.368)">
          <path id="machine" d="M2.579,1.123H2.572l-.007,0-.006,0,0,.006L1.21,3.453v.011a.025.025,0,0,0,0,.01.024.024,0,0,0,0,.009l.008.006.01,0h.008l.008,0,.007,0,0-.006L2.569,1.214l.44,1.463-.5.864v.01a.025.025,0,0,0,0,.01.024.024,0,0,0,0,.009l.008.006.01,0h.007l.007,0,.006,0,0-.006.477-.821.262.871a.021.021,0,0,0,0,.007l.005.006.007,0,.007,0h.01l.009,0,.007-.008a.026.026,0,0,0,0-.01.02.02,0,0,0,0,0V3.6l-.276-.917.8-1.378.72,2.4,0,.006.005.005.006,0,.007,0h.01l.009,0,.007-.008a.026.026,0,0,0,0-.01v0s0,0,0,0V3.685L3.9,1.229l0-.006-.005-.005-.006,0-.007,0H3.869l-.007,0-.006,0,0,.006L3.045,2.614,2.6,1.14l0-.006-.005-.005-.006,0-.007,0h0Zm4.247.291H6.819l-.007,0-.006,0,0,.006L5.456,3.741v.011a.025.025,0,0,0,0,.01.024.024,0,0,0,0,.008l.008.006.01,0h.008l.007,0,.007,0,0-.006L6.815,1.5l.717,2.4a.021.021,0,0,0,0,.007l.005.006.007,0,.007,0h.01l.009,0,.007-.008a.026.026,0,0,0,0-.01.021.021,0,0,0,0,0V3.885L6.849,1.431l0-.006L6.84,1.42l-.006,0-.007,0h0Zm3.116.214a1.354,1.354,0,0,0-.5.059,1.3,1.3,0,0,0-.425.229,1.28,1.28,0,0,0-.31.368,1.315,1.315,0,0,0-.156.476,1.23,1.23,0,0,0,.032.489,1.084,1.084,0,0,0,.21.4,1.1,1.1,0,0,0,.359.282,1.267,1.267,0,0,0,.479.126,1.388,1.388,0,0,0,.259-.006A1.332,1.332,0,0,0,10.13,4a1.3,1.3,0,0,0,.225-.095,1.283,1.283,0,0,0,.2-.134l0,0,0,0,0,0v0a.025.025,0,0,0,0-.01.024.024,0,0,0,0-.008l-.008-.006-.01,0h-.01l-.005,0,0,0a1.228,1.228,0,0,1-.192.128,1.243,1.243,0,0,1-.215.091A1.275,1.275,0,0,1,9.883,4a1.336,1.336,0,0,1-.249.006,1.225,1.225,0,0,1-.46-.12A1.045,1.045,0,0,1,8.83,3.62a1.032,1.032,0,0,1-.2-.386,1.188,1.188,0,0,1-.03-.47,1.27,1.27,0,0,1,.149-.458,1.217,1.217,0,0,1,.3-.353,1.232,1.232,0,0,1,.407-.219,1.308,1.308,0,0,1,.483-.056,1.292,1.292,0,0,1,.243.04,1.156,1.156,0,0,1,.217.081,1.071,1.071,0,0,1,.188.118,1.029,1.029,0,0,1,.156.152l0,0,0,0,0,0h.015l.009,0,.007-.008a.026.026,0,0,0,0-.01.021.021,0,0,0,0,0V2.045l0,0,0,0a1.075,1.075,0,0,0-.163-.159,1.122,1.122,0,0,0-.2-.124,1.208,1.208,0,0,0-.226-.085A1.342,1.342,0,0,0,9.942,1.628Zm1.96.134h-.01l-.009,0-.007.008a.026.026,0,0,0,0,.01h0l-.309,2.38a.025.025,0,0,0,0,.01.024.024,0,0,0,0,.008l.008.006.01,0h.01l.009,0,.007-.008a.026.026,0,0,0,0-.01l.151-1.164,1.675.114L13.29,4.283h0a.025.025,0,0,0,0,.01.024.024,0,0,0,0,.008l.008.006.01,0h.01l.009,0,.007-.008a.026.026,0,0,0,0-.01h0l.31-2.379h0a.025.025,0,0,0,0-.01.024.024,0,0,0,0-.008l-.008-.006-.01,0h-.011l-.009,0-.007.008a.026.026,0,0,0,0,.01h0l-.152,1.164-1.675-.114.151-1.165h0a.025.025,0,0,0,0-.01.024.024,0,0,0,0-.008l-.008-.006-.01,0h0Zm2.832.22-.311,2.378h0a.024.024,0,0,0,0,.01.024.024,0,0,0,0,.008l.007.006.01,0h.011l.009,0,.007-.008a.026.026,0,0,0,0-.01h0l.311-2.378h0a.025.025,0,0,0,0-.01.024.024,0,0,0,0-.008l-.008-.006-.01,0h-.011l-.009,0-.007.008a.026.026,0,0,0,0,.01Zm2.886.172h-.01l-.009,0-.007.008a.026.026,0,0,0,0,.01h0l-.3,2.3L15.915,2.048l0,0,0,0-.006,0h-.016l-.009,0-.007.008a.026.026,0,0,0,0,.01h0l-.312,2.377h0a.025.025,0,0,0,0,.01.024.024,0,0,0,0,.008l.008.006.01,0h.01l.009,0L15.6,4.45a.026.026,0,0,0,0-.01h0l.3-2.3L17.28,4.569l0,0,0,0,.006,0h.016l.009,0,.007-.008a.026.026,0,0,0,0-.01l.313-2.376h0a.025.025,0,0,0,0-.01.024.024,0,0,0,0-.008l-.007-.006-.01,0h0Zm1.131.078h-.01l-.009,0-.007.008a.026.026,0,0,0,0,.01.025.025,0,0,0,0,.01.024.024,0,0,0,0,.008l.007.006.01,0,1.721.118h.01l.009,0,.007-.008a.026.026,0,0,0,0-.01.025.025,0,0,0,0-.01.024.024,0,0,0,0-.008l-.007-.006-.01,0Zm-.157,1.188h-.01l-.009,0-.007.008a.026.026,0,0,0,0,.01.025.025,0,0,0,0,.01.024.024,0,0,0,0,.008l.007.006.01,0,1.549.106h.01l.009,0,.007-.008a.026.026,0,0,0,0-.01.025.025,0,0,0,0-.01.024.024,0,0,0,0-.008l-.007-.006-.01,0Zm-.157,1.187h-.01l-.009,0-.007.008a.026.026,0,0,0,0,.01.024.024,0,0,0,0,.01.024.024,0,0,0,0,.008l.007.006.01,0h0l1.72.117h.01l.009,0,.007-.008a.026.026,0,0,0,0-.01.025.025,0,0,0,0-.01.024.024,0,0,0,0-.008l-.007-.006-.01,0h0Z" transform="translate(0 0)" stroke="#000" stroke-linecap="round" stroke-linejoin="round" stroke-width="0.5"/>
        </g>
        <g id="_1931378527424" transform="translate(17.46 1.002)">
          <path id="Caminho_13405" data-name="Caminho 13405" d="M1.026,4.589a.588.588,0,0,1,.357.149,2.154,2.154,0,0,1,.3.328A4.773,4.773,0,0,0,2,5.441a1.3,1.3,0,0,0,.4.292,1.346,1.346,0,0,0,.767.1,1.574,1.574,0,0,0,.366-.107,1.92,1.92,0,0,0,.341-.19l.084-.06.112-.08c.039-.027.077-.053.111-.074a.443.443,0,0,1,.082-.043c-.009.067-.019.125-.027.178s-.015.1-.02.15a1.36,1.36,0,0,0-.008.149,1.606,1.606,0,0,0,.1.548,1.634,1.634,0,0,0,.774.871,1.717,1.717,0,0,0,.635.189,1.783,1.783,0,0,0,.605-.048,1.98,1.98,0,0,0,.528-.22,1.818,1.818,0,0,0,.4-.325l.044-.05.045-.053.044-.056.041-.057A1.511,1.511,0,0,0,7.522,6.4c.017-.032.024-.049.032-.061a.091.091,0,0,1,.04-.03l.117-.056a2.576,2.576,0,0,0,.331-.2c.1-.072.2-.145.309-.208a1.3,1.3,0,0,1,.337-.15,1.168,1.168,0,0,1,.968.19,1.831,1.831,0,0,1,.34.376,2.474,2.474,0,0,0,.329.391,1.093,1.093,0,0,0,.518.26,2.086,2.086,0,0,1-.077.242c-.032.085-.07.174-.109.261s-.082.173-.122.252-.08.153-.115.215a5.1,5.1,0,0,1-.455.677,5.5,5.5,0,0,1-.554.6,5.59,5.59,0,0,1-.629.508,5.285,5.285,0,0,1-.681.4,5.425,5.425,0,0,1-2.348.567,5.022,5.022,0,0,1-2.18-.473A4.755,4.755,0,0,1,1.863,8.817,4.665,4.665,0,0,1,.934,6.759a4.733,4.733,0,0,1-.069-.534,4.361,4.361,0,0,1-.005-.519A5.291,5.291,0,0,1,.914,5.17c.028-.184.065-.376.111-.581Zm5.045-.45a1.483,1.483,0,0,1,.612.131,1.386,1.386,0,0,1,.46.339A1.432,1.432,0,0,1,7.5,5.642a1.519,1.519,0,0,1-.165.608,1.583,1.583,0,0,1-.37.47,1.681,1.681,0,0,1-.5.3,1.584,1.584,0,0,1-.569.105A1.5,1.5,0,0,1,5.279,7a1.387,1.387,0,0,1-.461-.338,1.432,1.432,0,0,1-.362-1.033,1.518,1.518,0,0,1,.165-.61,1.574,1.574,0,0,1,.371-.47,1.682,1.682,0,0,1,.507-.3A1.6,1.6,0,0,1,6.071,4.139ZM5.015,1.718a2.872,2.872,0,0,0,.318.005A1.391,1.391,0,0,0,5.59,1.69a1.105,1.105,0,0,0,.224-.079,1.628,1.628,0,0,0,.221-.13A1.34,1.34,0,0,0,6.249,1.3,1.135,1.135,0,0,0,6.4,1.1,1.512,1.512,0,0,0,6.509.879C6.54.8,6.568.716,6.6.626A3.584,3.584,0,0,1,7.185.7a5.234,5.234,0,0,1,.607.159,5.468,5.468,0,0,1,.566.219,3.762,3.762,0,0,1,.467.249c.145.093.271.178.384.261s.214.164.309.249S9.7,2,9.793,2.1s.185.206.287.329a3.933,3.933,0,0,1,.29.4,4.506,4.506,0,0,1,.255.461,4.862,4.862,0,0,1,.451,1.626,4.344,4.344,0,0,1,.016.555,5.186,5.186,0,0,1-.053.574c-.029.2-.069.4-.119.624a.405.405,0,0,1-.121-.026.836.836,0,0,1-.124-.058,1.207,1.207,0,0,1-.111-.071.971.971,0,0,1-.081-.065c-.029-.027-.056-.054-.081-.081s-.049-.055-.071-.082-.044-.055-.065-.083L10.2,6.123c-.037-.05-.076-.1-.119-.158A1.934,1.934,0,0,0,9.941,5.8a1.344,1.344,0,0,0-.176-.15,1.185,1.185,0,0,0-.221-.124,1.334,1.334,0,0,0-.269-.082,1.481,1.481,0,0,0-.547,0,1.323,1.323,0,0,0-.249.071,1.732,1.732,0,0,0-.248.125c-.079.047-.153.1-.22.145s-.129.092-.182.128a.613.613,0,0,1-.133.074c.014-.113.028-.214.038-.31a1.939,1.939,0,0,0,.012-.274A1.248,1.248,0,0,0,7.7,5.131a1.716,1.716,0,0,0-.12-.313,1.581,1.581,0,0,0-.655-.7A1.752,1.752,0,0,0,6.035,3.9a1.919,1.919,0,0,0-.906.251,1.808,1.808,0,0,0-.69.7.628.628,0,0,1-.054.088.1.1,0,0,1-.044.032c-.018.007-.041.014-.076.03a1.236,1.236,0,0,0-.152.082c-.1.061-.193.128-.288.193a3.025,3.025,0,0,1-.289.181,1.256,1.256,0,0,1-.319.122,1.091,1.091,0,0,1-.379.015,1.288,1.288,0,0,1-.162-.031,1.182,1.182,0,0,1-.148-.049A1.054,1.054,0,0,1,2.4,5.448a.905.905,0,0,1-.113-.077A1.584,1.584,0,0,1,2.028,5.1c-.077-.1-.149-.2-.23-.3a1.412,1.412,0,0,0-.283-.271A1.127,1.127,0,0,0,1.1,4.347l.031-.1a.454.454,0,0,1,.072.012l.086.022.093.023a.783.783,0,0,0,.092.016,1.363,1.363,0,0,0,.515-.048,1.408,1.408,0,0,0,.458-.231,1.364,1.364,0,0,0,.529-.9.369.369,0,0,1,.062.025l.073.037c.028.014.059.028.1.042a1.194,1.194,0,0,0,.136.042q.054.014.108.022t.108.013q.054,0,.108,0t.107,0a1.348,1.348,0,0,0,.356-.079,1.431,1.431,0,0,0,.593-.412,1.328,1.328,0,0,0,.2-.306A1.408,1.408,0,0,0,5,2.308a1.038,1.038,0,0,0,.034-.192,1.412,1.412,0,0,0,0-.189c0-.065-.01-.133-.017-.209ZM4.7,1.552a.244.244,0,0,0,.018.067c.01.028.023.061.036.1a.876.876,0,0,1,.031.146,1,1,0,0,1,0,.2,1.062,1.062,0,0,1-.188.529,1.15,1.15,0,0,1-.407.359,1.129,1.129,0,0,1-.523.133,1.029,1.029,0,0,1-.538-.149A.64.64,0,0,1,3.078,2.9l-.047-.039-.044-.038c-.015-.012-.03-.024-.046-.036a.148.148,0,0,0-.069-.028.113.113,0,0,0-.063.011.12.12,0,0,0-.048.044.162.162,0,0,0-.024.071c0,.026,0,.05,0,.074s0,.046,0,.07,0,.048,0,.074a.722.722,0,0,1-.011.085,1.064,1.064,0,0,1-.193.432,1.167,1.167,0,0,1-.352.312,1.129,1.129,0,0,1-.449.147,1.044,1.044,0,0,1-.484-.065c-.063-.024-.111-.044-.149-.053a.109.109,0,0,0-.088,0,.192.192,0,0,0-.063.091C.922,4.1.9,4.172.87,4.263a5.317,5.317,0,0,0-.181.73,5.464,5.464,0,0,0-.078.742,5.127,5.127,0,0,0,.025.727,4.379,4.379,0,0,0,.127.685,5.9,5.9,0,0,0,.2.6A4.6,4.6,0,0,0,1.2,8.27a4.654,4.654,0,0,0,.3.485c.113.158.238.315.378.474.073.084.155.168.242.251s.18.165.276.243.2.154.3.225.2.138.3.2a5.138,5.138,0,0,0,1.659.634,5.433,5.433,0,0,0,1.747.05A5.749,5.749,0,0,0,9.587,9.32a5.65,5.65,0,0,0,.991-1.232,5.4,5.4,0,0,0,.584-1.4,5.268,5.268,0,0,0,.168-1.479,5.2,5.2,0,0,0-.258-1.473,4.406,4.406,0,0,0-.393-.869c-.078-.133-.163-.262-.254-.389s-.188-.252-.29-.377a3.757,3.757,0,0,0-.322-.341,4.9,4.9,0,0,0-.379-.322c-.134-.1-.273-.2-.415-.288S8.735.982,8.592.911Q8.468.85,8.339.795T8.076.69Q7.942.642,7.8.6T7.521.522Q7.4.493,7.281.47T7.037.428Q6.915.41,6.791.4T6.543.378a.3.3,0,0,0-.081,0,.106.106,0,0,0-.053.027.133.133,0,0,0-.032.054.474.474,0,0,0-.019.085A1.072,1.072,0,0,1,6.272.84a1.059,1.059,0,0,1-.148.234,1.159,1.159,0,0,1-.186.178,1.242,1.242,0,0,1-.2.125,1.052,1.052,0,0,1-.118.05,1.114,1.114,0,0,1-.13.037,1.109,1.109,0,0,1-.139.022,1.062,1.062,0,0,1-.145,0,1,1,0,0,1-.173-.028c-.058-.013-.115-.028-.165-.034a.2.2,0,0,0-.123.012.112.112,0,0,0-.045.111Z"/>
          <path id="Caminho_13406" data-name="Caminho 13406" d="M.36.017A.138.138,0,0,0,.306.046.105.105,0,0,0,.276.09.137.137,0,0,0,.27.146.223.223,0,0,0,.286.209C.313.278.342.347.373.417s.064.139.1.208.07.136.107.2.075.129.115.19l.171.244c.07.1.143.188.219.276s.155.172.239.252.17.159.262.235.187.15.288.223l.077.057c.032.023.07.05.109.073a.658.658,0,0,0,.115.058.16.16,0,0,0,.1.01.106.106,0,0,0,.045-.028.137.137,0,0,0,.03-.047.13.13,0,0,0,.008-.056.107.107,0,0,0-.019-.054L1.819,1.9a3.789,3.789,0,0,1-.393-.36A4.632,4.632,0,0,1,1.06,1.1,4.348,4.348,0,0,1,.75.624,3.209,3.209,0,0,1,.527.137C.522.121.516.1.508.086A.174.174,0,0,0,.478.04.092.092,0,0,0,.432.011.136.136,0,0,0,.36.017Z" transform="translate(1.131 7.281)"/>
          <path id="Caminho_13407" data-name="Caminho 13407" d="M.738.055C.7.065.66.078.619.091L.494.136.368.184.249.23.188.251C.167.258.144.265.124.274A.278.278,0,0,0,.067.3.12.12,0,0,0,.029.348.138.138,0,0,0,.014.42.1.1,0,0,0,.038.477.112.112,0,0,0,.093.511a.165.165,0,0,0,.077,0A.478.478,0,0,0,.22.5L.288.472.358.444.413.423.531.381C.578.366.628.348.676.329A1.1,1.1,0,0,0,.8.272.163.163,0,0,0,.874.214.135.135,0,0,0,.887.143.1.1,0,0,0,.863.086.105.105,0,0,0,.81.054.139.139,0,0,0,.738.055Z" transform="translate(4.621 9.207)"/>
          <path id="Caminho_13408" data-name="Caminho 13408" d="M.725.058C.684.07.645.083.605.1L.487.14.369.186.249.231.186.251C.164.258.141.265.12.274A.245.245,0,0,0,.064.3.118.118,0,0,0,.026.351.136.136,0,0,0,.015.425.1.1,0,0,0,.042.481.115.115,0,0,0,.1.513a.148.148,0,0,0,.072,0L.223.5.285.473.348.449.4.428.518.387C.564.371.615.353.664.334A1.337,1.337,0,0,0,.8.276.176.176,0,0,0,.867.222.142.142,0,0,0,.885.147.1.1,0,0,0,.861.087.107.107,0,0,0,.8.054a.154.154,0,0,0-.079,0Z" transform="translate(8.837 7.659)"/>
          <path id="Caminho_13409" data-name="Caminho 13409" d="M.728.058C.688.07.648.084.608.1L.49.141.37.187.25.232.188.252C.166.259.143.267.122.276A.274.274,0,0,0,.064.308.115.115,0,0,0,.027.352.136.136,0,0,0,.014.426.1.1,0,0,0,.042.484.116.116,0,0,0,.1.515a.148.148,0,0,0,.073,0L.226.5.287.474.349.45.4.429l.1-.036C.554.378.606.359.657.34A1.469,1.469,0,0,0,.8.279.188.188,0,0,0,.871.223.14.14,0,0,0,.888.148.1.1,0,0,0,.863.088.108.108,0,0,0,.806.054a.149.149,0,0,0-.078,0Z" transform="translate(2.387 4.503)"/>
          <path id="Caminho_13410" data-name="Caminho 13410" d="M.733.057C.693.068.652.081.612.1L.49.141.368.188.246.232.182.253C.161.26.138.268.118.277A.258.258,0,0,0,.062.309.116.116,0,0,0,.026.353a.135.135,0,0,0-.012.07A.105.105,0,0,0,.038.479.11.11,0,0,0,.092.513a.152.152,0,0,0,.075,0L.65.337.707.319C.728.312.751.3.773.3A.308.308,0,0,0,.833.263.117.117,0,0,0,.872.22.137.137,0,0,0,.886.148.105.105,0,0,0,.808.055a.138.138,0,0,0-.074,0Z" transform="translate(9.351 4.144)"/>
          <path id="Caminho_13411" data-name="Caminho 13411" d="M.648.045a.578.578,0,0,0-.09.026C.52.085.477.1.433.119L.307.171.21.21.155.23A.528.528,0,0,0,.1.252a.194.194,0,0,0-.046.03A.115.115,0,0,0,.023.327.136.136,0,0,0,.014.393.1.1,0,0,0,.038.446a.109.109,0,0,0,.05.033.158.158,0,0,0,.071,0A.543.543,0,0,0,.24.459L.369.408.5.354.594.317.649.3A.469.469,0,0,0,.7.275.183.183,0,0,0,.748.243.114.114,0,0,0,.777.2.127.127,0,0,0,.782.134.108.108,0,0,0,.711.05.129.129,0,0,0,.648.045Z" transform="translate(1.144 5.616)"/>
          <path id="Caminho_13412" data-name="Caminho 13412" d="M.344.03A.165.165,0,0,0,.3.052.11.11,0,0,0,.271.084.4.4,0,0,0,.247.13C.239.149.229.171.216.2L.172.287.106.423C.083.47.061.517.044.554A.444.444,0,0,0,.015.631.122.122,0,0,0,.02.687.1.1,0,0,0,.049.731.106.106,0,0,0,.1.755a.154.154,0,0,0,.069,0A.142.142,0,0,0,.239.7.609.609,0,0,0,.3.593C.32.554.338.512.354.473S.385.4.4.371L.423.323.455.258C.466.236.476.213.484.193A.223.223,0,0,0,.5.144.122.122,0,0,0,.491.086.1.1,0,0,0,.46.043.1.1,0,0,0,.409.022.141.141,0,0,0,.344.03Z" transform="translate(7.074 8.717)"/>
          <path id="Caminho_13413" data-name="Caminho 13413" d="M.343.031A.151.151,0,0,0,.3.054.12.12,0,0,0,.269.088.433.433,0,0,0,.245.135C.237.154.228.175.215.2L.189.255.163.309.138.363.112.416.088.464.057.526C.046.548.037.569.029.588A.207.207,0,0,0,.015.635.118.118,0,0,0,.021.69a.109.109,0,0,0,.03.044A.11.11,0,0,0,.1.759a.145.145,0,0,0,.067,0C.192.751.225.711.261.654a2.179,2.179,0,0,0,.109-.2C.4.378.436.3.46.248S.5.152.5.146A.121.121,0,0,0,.492.088.1.1,0,0,0,.46.044.105.105,0,0,0,.409.023.14.14,0,0,0,.343.031Z" transform="translate(3.851 3.594)"/>
          <path id="Caminho_13414" data-name="Caminho 13414" d="M.349.029A.17.17,0,0,0,.3.055.137.137,0,0,0,.264.092.372.372,0,0,0,.24.141C.232.159.224.179.213.2L.167.294.1.429C.079.476.057.522.041.56A.348.348,0,0,0,.014.64.111.111,0,0,0,.023.692.109.109,0,0,0,.054.733.113.113,0,0,0,.1.756a.137.137,0,0,0,.062,0A.136.136,0,0,0,.23.7.692.692,0,0,0,.293.6C.313.558.333.516.351.475S.386.4.4.366L.426.316.457.253C.468.232.477.21.485.191A.212.212,0,0,0,.5.141.118.118,0,0,0,.492.085.1.1,0,0,0,.461.043.1.1,0,0,0,.412.023.138.138,0,0,0,.35.029Z" transform="translate(3.318 7.885)"/>
          <path id="Caminho_13415" data-name="Caminho 13415" d="M.452.039A.172.172,0,0,0,.409.063.216.216,0,0,0,.374.1C.363.108.352.123.339.141L.293.2.256.245.22.288.185.331.149.375.116.416.074.466A.607.607,0,0,0,.038.518a.157.157,0,0,0-.02.044.124.124,0,0,0,0,.062A.108.108,0,0,0,.1.7.15.15,0,0,0,.178.694.424.424,0,0,0,.263.613C.3.567.356.507.406.445S.506.321.543.27A.532.532,0,0,0,.61.166.116.116,0,0,0,.608.1.1.1,0,0,0,.574.054.114.114,0,0,0,.519.031.138.138,0,0,0,.452.039Z" transform="translate(6.928 1.509)"/>
          <path id="Caminho_13416" data-name="Caminho 13416" d="M.362.024A.151.151,0,0,0,.308.046.127.127,0,0,0,.274.081.336.336,0,0,0,.247.13C.239.148.23.169.219.192l-.2.437a.131.131,0,0,0,0,.057A.1.1,0,0,0,.045.731.106.106,0,0,0,.092.758a.152.152,0,0,0,.066,0A.123.123,0,0,0,.224.712.623.623,0,0,0,.289.61C.309.571.329.528.348.487S.383.407.4.375L.423.325.454.263C.465.241.475.219.482.2A.242.242,0,0,0,.5.153.122.122,0,0,0,.494.1.108.108,0,0,0,.468.053.1.1,0,0,0,.423.026.126.126,0,0,0,.362.024Z" transform="translate(7.078 2.93)"/>
          <path id="Caminho_13417" data-name="Caminho 13417" d="M.16.009A.148.148,0,0,0,.1.031.132.132,0,0,0,.061.073.113.113,0,0,0,.044.128.124.124,0,0,0,.06.191.658.658,0,0,0,.139.253C.184.286.245.328.309.369A2.055,2.055,0,0,0,.5.477.256.256,0,0,0,.625.516.112.112,0,0,0,.672.493.143.143,0,0,0,.707.449.129.129,0,0,0,.722.394.11.11,0,0,0,.709.337.118.118,0,0,0,.681.306.481.481,0,0,0,.635.274L.584.242.539.215.46.161C.428.139.391.113.354.09A.915.915,0,0,0,.245.029.169.169,0,0,0,.16.009Z" transform="translate(7.854 4.135)"/>
          <path id="Caminho_13418" data-name="Caminho 13418" d="M.145.01A.165.165,0,0,0,.1.035.133.133,0,0,0,.059.074a.106.106,0,0,0-.015.05A.122.122,0,0,0,.058.183.13.13,0,0,0,.089.221.361.361,0,0,0,.136.255L.187.286.234.313l.08.054C.347.39.385.416.424.439A.865.865,0,0,0,.536.5.158.158,0,0,0,.623.516.116.116,0,0,0,.67.492.144.144,0,0,0,.705.449.127.127,0,0,0,.721.4.106.106,0,0,0,.709.34.127.127,0,0,0,.679.307.506.506,0,0,0,.632.271L.58.238.534.209.456.156C.423.133.384.107.345.083A.82.82,0,0,0,.231.024.143.143,0,0,0,.145.01Z" transform="translate(5.261 2.814)"/>
          <path id="Caminho_13419" data-name="Caminho 13419" d="M.144.012A.138.138,0,0,0,.093.037.131.131,0,0,0,.058.079.117.117,0,0,0,.044.132.12.12,0,0,0,.058.19.427.427,0,0,0,.142.26C.189.293.25.334.313.374S.442.45.5.477a.285.285,0,0,0,.122.04A.107.107,0,0,0,.669.494.137.137,0,0,0,.706.447.126.126,0,0,0,.719.389.112.112,0,0,0,.7.328.3.3,0,0,0,.642.282C.612.261.574.236.535.212L.423.141.346.094.3.063A.506.506,0,0,0,.253.031.186.186,0,0,0,.2.011.123.123,0,0,0,.144.012Z" transform="translate(7.669 6.808)"/>
          <path id="Caminho_13420" data-name="Caminho 13420" d="M.135.009.107.02A.1.1,0,0,0,.085.033.08.08,0,0,0,.068.052a.147.147,0,0,0-.014.03A.126.126,0,0,0,.047.161.119.119,0,0,0,.086.218.456.456,0,0,0,.155.264C.181.279.21.3.238.314l.08.056C.351.392.389.418.427.441A.7.7,0,0,0,.54.5.154.154,0,0,0,.631.51.112.112,0,0,0,.68.479.141.141,0,0,0,.71.429.133.133,0,0,0,.717.371.1.1,0,0,0,.7.318L.622.265C.578.233.517.191.454.151A1.848,1.848,0,0,0,.266.043.223.223,0,0,0,.135.009Z" transform="translate(8.349 2.666)"/>
          <path id="Caminho_13421" data-name="Caminho 13421" d="M.141.009a.174.174,0,0,0-.052.03A.135.135,0,0,0,.054.083a.1.1,0,0,0-.01.053A.117.117,0,0,0,.068.194a.921.921,0,0,0,.079.06C.193.287.253.329.316.369A1.923,1.923,0,0,0,.5.475.232.232,0,0,0,.628.51.121.121,0,0,0,.675.483.142.142,0,0,0,.709.437.123.123,0,0,0,.72.382.1.1,0,0,0,.7.327.7.7,0,0,0,.62.263C.574.23.513.187.449.147A1.879,1.879,0,0,0,.264.042.21.21,0,0,0,.141.009Z" transform="translate(5.359 7.885)"/>
          <path id="Caminho_13422" data-name="Caminho 13422" d="M.132.009a.131.131,0,0,0-.05.032A.139.139,0,0,0,.051.09.122.122,0,0,0,.044.145.1.1,0,0,0,.065.2L.421.432l.045.03A.483.483,0,0,0,.517.493a.2.2,0,0,0,.056.02A.117.117,0,0,0,.678.479.141.141,0,0,0,.709.431.126.126,0,0,0,.718.375.1.1,0,0,0,.7.321S.666.3.621.264.514.19.45.149A1.8,1.8,0,0,0,.262.042.216.216,0,0,0,.132.009Z" transform="translate(2.779 6.926)"/>
          <path id="Caminho_13423" data-name="Caminho 13423" d="M.132.015A.16.16,0,0,0,.065.047.087.087,0,0,0,.037.1a.189.189,0,0,0,0,.065c0,.024.01.051.017.081s.01.043.017.064A.2.2,0,0,0,.1.364.092.092,0,0,0,.147.4a.143.143,0,0,0,.08,0A.105.105,0,0,0,.282.363.118.118,0,0,0,.306.308a.246.246,0,0,0,0-.067A.5.5,0,0,0,.295.17C.289.149.284.126.278.105A.2.2,0,0,0,.253.048.085.085,0,0,0,.208.014a.136.136,0,0,0-.076,0Z" transform="translate(1.196 6.712)"/>
        </g>
        <path id="Caminho_13424" data-name="Caminho 13424" d="M.714.848a2.079,2.079,0,0,1,.606.306,5.388,5.388,0,0,1,.507.427c.165.151.332.306.519.447a2.694,2.694,0,0,0,.641.365,3.253,3.253,0,0,0,.938.2A2.614,2.614,0,0,0,4.747,2.5a4.063,4.063,0,0,0,.784-.317c.264-.136.534-.3.824-.475a2.068,2.068,0,0,1,1.774-.27A5.371,5.371,0,0,1,9.635,2.3a5.59,5.59,0,0,0,1.492.875,1.981,1.981,0,0,0,1.731-.246,9.344,9.344,0,0,1,2.153-.978,1.253,1.253,0,0,1,1.043.1,5.255,5.255,0,0,1,.733.691,3.551,3.551,0,0,0,1.223.8,2.974,2.974,0,0,0,1.533.236,3.085,3.085,0,0,0,1.124-.422c.34-.194.663-.415,1.019-.578A2.39,2.39,0,0,1,22.9,2.546l.092-.758c-.065,0-.128,0-.19,0h-.181c-.06,0-.12,0-.181.006s-.123.01-.188.02-.127.021-.193.036-.134.031-.2.051-.132.042-.2.066a1.549,1.549,0,0,0-.178.083,7.232,7.232,0,0,1-2.293.929A1.346,1.346,0,0,1,18.081,2.7c-.277-.218-.51-.525-.852-.807a3.056,3.056,0,0,0-1.509-.662,2.9,2.9,0,0,0-1.571.184c-.47.181-.9.439-1.322.65a2.752,2.752,0,0,1-1.289.362,2.3,2.3,0,0,1-1.475-.681c-.191-.169-.359-.324-.522-.462A3.622,3.622,0,0,0,9.053.932,2.225,2.225,0,0,0,8.494.694,3.435,3.435,0,0,0,7,.656a3.017,3.017,0,0,0-.637.215,6.429,6.429,0,0,0-.608.329c-.208.124-.428.261-.673.4a2,2,0,0,1-1.334.213,2.667,2.667,0,0,1-1.021-.542C2.4,1.026,2.076.738,1.69.5A3.206,3.206,0,0,0,.3,0l-.1.748.505.1Z" transform="translate(0 13.883)"/>
        <path id="Caminho_13425" data-name="Caminho 13425" d="M7.163.419a5.773,5.773,0,0,1,2.2.6,5.435,5.435,0,0,1,1.693,1.335,5.255,5.255,0,0,1,1.019,1.87,5.328,5.328,0,0,1,.184,2.21,5.661,5.661,0,0,1-.724,2.143,6.06,6.06,0,0,1-1.457,1.688A6.249,6.249,0,0,1,8.1,11.336a6.119,6.119,0,0,1-2.3.283,5.777,5.777,0,0,1-2.2-.594A5.438,5.438,0,0,1,1.9,9.7,5.256,5.256,0,0,1,.868,7.834,5.325,5.325,0,0,1,.674,5.62a5.658,5.658,0,0,1,.72-2.153,6.058,6.058,0,0,1,1.462-1.7A6.249,6.249,0,0,1,4.849.7,6.117,6.117,0,0,1,7.163.419ZM2.589,5.862a.226.226,0,0,0,.029.1.236.236,0,0,0,.065.073.265.265,0,0,0,.091.043.292.292,0,0,0,.107.008L9.918,5.3a.287.287,0,0,0,.2-.1.256.256,0,0,0,.056-.179.232.232,0,0,0-.083-.164.287.287,0,0,0-.22-.054l-7.007.782a.337.337,0,0,0-.108.031.322.322,0,0,0-.089.062.268.268,0,0,0-.058.086A.227.227,0,0,0,2.589,5.862ZM5.6,9.161c.249-.028.512-.055.781-.084s.544-.058.819-.089.547-.066.812-.1.521-.08.762-.127c.076-.015.148-.032.216-.052s.132-.041.194-.065.122-.05.181-.077.117-.057.175-.088a1.058,1.058,0,0,0,.26-.194A1.2,1.2,0,0,0,10,8.025a1.289,1.289,0,0,0,.119-.295,1.228,1.228,0,0,0,.042-.308c0-.01,0-.02,0-.031s0-.021,0-.031,0-.021,0-.031,0-.021,0-.031a.305.305,0,0,1,0-.031c0-.009,0-.016,0-.023s0-.015,0-.024a.3.3,0,0,0,0-.033l-3.4.381c-.163.018-.326.042-.486.071s-.318.064-.473.1-.305.086-.451.138a4.543,4.543,0,0,0-.42.173l-.072.035-.079.042L4.7,8.177c-.024.015-.046.029-.064.042L4.6,8.242l-.032.021-.031.021-.031.024-.031.027-.029.027-.029.028-.03.028-.029.027-.025.024-.024.026-.025.032c-.008.011-.015.023-.023.035L4.243,8.6c-.007.012-.015.023-.023.034a.182.182,0,0,1-.025.028.586.586,0,0,0-.1-.208,2.179,2.179,0,0,0-.2-.243,2.044,2.044,0,0,0-.21-.2.282.282,0,0,0-.142-.078c-.2.022-.333.034-.429.044A.793.793,0,0,0,2.937,8c-.029.012-.033.029-.029.057a1.112,1.112,0,0,1,.022.128,1.055,1.055,0,0,0,.081.331,1.036,1.036,0,0,0,.175.277,1.1,1.1,0,0,0,.252.211,1.192,1.192,0,0,0,.313.134,2.508,2.508,0,0,0,.405.07,4.424,4.424,0,0,0,.456.018c.159,0,.323-.009.489-.021s.335-.029.5-.047ZM2.5,6.9c.006.079.008.158.014.235a1.386,1.386,0,0,0,.032.224.614.614,0,0,0,.084.2.521.521,0,0,0,.17.159.948.948,0,0,0,.1.051.521.521,0,0,0,.087.031.613.613,0,0,0,.093.015c.034,0,.071,0,.115.006l.229-.031.043,0h.088l.191-.034.043,0h.088l.191-.034.043,0H4.2l.19-.034.043,0h.088l.19-.034.043,0h.088l.19-.034.043,0h.088l.19-.034.043,0h.088l.19-.034.043,0H5.8l.19-.034.043,0h.088l.19-.034.043,0h.087l.19-.034.043,0h.088l.19-.034.043,0h.087l.19-.034.043,0h.087l.19-.034.043,0h.088l.19-.034.043,0H8.05l.19-.034.043,0h.088l.19-.034.043,0h.087l.19-.034.043,0h.087l.19-.034.043,0h.087l.19-.034.049,0H9.65a.28.28,0,0,0,.044-.007c.046-.011.086-.016.125-.022s.075-.01.111-.019a.5.5,0,0,0,.114-.041.723.723,0,0,0,.133-.089.687.687,0,0,0,.176-.208.629.629,0,0,0,.068-.224,1.329,1.329,0,0,0,0-.243c-.005-.085-.015-.173-.021-.264a.374.374,0,0,0-.028-.112.678.678,0,0,0-.062-.117.754.754,0,0,0-.084-.106.5.5,0,0,0-.093-.078.632.632,0,0,0-.179-.078.8.8,0,0,0-.188-.024,1.7,1.7,0,0,0-.2.01L9.351,5.5a.129.129,0,0,0-.059.045c-.024.026-.053.062-.083.1s-.063.082-.1.123a1.055,1.055,0,0,1-.1.108l-.033.031-.03.029-.03.029L8.888,6a2.255,2.255,0,0,1-.291.246,1.291,1.291,0,0,1-.325.169.749.749,0,0,1-.341.037.709.709,0,0,1-.342-.15c-.035-.027-.078-.065-.125-.106s-.1-.085-.149-.125a1.04,1.04,0,0,0-.151-.1.239.239,0,0,0-.129-.035.8.8,0,0,0-.218.049.294.294,0,0,0-.1.065.467.467,0,0,1-.066.062.259.259,0,0,1-.121.038.188.188,0,0,1-.071-.008.4.4,0,0,1-.074-.03.664.664,0,0,1-.067-.04c-.02-.014-.038-.027-.051-.038l-.03-.023-.026-.017-.025-.016-.028-.02a.5.5,0,0,1-.051-.046C6.1,5.9,6.09,5.889,6.084,5.883a.033.033,0,0,0-.015-.012.069.069,0,0,0-.026,0l-2.8.313a1.663,1.663,0,0,0-.172.027.916.916,0,0,0-.141.042.673.673,0,0,0-.119.061.726.726,0,0,0-.106.084.638.638,0,0,0-.08.094.747.747,0,0,0-.069.12.668.668,0,0,0-.046.138A.529.529,0,0,0,2.5,6.9ZM6.426,4.629c0-.028.021-.05.056-.067a.408.408,0,0,1,.131-.032.423.423,0,0,1,.134.007c.037.009.062.026.064.05s-.021.048-.056.065a.427.427,0,0,1-.131.034.412.412,0,0,1-.134,0C6.453,4.671,6.428,4.655,6.426,4.629Zm-2.809.156a.5.5,0,0,1,.109-.023.475.475,0,0,1,.12,0,.264.264,0,0,1,.1.037.151.151,0,0,1,.063.082A.293.293,0,0,1,3.9,4.92a.366.366,0,0,1-.123-.006.265.265,0,0,1-.1-.046A.141.141,0,0,1,3.617,4.785Zm4.266-.633a.483.483,0,0,1,.2-.027.323.323,0,0,1,.138.042.107.107,0,0,1,.056.064c0,.02-.011.036-.046.04l-.066.007a.556.556,0,0,1-.059,0,.362.362,0,0,1-.059-.006.442.442,0,0,1-.065-.018.271.271,0,0,1-.037-.015.12.12,0,0,1-.028-.02.1.1,0,0,1-.02-.028A.166.166,0,0,1,7.883,4.151Zm-2.7.379a.2.2,0,0,1-.037,0,.078.078,0,0,1-.025-.006.072.072,0,0,1-.019-.013l-.018-.019a.132.132,0,0,1,.047-.073.3.3,0,0,1,.092-.051.521.521,0,0,1,.118-.027.541.541,0,0,1,.122,0,.124.124,0,0,1-.025.082.2.2,0,0,1-.07.056.433.433,0,0,1-.092.034.674.674,0,0,1-.092.017Zm3.488-.862a.121.121,0,0,1,.058-.075.313.313,0,0,1,.113-.041.4.4,0,0,1,.127,0,.206.206,0,0,1,.1.042.173.173,0,0,1-.08.08.349.349,0,0,1-.12.036.394.394,0,0,1-.12,0A.146.146,0,0,1,8.676,3.669ZM6.3,3.76l.06,0a.39.39,0,0,1,.059,0,.2.2,0,0,1,.053.013.113.113,0,0,1,.041.029.106.106,0,0,1-.059.071.323.323,0,0,1-.113.032.549.549,0,0,1-.127,0,.308.308,0,0,1-.1-.027.126.126,0,0,1,.022-.051.116.116,0,0,1,.039-.033.224.224,0,0,1,.055-.02A.612.612,0,0,1,6.3,3.76Zm-1.764.275A.192.192,0,0,1,4.4,4.017c-.021-.018-.017-.043.007-.069a.278.278,0,0,1,.13-.067.633.633,0,0,1,.232-.013.2.2,0,0,1,0,.047.067.067,0,0,1-.013.029.084.084,0,0,1-.024.02l-.037.019L4.66,4l-.043.016-.044.014-.035.008Zm2.544-.709a.125.125,0,0,1,.045-.089.312.312,0,0,1,.1-.06.48.48,0,0,1,.124-.027.267.267,0,0,1,.1.009.12.12,0,0,1-.045.1.235.235,0,0,1-.046.03c-.017.009-.036.016-.055.024s-.045.017-.065.023a.317.317,0,0,1-.056.012.228.228,0,0,1-.054,0A.292.292,0,0,1,7.082,3.326Zm-1.758-.12A.169.169,0,0,1,5.4,3.148a.43.43,0,0,1,.119-.03.416.416,0,0,1,.121,0,.151.151,0,0,1,.085.04.106.106,0,0,1-.063.072.357.357,0,0,1-.114.03.758.758,0,0,1-.113,0,.342.342,0,0,1-.059-.006.2.2,0,0,1-.032-.013.019.019,0,0,1-.01-.01.12.12,0,0,1,0-.013A.061.061,0,0,0,5.324,3.206ZM2.771,5.447l7.168-.8a.058.058,0,0,0,.031-.01.024.024,0,0,0,.008-.021.2.2,0,0,0-.005-.033c0-.013-.006-.029-.008-.048a1.334,1.334,0,0,0-.1-.37,1.842,1.842,0,0,0-.2-.347,2.137,2.137,0,0,0-.259-.3,1.884,1.884,0,0,0-.29-.231,3.959,3.959,0,0,0-.671-.344,4.046,4.046,0,0,0-.713-.209,4.589,4.589,0,0,0-.753-.083,5.622,5.622,0,0,0-.79.034,5.473,5.473,0,0,0-.725.131,5.415,5.415,0,0,0-.723.236,4.645,4.645,0,0,0-.677.34,3.62,3.62,0,0,0-.587.445c-.059.055-.116.113-.171.173s-.108.123-.157.188-.1.132-.139.2a2.107,2.107,0,0,0-.115.211c-.031.066-.057.128-.078.188a1.547,1.547,0,0,0-.052.179,1.6,1.6,0,0,0-.03.183c-.007.063-.01.128-.012.2,0,.012,0,.024,0,.036a.135.135,0,0,0,0,.031.027.027,0,0,0,.012.02.051.051,0,0,0,.033,0Z" transform="translate(6.369 0)"/>
        <path id="Caminho_13426" data-name="Caminho 13426" d="M.493.14H2.436l-.214,3.8-1.941,0Z" transform="translate(37.097 1.651)"/>
      </g>
    </g>
  </g>
</svg>
