<svg id="Grupo_4841" data-name="Grupo 4841" xmlns="http://www.w3.org/2000/svg" width="22.435" height="12.688" viewBox="0 0 22.435 12.688">
  <path id="Caminho_36" data-name="Caminho 36" d="M4.4,36.761H25.313v3.023a2.614,2.614,0,0,0-1.6,4.318,2.968,2.968,0,0,0,.679.555,2.338,2.338,0,0,0,.925.308v3.023H4.4V44.966A2.656,2.656,0,0,0,6.683,42.4a3.346,3.346,0,0,0-.206-.966A2.631,2.631,0,0,0,6,40.668a2.462,2.462,0,0,0-1.6-.843V36.8Zm-.74-.391v3.763c0,.72,1.234-.041,1.995,1.337a.836.836,0,0,1,.165.391,1.833,1.833,0,0,1-1.419,2.3c-.35.062-.72-.021-.72.411v3.763a.335.335,0,0,0,.35.35H25.725a.335.335,0,0,0,.35-.35V44.575c0-.411-.35-.35-.679-.411a1.832,1.832,0,0,1-1.3-.925,1.792,1.792,0,0,1,.514-2.365c.74-.617,1.481-.123,1.481-.761V36.35a.335.335,0,0,0-.35-.35H4.051a.335.335,0,0,0-.35.35Z" transform="translate(-3.66 -36)" fill="#177b81"/>
  <path id="Caminho_37" data-name="Caminho 37" d="M8.61,43.442,9.145,44l5.984-5.963a1.461,1.461,0,0,0-.247-.267c-.1-.1-.165-.206-.308-.247L8.61,43.463Z" transform="translate(1.571 -34.394)" fill="#177b81"/>
  <path id="Caminho_38" data-name="Caminho 38" d="M11.341,40.972a.64.64,0,0,1,.247-.6c.7-.617,1.625.432.987,1.09a.731.731,0,0,1-1.234-.494Zm-.781-.082a1.505,1.505,0,1,0,1.583-1.439A1.51,1.51,0,0,0,10.56,40.889Z" transform="translate(3.63 -32.355)" fill="#177b81"/>
  <path id="Caminho_39" data-name="Caminho 39" d="M9.13,38.783a.733.733,0,0,1,1.234-.535.709.709,0,0,1,.165.185A.74.74,0,0,1,9.912,39.5a.724.724,0,0,1-.7-.411A1.713,1.713,0,0,1,9.13,38.783ZM8.39,38.6A1.474,1.474,0,0,0,8.8,39.811a1.505,1.505,0,0,0,2.426-.391,1.406,1.406,0,0,0,.144-.823,1.5,1.5,0,0,0-2.488-.946A1.463,1.463,0,0,0,8.39,38.6Z" transform="translate(1.338 -34.67)" fill="#177b81"/>
  <path id="Caminho_40" data-name="Caminho 40" d="M6.92,40.479v.658H7.7c0-.946.144-.781-.658-.781C6.941,40.356,6.92,40.376,6.92,40.479Z" transform="translate(-0.216 -31.41)" fill="#177b81"/>
  <path id="Caminho_41" data-name="Caminho 41" d="M6.92,38.108c0,.185.206.123.658.123.206,0,.123-.267.123-.781H6.92Z" transform="translate(-0.216 -34.469)" fill="#177b81"/>
  <path id="Caminho_42" data-name="Caminho 42" d="M6.92,39.681H7.7V38.9H6.92Z" transform="translate(-0.216 -32.937)" fill="#177b81"/>
  <path id="Caminho_43" data-name="Caminho 43" d="M6.92,39.743V40.4H7.7V39.62H7.043C6.941,39.62,6.92,39.641,6.92,39.743Z" transform="translate(-0.216 -32.176)" fill="#177b81"/>
  <path id="Caminho_44" data-name="Caminho 44" d="M6.92,38.828c0,.1.021.123.123.123H7.7V38.17H6.92Z" transform="translate(-0.216 -33.708)" fill="#177b81"/>
  <path id="Caminho_45" data-name="Caminho 45" d="M6.92,41.83H7.7v-.74H6.92Z" transform="translate(-0.216 -30.623)" fill="#177b81"/>
  <path id="Caminho_46" data-name="Caminho 46" d="M6.92,37.47H7.7v-.74H6.92Z" transform="translate(-0.216 -35.229)" fill="#177b81"/>
  <path id="Caminho_47" data-name="Caminho 47" d="M4.38,41.83h.761v-.74H4.38Z" transform="translate(-2.897 -30.623)" fill="#177b81"/>
  <path id="Caminho_48" data-name="Caminho 48" d="M4.38,37.47h.761v-.74H4.38Z" transform="translate(-2.897 -35.229)" fill="#177b81"/>
  <path id="Caminho_49" data-name="Caminho 49" d="M13.47,41.83h.74v-.74h-.74Z" transform="translate(6.705 -30.623)" fill="#177b81"/>
  <path id="Caminho_50" data-name="Caminho 50" d="M13.47,37.47h.74v-.74h-.74Z" transform="translate(6.705 -35.229)" fill="#177b81"/>
</svg>
