<svg id="Camada_x0020_1" xmlns="http://www.w3.org/2000/svg" width="15.794" height="12.034" viewBox="0 0 15.794 12.034">
  <g id="_1671181526320">
    <path id="Caminho_11834" data-name="Caminho 11834" d="M399.876,10.149H392.4a6,6,0,0,0,.776-2.232c.074-1.166-.054-2.751.094-3.667a2.836,2.836,0,0,1,.584-1.3,2.97,2.97,0,0,1,1.912-1.1,2.762,2.762,0,0,1,1.031.059,2.709,2.709,0,0,1,1.438.818,2.727,2.727,0,0,1,.766,1.49,4.82,4.82,0,0,1,.068.684c0,.986-.031,2.039.024,2.984a5.133,5.133,0,0,0,.285,1.219l.492,1.037ZM395.664.071V.923a1.977,1.977,0,0,0-.39.061,3.847,3.847,0,0,0-1.584.8l-.251.226A3.891,3.891,0,0,0,392.318,4.2c-.151,1.076.115,2.728-.166,4.1a2.453,2.453,0,0,1-.108.368l-.921,1.686c-.04.058-.057.092-.1.15l-.279.423a.4.4,0,0,0-.093.157h4.187a1.38,1.38,0,0,0,1.178.928,1.287,1.287,0,0,0,1-.3,1.229,1.229,0,0,0,.43-.623h4.187l-.645-.985c-.043-.06-.055-.09-.1-.151a4.3,4.3,0,0,1-.512-.917l-.131-.345A4.616,4.616,0,0,1,400,7.04c0-.466.024-2.427-.029-2.8a3.864,3.864,0,0,0-.673-1.709,2.888,2.888,0,0,0-.206-.27A3.82,3.82,0,0,0,397.4,1.1a3.125,3.125,0,0,0-.781-.172V-.03h-.9c-.106,0-.05.039-.05.1Z" transform="translate(-388.243 0.03)" fill="#177b81"/>
    <path id="Caminho_11835" data-name="Caminho 11835" d="M-.01,466.863a4.146,4.146,0,0,0,.26,1.745l.155.371a2.676,2.676,0,0,0,.17.332,3.878,3.878,0,0,0,.668.886,3.338,3.338,0,0,0,.677-.677c-.207-.075-.6-.831-.7-1.028a2.88,2.88,0,0,1-.21-.667,3.411,3.411,0,0,1,.113-1.887,2.817,2.817,0,0,1,.131-.32,3.352,3.352,0,0,1,.5-.8c.074-.087.147-.151.218-.233a4.376,4.376,0,0,0-.677-.652,4.931,4.931,0,0,0-.591.713l-.286.516a4.236,4.236,0,0,0-.427,1.7Z" transform="translate(0.01 -461.072)" fill="#177b81"/>
    <path id="Caminho_11836" data-name="Caminho 11836" d="M2242.259,464.562a3.244,3.244,0,0,1,.71,1.02,3.348,3.348,0,0,1,.3,1c.021.1.021.3.036.415a2.416,2.416,0,0,1-.018.394,3.5,3.5,0,0,1-.577,1.63c-.058.088-.116.161-.179.247s-.143.2-.223.229c.024.089.084.122.145.182l.338.338c.063.064.1.132.194.157a3.319,3.319,0,0,0,.467-.562l.193-.308a4.458,4.458,0,0,0,.593-1.988,4.216,4.216,0,0,0-.266-1.789,3.344,3.344,0,0,0-.337-.716c-.033-.055-.053-.1-.09-.16s-.07-.1-.113-.163-.063-.078-.11-.141a3.269,3.269,0,0,0-.387-.441A4.4,4.4,0,0,0,2242.259,464.562Z" transform="translate(-2228.446 -461.052)" fill="#177b81"/>
    <path id="Caminho_11837" data-name="Caminho 11837" d="M301.11,677.255a2.459,2.459,0,0,0,.446,1.635,2.132,2.132,0,0,0,.127.174c.059.072.1.078.129.172.114-.01.243-.18.37-.307a2.95,2.95,0,0,0,.332-.345c-.048-.072-.122-.149-.176-.225a1.662,1.662,0,0,1-.154-1.633,1.754,1.754,0,0,1,.251-.4,1.331,1.331,0,0,0,.1-.122l-.5-.508c-.065-.065-.094-.135-.207-.144-.022.084-.14.166-.261.341a2.74,2.74,0,0,0-.224.378,2.344,2.344,0,0,0-.242.986Z" transform="translate(-299.255 -671.388)" fill="#177b81"/>
    <path id="Caminho_11838" data-name="Caminho 11838" d="M2030.65,676.2a1.652,1.652,0,0,1,.5,1.178,1.727,1.727,0,0,1-.477,1.178c.067.1.371.382.5.508.064.066.094.135.207.144.024-.092.057-.087.118-.158a3.042,3.042,0,0,0,.35-.552,2.763,2.763,0,0,0,0-2.24,3.069,3.069,0,0,0-.35-.552c-.063-.074-.118-.088-.143-.183-.107.009-.135.068-.194.132Z" transform="translate(-2018.14 -671.358)" fill="#177b81"/>
  </g>
</svg>
