<svg xmlns="http://www.w3.org/2000/svg" width="250.254" height="97.939" viewBox="0 0 250.254 97.939">
  <g id="Grupo_5062" data-name="Grupo 5062" transform="translate(18112.742 3308.816)">
    <path id="Caminho_13940" data-name="Caminho 13940" d="M548.193,164.558c0-.42,1.825-.552,2.37-.659,1.726-.339,1.339-.147,2.941,1.119a4.137,4.137,0,0,1,.855.732l1.335,1.694c1.256-2.373,3.388-3.675,5.817-4.715,5.674-2.431,10.81-2.858,16.966-4.1,1.471-.3,3.032-.549,4.494-.843l4.461-.877.144,2.308c0,6.241-7.723,7.41-12.78,8.427l-15.059,2.686c-3.449.321-8.544.9-10.634-3.081a8.349,8.349,0,0,1-.912-2.695Zm.866-1.443c-3.133,0-3.9-2.947-3.9-5.626,0-3.6,5.027-3.671,8.235-4.316l10.52-2.031c1.319.884,2.428,1.874,3.467,1.159a2.62,2.62,0,0,1,2.3-1.159c1.67,0,3.534,4.064,7.407,1.925a6.527,6.527,0,0,0,1.306-1c.248-.183.257-.122.485-.381l1.368-1.662c2.074-2.2.033-2.151,3.709-2.506a3.408,3.408,0,0,1,3.848,2.236,10.026,10.026,0,0,1,.486,3.553c0,2.227-2.293,3.114-4.18,3.322l-6.528,1.263a10.172,10.172,0,0,0-1.235.208l-25.892,4.837a5.558,5.558,0,0,1-1.406.181Zm76.461-3.607a8.437,8.437,0,0,1-7.793-12.265,8.3,8.3,0,0,1,4.23-3.849,8.021,8.021,0,0,1,6.69,0,8.413,8.413,0,0,1-1.278,15.8A9.973,9.973,0,0,1,625.52,159.509ZM598.254,147.39c2.737,1.448,2.6,2.447,4.3,3.777,1.6,1.254,2.839,2.426,5.653,2.426,2.578,0,4.213-1.389,5.713-2.511.322-.241.392-.389.672-.626.217-.185.617-.473.828-.615,0,4.122.338,4.94,2.51,7.877a2.331,2.331,0,0,0,.664.635,12.771,12.771,0,0,0,2.305,1.59,9.932,9.932,0,0,0,11.176-1.815c.021-.021.051-.051.071-.073,3.138-3.367,1.1-2.973,3.179-4.179,2.058-1.193,4.994-5.52,9.865-3.075a6.426,6.426,0,0,1,1.79,1.385,23,23,0,0,0,3.21,3.138v8.8c0,.677-1.415,2.645-1.816,3.233a29.339,29.339,0,0,1-7.8,7.489,32.9,32.9,0,0,1-5.917,2.883c-.349.127-.629.172-1,.3-.706.235-1.149.364-1.9.552a27.852,27.852,0,0,1-8.284.724c-.465-.072-.913.007-1.38-.062a28.441,28.441,0,0,1-12.986-4.9l-1.735-1.295a5.543,5.543,0,0,1-.782-.661,13.347,13.347,0,0,1-2.247-2.226c-.231-.3-.47-.445-.71-.732-.206-.245-.126-.2-.3-.422l-1.038-1.27a27.687,27.687,0,0,1-2.738-4.763,19.806,19.806,0,0,1-1.588-4.471c0-1.477.577-2.926.577-5.771l-.156-4.461a4.675,4.675,0,0,1-.133-.877Zm-53.234,5.482v-1.3c.88-.59.1-.529,1.984-.9l35.081-6.613c1.609-.324,3.906-1.07,3.906,1.021,0,1.467-2.3,1.454-4.339,1.865l-7.887,1.49c-.788.157-1.9.377-2.668.506l-15.92,2.978c-1.784.325-3.437.628-5.216.987-.707.143-3.391.79-3.993.612-.567-.168-.516-.358-.947-.647Zm.433-2.885c0-.732-.144-.786-.144-1.587a11.7,11.7,0,0,1,2.492-6.741c.188-.247.292-.424.5-.654s.382-.343.578-.577l3.069-2.7a27.7,27.7,0,0,1,15-4.907c4.205,0,7.458.334,11.11,2.163a14.058,14.058,0,0,1,4,2.779,13.679,13.679,0,0,1,1.818,2.655c1.412,2.814.557,2.347-.353,2.486-1.257.192-2.61.468-3.77.7-1.336.27-2.653.473-3.9.72-7.481,1.488-15.24,2.773-22.7,4.28-.971.2-6.842,1.383-7.706,1.383Zm124.357-5.193c0,.418.878,1.443,1.112,1.917a7.6,7.6,0,0,1,.474,2.555c1.63.036.88,1.441.577,2.741-1.606,0-.92-.472-1.821,2.218-.371,1.108-.6,2.1-.974,3.21-.358,1.067-.63,2.032-.974,3.065a21.742,21.742,0,0,1-1.136,3.048l-7.224-1.288c-1.483-.3-1.447.232-1.432-1.453.034-3.764.289-7.249.289-11.109-.169,0-1.01.12-1.01-.577a5.369,5.369,0,0,1,.433-2.02l1.3-.144a2.214,2.214,0,0,1,.684-1.624c.12-.131.172-.155.286-.29.132-.157.174-.256.243-.334a7.083,7.083,0,0,1,3.98-1.791,8.233,8.233,0,0,1,3.9,1.01c.224-.467.332-.959.576-1.444a10.791,10.791,0,0,1,.722-1.3h1.01c0,2.244-1.01,2.41-1.01,3.607ZM617.3,129.5c2.555,0,4.054-.374,5.807-2.127a6.72,6.72,0,0,0,1.831-3.363c.073-.358.108-1.291.441-1.291a30.254,30.254,0,0,1,8.854,1.532,20.175,20.175,0,0,1,3.667,1.526c.4.251.712.353,1.125.606l2.135,1.327a28.167,28.167,0,0,1,8.369,8.943c.735,1.2.663.988.662,2.8q0,6.925,0,13.85a10.757,10.757,0,0,1-1.479-1.406c-.81-.8-.3-.544-1.059-1.105a7.553,7.553,0,0,0-2.221-1.529,8.78,8.78,0,0,0-4.928-.454,7.738,7.738,0,0,0-1.088.355,9.753,9.753,0,0,0-2.7,1.773c-.639.48-1.024.923-1.673,1.357,0-4.288-.578-5.828-3.353-8.621-3.006-3.026-8.857-3.144-12.2-.588-.31.237-.609.43-.916.671a4.994,4.994,0,0,0-1.023,1.141l-.942,1.366c-.665,1.176-.381,1.432-1.178,1.852-1.547.814-2.832,2.418-4.426,3.22a6.582,6.582,0,0,1-8.331-2.156c-.79-1.063-3.046-3.195-4.7-3.232v-.577c1.435.032,2.689.558,4.908-.574a7.261,7.261,0,0,0,1.981-1.482,6.96,6.96,0,0,0,2.055-5.014,7.366,7.366,0,0,0,10.675-6.2c0-1.1-.289-1.639-.289-2.6Zm-83.1,22.072a32.025,32.025,0,0,0,1.786,10.622,29.249,29.249,0,0,0,2.5,5.439,27.75,27.75,0,0,0,4.267,5.688l5.36,4.594a34.677,34.677,0,0,0,11.05,4.82,26.367,26.367,0,0,0,8.688.752c.546-.085,1.121.021,1.668-.063,4.659-.713,9.658-1.838,13.651-4.526l3.076-2.118a9.812,9.812,0,0,0,.868-.719l4.184-4.184a30.027,30.027,0,0,0,3.958-6c.586-1.084,1.666-4.317,1.993-4.787l.814,2.071A34.285,34.285,0,0,0,602.7,170.5a32.227,32.227,0,0,0,4.7,4.388l1.7,1.186a29.784,29.784,0,0,0,31.252.574c7.184-4.479,8.945-8.694,9.839-9.349v12.407c5.525,0,12.673.392,17.949-.662,1.1-.219,1.863-.426,2.88-.727a27.069,27.069,0,0,0,5.042-2.172,28.831,28.831,0,0,0,5.762-4.048l1.369-1.372a31.462,31.462,0,0,0,3.9-5.185,25.6,25.6,0,0,0,3.116-7.7,29.166,29.166,0,0,0-3.349-21.585,7.22,7.22,0,0,0-1.183-1.7c-1.328.89-1.941,2.142-3.925,1.04a5.557,5.557,0,0,1-2.566-3.2c-.846.226-2.78,2.685-4.416.809-1.145-1.313-1.21-3.507-1.21-5.282a5.47,5.47,0,0,1-5.482-5.338c-.481-.04-1.005-.2-1.458-.273-4.907-.785-11.375-.448-16.431-.448v12.984l-7.069-7.5a32.3,32.3,0,0,0-7.337-4.06,29.2,29.2,0,0,0-5.058-1.434,21.818,21.818,0,0,0-4.343-.418c-2.1,0-2.4-.944-2.752,1.857a5.62,5.62,0,0,1-2.581,3.911c-1.887,1.155-3.54.8-5.625.689-.364,1.609.719,1.917.719,3.927a5.721,5.721,0,0,1-.3,1.86,5.925,5.925,0,0,1-8.306,3.287c-.688-.364-1.851-1.465-2.166-.188-.248,1,1.018,3.061-1.591,5.611-2.122,2.073-3.867,1.846-6.386,1.26-.17-2.048-1.852-5.432-2.888-7.211a28.7,28.7,0,0,0-4.361-5.881,30.833,30.833,0,0,0-7.608-6.1c-.745-.374-1.388-.8-2.165-1.153-.8-.36-1.632-.674-2.453-1.01a30.073,30.073,0,0,0-5.279-1.5,31.9,31.9,0,0,0-19.345,2.126,29.224,29.224,0,0,0-7.87,4.97,28.2,28.2,0,0,0-3.487,3.437c-2.056,2.753-2.894,3.437-4.754,7.22a29.862,29.862,0,0,0-2.979,13.035Z" transform="translate(-18615.35 -3423.776)" fill="#ccc" fill-rule="evenodd"/>
    <path id="Caminho_13941" data-name="Caminho 13941" d="M3551.263,150.885a17.772,17.772,0,0,0,3.2,9.931,16.042,16.042,0,0,0,3.544,3.669c.3.228.511.4.818.624l1.913,1.117a32.058,32.058,0,0,0,5.118,2.1l2.271.758c2.1.7,4.288,1.3,5.674,3.126.935,1.231.837,2.333.837,3.78,0,1.465-1.6,3.335-2.8,3.84-2.737,1.159-5.506,1.2-7.7-1.131a7.289,7.289,0,0,1-1.25-1.78,8.144,8.144,0,0,1-.513-2.66H3549.1a20.369,20.369,0,0,0,2.424,9.551,24.783,24.783,0,0,0,3.093,4.265l2.559,2.2a20.087,20.087,0,0,0,17.008,2.864,18.621,18.621,0,0,0,6.943-3.588,15.652,15.652,0,0,0,3.26-3.376c.223-.309.308-.477.531-.767,2.824-3.674,3.693-10.079,2.528-14.727a17.531,17.531,0,0,0-4.045-7.784c-2.667-2.634-1.859-2.082-5.128-4.105-1.519-.94-6.134-2.365-7.658-2.873-3.815-1.27-5.933-1.865-5.933-5.464a3.192,3.192,0,0,1,1.175-2.143,2.793,2.793,0,0,1,1-.584c2.151-.769,4.892.344,5.64,1.545a3.691,3.691,0,0,1,.406,1.758h13.272a3.343,3.343,0,0,0-.113-.9,16.111,16.111,0,0,0-.353-2.821,15.7,15.7,0,0,0-2.994-6.383,17.72,17.72,0,0,0-3.216-3.131,18.618,18.618,0,0,0-11.646-3.646,16.611,16.611,0,0,0-9.379,3.028,16.868,16.868,0,0,0-7.211,13.707Z" transform="translate(-21456.959 -3435.924)" fill="#ccc" fill-rule="evenodd"/>
    <path id="Caminho_13942" data-name="Caminho 13942" d="M0,218.408H13.272V196.191H30.151V182.918H13.272v-8.656H34.624V160.99H0Z" transform="translate(-18112.742 -3462.189)" fill="#ccc" fill-rule="evenodd"/>
    <path id="Caminho_13943" data-name="Caminho 13943" d="M9.76,1450.817l3.261.49a13.4,13.4,0,0,1,2.656,1.095l6.029,4.358a16.6,16.6,0,0,0,3.115,1.79c5.894,2.4,11.478,1.125,16.364-2.564l1.939-1.379c.368-.281.639-.436,1.011-.721,4.388-3.36,8.836-3.11,13.617-.713l3.7,2.068c1.4.81,3.382,2.186,4.856,2.935l2.6,1.3a11.111,11.111,0,0,0,11.34-.779c4.36-2.886,9.957-7.3,15.205-7.3a6.854,6.854,0,0,1,3.778,1.56l1.454,1.288c.263.221.239.142.5.363l1.936,1.67c.381.284.659.524,1.071.8,4.432,3.021,12.273,5.324,17.514,2.246l3.236-2.1a41.476,41.476,0,0,1,5.373-3.571,12.872,12.872,0,0,1,5.82-1.394v-4.472c-.984.473-4.333-.429-8.829,2.568-1.19.793-3.507,2.308-4.731,2.915a29.33,29.33,0,0,1-5.364,2.426c-4.109,1.086-6.057.732-9.313-2.031l-.942-.79a18.808,18.808,0,0,0-6.37-4.162,17.636,17.636,0,0,0-10.33-.785c-.47.12-.9.281-1.314.417a21.768,21.768,0,0,0-3.732,1.75c-5.125,2.65-10.166,8.788-18.319,4.037-2.258-1.315-4.74-3.562-6.463-4.645L58,1448.163a13.9,13.9,0,0,0-6.262-1.24c-6.086,0-10.1,3.274-14.53,6.677a10.244,10.244,0,0,1-6.533,1.835c-2.272,0-4.948-1.516-6.608-2.625-.415-.277-.694-.464-1.126-.75-.455-.3-.648-.494-1.114-.762-2.584-1.488-4.73-3.531-8.762-4.367a16.829,16.829,0,0,0-3.31-.441v4.328Z" transform="translate(-18121.924 -4671.66)" fill="#ccc" fill-rule="evenodd"/>
    <path id="Caminho_13944" data-name="Caminho 13944" d="M3355.755,99.158l-.276-3.209a10.6,10.6,0,0,1-.063-1.68c-.029-.775-.177-.7-.185-1.557-.019-2-.281-4.6-.5-6.472-.062-.541.037-1.177-.025-1.718l-.37-4.859a7.836,7.836,0,0,1-.131-1.612,10.9,10.9,0,0,0-.177-1.565l-.172-3.315c-1.061,0-12.9.95-12.943.992-.191.193.469,6.87.545,7.9.042.563-.052,1.136.037,1.707l.786,9.843c.088.571,0,1.144.037,1.707l.332,3.152c.059.546-.184,1.434.252,1.676.2.109,5.5-.475,6.3-.472l6.548-.519Z" transform="translate(-21264.088 -3379.342)" fill="#ccc" fill-rule="evenodd"/>
    <path id="Caminho_13945" data-name="Caminho 13945" d="M2139.21,1389c0,1.024,1.43,2.544,2.547.284l3.579-8.3a20.722,20.722,0,0,1,1.511-3.3l1.179,2.922c1.791,3.842,1.393,2.516-.273,6.61a11.7,11.7,0,0,0-.707,1.826c-.11.942,1.622,2.618,2.649-.025.136-.351.263-.583.425-.99a3.113,3.113,0,0,0,.4-1.151h.283c.009.106.986,3.536,2.121,3.536,3.215,0-.848-5.724-.848-6.647,0-.825,2.1-4.781,2.4-6.081l4.365,9.919c.219.557.477,1.176.726,1.679a5.311,5.311,0,0,0,.39.742c.836.973,2.157-.147,2.157-.743a27.225,27.225,0,0,0-1.6-4.056l-4.282-10a6.3,6.3,0,0,0-1.047-1.923c-1.643,0-1.562-.042-2.81,3.131-.26.663-.537,1.2-.811,1.876a14.562,14.562,0,0,0-.764,1.923l-1.819-3.7c-1.284-3.267-1.189-3.233-2.848-3.233a4.451,4.451,0,0,0-1.01,1.819L2139.21,1389Z" transform="translate(-20125.43 -4602.798)" fill="#ccc" fill-rule="evenodd"/>
    <path id="Caminho_13946" data-name="Caminho 13946" d="M3636.91,1374.774v13.86c0,1.942,1.694,1.981,2.295,1.164.517-.7.251-10.311.251-11.346a33.56,33.56,0,0,1,2.771,3.736l5.428,7.583c.847,1.051,2.268.577,2.268-.995v-14.283c0-1.4-1.253-1.273-1.839-1.273-.461.689-.715.36-.707,2.4v9.334a52.939,52.939,0,0,1-3.254-4.383c-.19-.271-.3-.457-.526-.748l-2.763-3.883c-.224-.29-.336-.477-.526-.747s-.321-.4-.539-.733c-.924-1.391-.837-1.245-2.149-1.245-.376.562-.707.553-.707,1.556Z" transform="translate(-21536.295 -4602.718)" fill="#ccc" fill-rule="evenodd"/>
    <path id="Caminho_13947" data-name="Caminho 13947" d="M3219.79,1374.4v14.283c0,2.089,2.546,2.088,2.546-.141v-5.657h7.92c0,1.452-.253,6.214.31,6.9a1.25,1.25,0,0,0,1.9-.023,2.414,2.414,0,0,0,.332-1.223v-13.86c0-1-.331-.994-.707-1.556-.715,0-1.132-.111-1.552.428-.539.695-.287,5.27-.287,6.784h-7.92c0-1.147.135-5.724-.165-6.482-.14-.355-.309-.383-.542-.731-.585,0-1.838-.13-1.838,1.273Z" transform="translate(-21143.359 -4602.626)" fill="#ccc" fill-rule="evenodd"/>
    <path id="Caminho_13948" data-name="Caminho 13948" d="M2896.726,1390.4a8.864,8.864,0,0,0,4.642-1.3c2.806-1.85,2-3.228.308-3.228-.3,0-.748.418-.955.6a4.452,4.452,0,0,1-.928.627,6.389,6.389,0,0,1-5.848.14,6.253,6.253,0,0,1-2.273-8.968l2.462-2.064a6.283,6.283,0,0,1,6.528.921c.62.5,1.464,1.117,2.182.293,1.655-1.9-3.268-4.137-5.41-4.137-2.168,0-4.222.145-5.974,1.663a8.13,8.13,0,0,0-2.74,3.625,8.59,8.59,0,0,0,8.007,11.825Z" transform="translate(-20830.902 -4602.79)" fill="#ccc" fill-rule="evenodd"/>
    <path id="Caminho_13949" data-name="Caminho 13949" d="M2583.14,1388.855c0,1.685,1.667,1.912,2.408.428,1.022-2.045,3.491-8.214,4.619-10.8.2-.453.281-.378.327-.945a14.313,14.313,0,0,1,1.5,3.168l3.592,8.429c.922,2.079,2.546.869,2.546-.143,0-.547-3.013-7.276-3.309-8l-2.546-5.94c-.16-.394-.242-.571-.421-.994-.221-.525-.376-.487-.654-.9-.867,0-1.22-.113-1.622.5l-5.636,13.032a11.087,11.087,0,0,0-.8,2.166Z" transform="translate(-20543.621 -4602.656)" fill="#ccc" fill-rule="evenodd"/>
    <path id="Caminho_13950" data-name="Caminho 13950" d="M3519.819,1374.186v14.708a1.21,1.21,0,0,0,.932,1.2c.729.193,1.054-.356,1.473-.636v-15.274A1.2,1.2,0,0,0,3519.819,1374.186Z" transform="translate(-21425.994 -4602.554)" fill="#ccc" fill-rule="evenodd"/>
    <path id="Caminho_13951" data-name="Caminho 13951" d="M3936.92,1625.8c0,.8.65,1.273,1.556,1.273h10.041c1.67,0,2.053-2.546-.282-2.546h-9.9a1.382,1.382,0,0,0-1.415,1.273Z" transform="translate(-21818.912 -4839.463)" fill="#ccc" fill-rule="evenodd"/>
    <path id="Caminho_13952" data-name="Caminho 13952" d="M3936.92,1374.422a1.278,1.278,0,0,0,1.272,1.273h10.465a1.209,1.209,0,0,0,1.2-.931c.192-.729-.356-1.054-.637-1.473H3937.91a1.259,1.259,0,0,0-.99,1.131Z" transform="translate(-21818.912 -4602.79)" fill="#ccc" fill-rule="evenodd"/>
    <path id="Caminho_13953" data-name="Caminho 13953" d="M3936.929,1498.028a1.278,1.278,0,0,0,1.272,1.273h9.334c1.577,0,2.093-2.546-.566-2.546-1.67,0-8.64-.245-9.481.277a1.516,1.516,0,0,0-.56,1Z" transform="translate(-21818.922 -4719.041)" fill="#ccc" fill-rule="evenodd"/>
    <path id="Caminho_13954" data-name="Caminho 13954" d="M1666,829.75c0,1.056.237,1.16,1,2.457.391.661.753,1.195,1.187,1.843.222.333.354.5.607.836.166.218.176.2.335.386.217.262.151.245.366.5a26.524,26.524,0,0,0,4.866,4.511,25.985,25.985,0,0,0,3.9,2.307c.331,0,.168-.049.577-.144.122-.254.166-.467.289-.722-.885-1.018-3.2-2.086-4.473-3.029a4.619,4.619,0,0,1-.4-.325l-4.942-5.157c-.424-.6-.769-1.188-1.181-1.848C1667.329,830.075,1667.386,828.919,1666,829.75Z" transform="translate(-19680.209 -4091.132)" fill="#ccc" fill-rule="evenodd"/>
    <path id="Caminho_13955" data-name="Caminho 13955" d="M4134.51,4.319a1.389,1.389,0,0,0,.186.535c.26.3.185.175.68.186.185-.694,1.306-1.131,1.962-1.356a8.186,8.186,0,0,1,1.371-.373c.578-.055.826.141,1.572.141a1.828,1.828,0,0,0,1.042-2.918,1.639,1.639,0,0,0-1.052-.544h-.9a6.874,6.874,0,0,0-1.665.449c-1.342.541-3.191,2.511-3.191,3.878Z" transform="translate(-22010.045 -3308.806)" fill="#ccc" fill-rule="evenodd"/>
    <path id="Caminho_13956" data-name="Caminho 13956" d="M4222.311,85.771c.566.132.947.314,1.532.487a11.73,11.73,0,0,1,1.645.519c1.178.545,3.294,2.65,4.474.44a1.644,1.644,0,0,0-.253-1.92c-.621-.686-.887-.6-1.887-.854-1.882-.473-4.414-.746-5.511,1.327Z" transform="translate(-22092.65 -3387.949)" fill="#ccc" fill-rule="evenodd"/>
    <path id="Caminho_13957" data-name="Caminho 13957" d="M4183.29,168.206c.7,1.041,4.286,4.268,5.54,3.964a1.783,1.783,0,0,0,.061-3.505c-.474-.14-.8-.192-1.254-.332C4185.83,167.773,4184.743,168.206,4183.29,168.206Z" transform="translate(-22055.941 -3466.923)" fill="#ccc" fill-rule="evenodd"/>
    <path id="Caminho_13958" data-name="Caminho 13958" d="M2704.558,535.2c-.589.137-.411.271-1.147.3a5.838,5.838,0,0,0-1.512.075,2.1,2.1,0,0,0-1.668,1.505c2.312.192,5.614,1.3,7.646,1.3-.153-1.845-1.823-4.035-3.606-4.184a2.551,2.551,0,0,1,.289,1.01Z" transform="translate(-20653.271 -3813.317)" fill="#ccc" fill-rule="evenodd"/>
    <path id="Caminho_13959" data-name="Caminho 13959" d="M1729.42,561.957c0,.3-.007.225.335.531l.243.19c.365-.085,4.184-1.624,4.184-2.164a2.087,2.087,0,0,0-.144-.722c-1.229-.326-1.832.445-3.8,1.25-.432.177-.817.367-.817.914Z" transform="translate(-19739.877 -3837.333)" fill="#ccc" fill-rule="evenodd"/>
    <path id="Caminho_13960" data-name="Caminho 13960" d="M1992.86,993.368c0,.445.344.662.577.865.542-.127,4.184-1.608,4.184-2.164,0-1.4-1.421-.656-2.359-.2-.73.359-2.4.987-2.4,1.493Z" transform="translate(-19987.736 -4243.353)" fill="#ccc" fill-rule="evenodd"/>
    <path id="Caminho_13961" data-name="Caminho 13961" d="M2375.82,480.414a1.812,1.812,0,0,0,.289.722,5.619,5.619,0,0,0,2.6-.866c.815-.409,1.875-.542,1.875-1.442,0-1.353-2.38.121-2.761.268-.506.2-2,.769-2,1.318Z" transform="translate(-20348.047 -3760.695)" fill="#ccc" fill-rule="evenodd"/>
    <path id="Caminho_13962" data-name="Caminho 13962" d="M2370.94,817.2v.866c.464.245.57.348,1.137.135l3.48-1.722v-.865c-.464-.245-.569-.348-1.137-.135l-3.48,1.722Z" transform="translate(-20343.457 -4077.862)" fill="#ccc" fill-rule="evenodd"/>
    <path id="Caminho_13963" data-name="Caminho 13963" d="M2219.7,930.517c0,.331.049.168.144.577l1.01.144a5.32,5.32,0,0,0,.742-1.711,16.618,16.618,0,0,0,.556-2.04,1.347,1.347,0,0,0-.577-.577c-.88,0-.937.885-1.2,1.544a21.138,21.138,0,0,0-.678,2.062Z" transform="translate(-20201.16 -4182.81)" fill="#ccc" fill-rule="evenodd"/>
    <path id="Caminho_13964" data-name="Caminho 13964" d="M1858.7,464.771v.289a2.073,2.073,0,0,0,.866.433c.94-.892,1.59-3.724,1.587-3.751-.338-.639-.082-.383-.722-.722-.9.477-.748.581-1.1,1.641A11.742,11.742,0,0,0,1858.7,464.771Z" transform="translate(-19861.512 -3744.474)" fill="#ccc" fill-rule="evenodd"/>
    <path id="Caminho_13965" data-name="Caminho 13965" d="M1858.7,876.843c0,.331.049.168.144.577.717.172.986.542,1.644-1.386.709-2.079.749-1.674.52-2.653-.793-.19-1.015-.5-1.641,1.388C1859.249,875.124,1858.7,876.646,1858.7,876.843Z" transform="translate(-19861.512 -4132.31)" fill="#ccc" fill-rule="evenodd"/>
    <path id="Caminho_13966" data-name="Caminho 13966" d="M2151.41,381.84l.191.242c.017.019.042.062.063.081.824.8,1.3-.462,1.56-1.25.138-.418.141-.6.3-.994.413-1,.478-1.013.046-1.83-1.3,0-1.095.441-1.459,1.57-.218.675-.536,1.456-.705,2.181Z" transform="translate(-20136.908 -3666.449)" fill="#ccc" fill-rule="evenodd"/>
    <path id="Caminho_13967" data-name="Caminho 13967" d="M2119.7,247.256c.023.026.053.035.063.081l.279.3a.92.92,0,0,0,.524.2c.359,0,2.308-2.985,2.308-3.462,0-.117-.721-1.216-1.508-.065-.26.38-.339.6-.6.989a5.487,5.487,0,0,0-1.069,1.961Z" transform="translate(-20107.076 -3540.088)" fill="#ccc" fill-rule="evenodd"/>
    <path id="Caminho_13968" data-name="Caminho 13968" d="M1626.97,675.644v.866c1.072.567,1.254.085,3.466-1.006,1.279-.63.961-2.326-1.738-.728Z" transform="translate(-19643.486 -3944.96)" fill="#ccc" fill-rule="evenodd"/>
    <path id="Caminho_13969" data-name="Caminho 13969" d="M1978.22,378.657c0,.793.405.833,1.445,1.44,2.494,1.457,2.249.723,2.594,0-.022-.026-.055-.1-.064-.079s-.052-.063-.066-.079-.047-.061-.064-.08l-.464-.4a10.009,10.009,0,0,0-2.948-1.38c-.108.161-.433.485-.433.577Z" transform="translate(-19973.961 -3666.44)" fill="#ccc" fill-rule="evenodd"/>
    <path id="Caminho_13970" data-name="Caminho 13970" d="M2046.5,859.187a.866.866,0,0,0,.523.919c.367.218.58.354.917.526a8.523,8.523,0,0,0,2.022.863l.158-.13c.97-.931.126-1.182-1.073-1.841a7.392,7.392,0,0,0-.913-.531c-.4-.167-.711-.218-1.059-.384l-.577.577Z" transform="translate(-20038.205 -4118.549)" fill="#ccc" fill-rule="evenodd"/>
    <path id="Caminho_13971" data-name="Caminho 13971" d="M2234.34,488.427a5.675,5.675,0,0,0,2.83,1.935c.693.245.64.242,1.209-.059v-.866a8.053,8.053,0,0,0-3.606-1.587Z" transform="translate(-20214.936 -3769.717)" fill="#ccc" fill-rule="evenodd"/>
    <path id="Caminho_13972" data-name="Caminho 13972" d="M2263.61,344.981c.459.867.251.494,1.539,1.2.925.509,1.169.817,2.212.817.591-1.117.255-1.1-1.059-1.826a6.329,6.329,0,0,0-1.772-.84C2263.78,344.137,2263.833,344.516,2263.61,344.981Z" transform="translate(-20242.475 -3634.639)" fill="#ccc" fill-rule="evenodd"/>
    <path id="Caminho_13973" data-name="Caminho 13973" d="M1795.271,786.569v.866c2.414,1.277,3.9,2.6,3.9.577-.282-.189-.581-.4-.87-.573l-1.932-.962a.891.891,0,0,0-1.094.092Z" transform="translate(-19801.832 -4050.547)" fill="#ccc" fill-rule="evenodd"/>
    <path id="Caminho_13974" data-name="Caminho 13974" d="M2248.98,742.241c.25.473.115.407.571.727.681.479,3.469,2.3,3.469.571l-3.174-2.02c-.542,0-.676.363-.866.721Z" transform="translate(-20228.709 -4008.384)" fill="#ccc" fill-rule="evenodd"/>
    <path id="Caminho_13975" data-name="Caminho 13975" d="M1643.977,778.055c.623,0,1.01.146,1.01-.721a2.161,2.161,0,0,0-.406-1.325C1643.913,775.339,1642.572,775.957,1643.977,778.055Z" transform="translate(-19658.906 -4040.591)" fill="#ccc" fill-rule="evenodd"/>
    <path id="Caminho_13976" data-name="Caminho 13976" d="M861.05,462.174a1.482,1.482,0,0,0,1.4-.189c.705-.331.773-.25.622-.965C861.989,461.11,861.125,461.271,861.05,462.174Z" transform="translate(-18922.867 -3744.474)" fill="#ccc" fill-rule="evenodd"/>
    <path id="Caminho_13977" data-name="Caminho 13977" d="M931.79,503.346c0,.778.928.331,1.4.1.518-.251.6-.264.619-.968C933.135,502.48,931.79,502.844,931.79,503.346Z" transform="translate(-18989.422 -3783.482)" fill="#ccc" fill-rule="evenodd"/>
    <path id="Caminho_13978" data-name="Caminho 13978" d="M1102.54,376.726c2.505,0,2.849-2.145.637-.95A1.235,1.235,0,0,0,1102.54,376.726Z" transform="translate(-19150.074 -3663.932)" fill="#ccc" fill-rule="evenodd"/>
    <path id="Caminho_13979" data-name="Caminho 13979" d="M1187.91,464.067c.268,1,1.614.767,2.308.433A1.669,1.669,0,0,0,1187.91,464.067Z" transform="translate(-19230.396 -3747.089)" fill="#ccc" fill-rule="evenodd"/>
    <path id="Caminho_13980" data-name="Caminho 13980" d="M797.63,553.663c.619,1.17,1.219.831,2.308.577C799.643,553.136,798.382,553.585,797.63,553.663Z" transform="translate(-18863.197 -3831.491)" fill="#ccc" fill-rule="evenodd"/>
    <path id="Caminho_13981" data-name="Caminho 13981" d="M1256.21,405.5c.839.2,1.914.215,2.164-.722C1258.013,404.574,1256.3,404.359,1256.21,405.5Z" transform="translate(-19294.654 -3691.405)" fill="#ccc" fill-rule="evenodd"/>
    <path id="Caminho_13982" data-name="Caminho 13982" d="M1056.19,512.574c.936.627,2.164.2,2.164-.577A1.732,1.732,0,0,0,1056.19,512.574Z" transform="translate(-19106.463 -3792.277)" fill="#ccc" fill-rule="evenodd"/>
    <path id="Caminho_13983" data-name="Caminho 13983" d="M939.11,386.8a2.138,2.138,0,0,0,1.685-.046c.491-.2.435-.149.479-.675C940.435,385.881,939.36,385.868,939.11,386.8Z" transform="translate(-18996.311 -3673.865)" fill="#ccc" fill-rule="evenodd"/>
    <path id="Caminho_13984" data-name="Caminho 13984" d="M1019.6,441.962c.458.01,1.867.392,2.164-.722C1021.443,441.06,1019.88,440.762,1019.6,441.962Z" transform="translate(-19072.041 -3725.704)" fill="#ccc" fill-rule="evenodd"/>
  </g>
</svg>
