<svg id="Camada_x0020_1" xmlns="http://www.w3.org/2000/svg" width="170.148" height="64.743" viewBox="0 0 170.148 64.743">
  <path id="Caminho_10707" data-name="Caminho 10707" d="M3219.98,111.585a13.144,13.144,0,0,1-3.508-.48,11.916,11.916,0,0,1-3.306-1.489,12.4,12.4,0,0,1-4.24-4.569,12.68,12.68,0,0,1-1.514-6.133h8.53a3.712,3.712,0,0,0,.657,2.348,4.759,4.759,0,0,0,1.161,1.135,3.808,3.808,0,0,0,1.968.656,4.465,4.465,0,0,0,2.069-.4,3.362,3.362,0,0,0,1.136-.758,4.128,4.128,0,0,0,.657-.884,2.446,2.446,0,0,0,.277-.832,4.229,4.229,0,0,0,0-1.313,2.707,2.707,0,0,0-.277-.858,3.438,3.438,0,0,0-.657-.884,4.342,4.342,0,0,0-1.136-.782,10.96,10.96,0,0,0-1.186-.454q-.631-.2-1.337-.454-1.264-.405-2.625-.91a14.729,14.729,0,0,1-2.727-1.362,10.655,10.655,0,0,1-2.979-2.778A11.057,11.057,0,0,1,3209.2,86.8a11.176,11.176,0,0,1-.353-3.963,10.456,10.456,0,0,1,1.135-3.912,11.128,11.128,0,0,1,2.271-2.979,10.784,10.784,0,0,1,6.613-2.876,11.782,11.782,0,0,1,3.887.353,11.26,11.26,0,0,1,3.466,1.438,10.848,10.848,0,0,1,2.684,2.373,10.01,10.01,0,0,1,1.733,3.1,10.665,10.665,0,0,1,.606,3.584h-8.489a1.748,1.748,0,0,0-.732-1.615,5.053,5.053,0,0,0-1.287-.606,3.5,3.5,0,0,1-.48-.075,2.409,2.409,0,0,0-.858,0,3.013,3.013,0,0,0-.985.353,1.974,1.974,0,0,0-.808.883,2.268,2.268,0,0,0-.152,1.692,2.4,2.4,0,0,0,1.01,1.387,10.975,10.975,0,0,0,1.564.732q.858.328,1.817.632.858.252,1.743.555c.588.2,1.177.438,1.783.707a11.881,11.881,0,0,1,7.075,10.953,11.714,11.714,0,0,1-1.886,6.462,12.536,12.536,0,0,1-7.857,5.326,13.621,13.621,0,0,1-2.726.278Z" transform="translate(-3071.828 -69.946)" fill="#fff"/>
  <path id="Caminho_10708" data-name="Caminho 10708" d="M2263.01,87.041a18.714,18.714,0,0,1,2.995.405,3.58,3.58,0,0,0,3.394,3.468l.133,0c0,2.314.622,3.846,1.76,3.846a2.746,2.746,0,0,0,1.824-1.047c.667,1.471,1.573,2.376,2.572,2.376a2.3,2.3,0,0,0,1.723-.971,19.528,19.528,0,0,1,1.979,3.637,18.3,18.3,0,0,1,1.389,7.117,17.919,17.919,0,0,1-1.363,6.991,18.29,18.29,0,0,1-3.76,5.729,18.587,18.587,0,0,1-5.628,3.963,19.042,19.042,0,0,1-7.017,1.692h-8.53V86.99h8.53v.051Zm1.911,14.627a3.075,3.075,0,0,1,2.279,2.69c-.782,0-4.218-.815-4.883-.815.289-1.246,2.154-.986,2.311-1.026.343-.086.121-.107.455-.2a.931.931,0,0,0-.163-.652Zm2.233-2.283h.142l.554.082c0,1.133-.521,1.455-.732,2.364a3.847,3.847,0,0,1,1.058,2.772c.431.009.606.187.651.445v.334c-.04.322-.169.694-.244,1.014l-.814.082a12.241,12.241,0,0,1-.54,1.9c-.354,1.207-1.448,4.811-1.82,5.514l-2.855-.482c-.463-.092-.919-.177-1.376-.252-.437-.072-.946-.208-1.383-.245,0-.679,0-1.359,0-2.039,0-.717.082-1.184.082-1.956,0-1.41.082-2.545.082-3.913-.431-.01-.607-.187-.651-.445v-.334c.04-.322.169-.694.245-1.014a2.551,2.551,0,0,1,.813-.082,3.151,3.151,0,0,1,1.383-1.876,4.1,4.1,0,0,1,4.558-.081,5.948,5.948,0,0,1,.85-1.794Z" transform="translate(-2159.179 -83.313)" fill="#fff"/>
  <path id="Caminho_10709" data-name="Caminho 10709" d="M22.362,106.372H8.53v5.6H19.485v8.532H8.53v14.386H0V97.84H22.362Z" transform="translate(0 -93.704)" fill="#fff"/>
  <g id="_1931372768816" transform="translate(161.077 0)">
    <path id="Caminho_10710" data-name="Caminho 10710" d="M3813.953,2.377l.013-.031A3.751,3.751,0,0,0,3811,3.5c-1.386.155.389-3.8,3.625-3.484a1.226,1.226,0,1,1-.668,2.358Z" transform="translate(-3810.521 0)" fill="#fff"/>
  </g>
  <path id="Caminho_10711" data-name="Caminho 10711" d="M3822.427,27.343c-1.258-.356-4,1.592-3.291,2.3" transform="translate(-3657.583 -26.146)" fill="none"/>
  <g id="_1931372771312" transform="translate(164.676 3.49)">
    <path id="Caminho_10712" data-name="Caminho 10712" d="M3899.416,85.3c-2.376-1.461-1.674-.822-3.756-1.636,1.308-1.628,2.87-1.092,4.737-.611a1.226,1.226,0,0,1-.981,2.246Z" transform="translate(-3895.66 -82.567)" fill="#fff"/>
  </g>
  <path id="Caminho_10713" data-name="Caminho 10713" d="M3899.906,102.642c-1.581-.69-2.543-1.1-4.246-.513" transform="translate(-3730.984 -97.543)" fill="none"/>
  <g id="_1931372774352" transform="translate(163.03 6.966)">
    <path id="Caminho_10714" data-name="Caminho 10714" d="M3859.856,167.528a14.03,14.03,0,0,1-3.126-2.594c2.907-.169,1.491-.317,4.252.417a1.226,1.226,0,1,1-1.126,2.177Z" transform="translate(-3856.73 -164.796)" fill="#fff"/>
  </g>
  <path id="Caminho_10715" data-name="Caminho 10715" d="M3860.41,169.575a23.77,23.77,0,0,0-3.689-1.505" transform="translate(-3693.691 -160.965)" fill="none"/>
  <g id="Grupo_4087" data-name="Grupo 4087" transform="translate(80.148 49.743)">
    <text id="machine" transform="translate(0 11)" fill="#fff" stroke="#fff" stroke-linecap="round" stroke-linejoin="round" stroke-width="1" font-size="14" font-family="ROCKETWILDNESS"><tspan x="0" y="0">machine</tspan></text>
  </g>
  <g id="_1931378527424" transform="translate(60.002 3.332)">
    <path id="Caminho_10716" data-name="Caminho 10716" d="M1420.492,95.482c1.95-.065,3.051,2.952,5.4,3.791a5.115,5.115,0,0,0,5.165-1.094,9.989,9.989,0,0,1,1.271-1.033,7.816,7.816,0,0,0,.135,2.372,6.336,6.336,0,0,0,11.222,2.276,7.086,7.086,0,0,0,.521-.829c.564-1.071.073-.656.87-1.143,1.6-.976,2.425-2.6,4.717-2.482,3.5.178,3.45,3.591,6.783,4.069a15.977,15.977,0,0,1-1.074,3.633,18.3,18.3,0,0,1-34.382-1.674,18.659,18.659,0,0,1-.632-7.886Zm17.78-2.923a5.452,5.452,0,1,1-5.1,5.8,5.453,5.453,0,0,1,5.1-5.8Zm-4.847-8.491a4.691,4.691,0,0,0,3.525-1.124,4.746,4.746,0,0,0,1.621-3.233,18.341,18.341,0,0,1,8.258,1.938,18.433,18.433,0,0,1,9.1,10.427,18.467,18.467,0,0,1,.814,8.44,3.32,3.32,0,0,1-1.663-.691,8.369,8.369,0,0,1-1.153-1.129,6.236,6.236,0,0,0-2.623-1.983,5.09,5.09,0,0,0-3.811.22c-1.172.587-2.1,1.713-2.587,1.917a6.458,6.458,0,0,0-.924-4.221,6.351,6.351,0,0,0-11.211.93c-.272.672-.162.242-1.061.922-1.306.985-2.3,2.291-4.319,2.174a4.136,4.136,0,0,1-2.073-.664c-1.536-1.047-2.2-3.048-4.668-3.4l.066-.375c.3,0,.823.163,1.252.175a4.681,4.681,0,0,0,4.823-4.643,8.581,8.581,0,0,0,1.373.436,4.682,4.682,0,0,0,5.271-3.167,4.83,4.83,0,0,0-.01-2.944Zm-1.2-.519a4.86,4.86,0,0,1,.546,1.831,3.808,3.808,0,0,1-5.509,3.585c-.321-.163-.5-.345-.755-.5a.428.428,0,0,0-.682.406,9.433,9.433,0,0,1,.074,1.1,3.815,3.815,0,0,1-4.9,3.367c-.946-.287-.955-.35-1.215,1a19.32,19.32,0,0,0,.9,10.477,19.188,19.188,0,1,0,21.129-25.724,19.589,19.589,0,0,0-3.549-.267c-.47.006-.57.16-.582.66A3.813,3.813,0,0,1,1434,83.2c-.785.02-1.9-.509-1.771.35Z" transform="translate(-1419.449 -78.823)" fill="#fff"/>
    <path id="Caminho_10717" data-name="Caminho 10717" d="M1505.46,701.367c-.307.12-.339.411-.177.719a18.672,18.672,0,0,0,1.807,2.828l.718.842a17.006,17.006,0,0,0,4.033,3.328c.275.167,1.148.761,1.506.619a.453.453,0,0,0,.144-.688l-1.992-1.193a16.75,16.75,0,0,1-5.389-6.062c-.108-.224-.254-.551-.651-.393Z" transform="translate(-1501.562 -675.011)" fill="#fff"/>
    <path id="Caminho_10718" data-name="Caminho 10718" d="M1803.9,847.212c-.523.186-1.152.51-1.669.758-.253.123-.646.228-.735.485-.132.386.181.677.579.563.164-.049.638-.3.826-.385.416-.2,1.467-.6,1.556-.878A.42.42,0,0,0,1803.9,847.212Z" transform="translate(-1785.313 -814.701)" fill="#fff"/>
    <path id="Caminho_10719" data-name="Caminho 10719" d="M2143.887,688.818c-.556.217-1.071.5-1.624.751-.266.123-.659.214-.741.494a.437.437,0,0,0,.586.548c.206-.069.585-.265.794-.364.384-.186,1.477-.617,1.57-.866a.426.426,0,0,0-.584-.563Z" transform="translate(-2110.977 -662.994)" fill="#fff"/>
    <path id="Caminho_10720" data-name="Caminho 10720" d="M1565.653,456.932c-.551.217-1.075.5-1.626.751-.257.119-.663.233-.743.492a.438.438,0,0,0,.589.552c.222-.077.567-.264.793-.368.292-.132,1.477-.617,1.57-.866a.427.427,0,0,0-.583-.561Z" transform="translate(-1557.18 -440.91)" fill="#fff"/>
    <path id="Caminho_10721" data-name="Caminho 10721" d="M2149.759,383.853c-.556.207-1.111.518-1.662.762-.272.121-.653.235-.731.493a.436.436,0,0,0,.575.553l1.647-.769c.216-.1.657-.231.741-.483a.429.429,0,0,0-.569-.557Z" transform="translate(-2116.573 -370.927)" fill="#fff"/>
    <path id="Caminho_10722" data-name="Caminho 10722" d="M1471.922,559.872a14.351,14.351,0,0,0-1.485.711c-.244.118-.55.206-.615.47a.432.432,0,0,0,.554.536c.194-.043,1.221-.593,1.474-.717.237-.115.545-.208.6-.482A.43.43,0,0,0,1471.922,559.872Z" transform="translate(-1467.677 -539.526)" fill="#fff"/>
    <path id="Caminho_10723" data-name="Caminho 10723" d="M2007.146,790.236c-.268.119-.242.241-.383.646-.085.244-.522,1.467-.523,1.624a.426.426,0,0,0,.6.4c.347-.119.51-1.032.654-1.445a4.471,4.471,0,0,0,.253-.852.409.409,0,0,0-.6-.376Z" transform="translate(-1981.435 -760.121)" fill="#fff"/>
    <path id="Caminho_10724" data-name="Caminho 10724" d="M1680.559,370c-.263.117-.246.268-.378.648-.094.274-.18.539-.273.807a4.471,4.471,0,0,0-.249.818.433.433,0,0,0,.6.4c.337-.116.908-2.212.908-2.3a.413.413,0,0,0-.609-.379Z" transform="translate(-1668.661 -357.65)" fill="#fff"/>
    <path id="Caminho_10725" data-name="Caminho 10725" d="M1680.81,741.287c-.3.126-.3.322-.411.663a13.059,13.059,0,0,0-.515,1.641.433.433,0,0,0,.591.376c.3-.1.51-1.006.669-1.471a3.81,3.81,0,0,0,.248-.841.4.4,0,0,0-.582-.37Z" transform="translate(-1668.875 -713.245)" fill="#fff"/>
    <path id="Caminho_10726" data-name="Caminho 10726" d="M1917.822,172.733c-.229.109-.277.279-.493.621-.154.243-.29.439-.435.671a2.571,2.571,0,0,0-.387.713.434.434,0,0,0,.633.434,10.326,10.326,0,0,0,1.3-2.024A.419.419,0,0,0,1917.822,172.733Z" transform="translate(-1895.494 -168.717)" fill="#fff"/>
    <path id="Caminho_10727" data-name="Caminho 10727" d="M1945.868,293.437c-.309.091-.321.3-.435.645l-.53,1.635a.426.426,0,0,0,.565.439c.314-.079.523-.976.687-1.46a4.877,4.877,0,0,0,.253-.829A.416.416,0,0,0,1945.868,293.437Z" transform="translate(-1922.691 -284.346)" fill="#fff"/>
    <path id="Caminho_10728" data-name="Caminho 10728" d="M2020.7,392.165a.434.434,0,0,0-.275.687c.042.062,1.82,1.138,2.164,1.034a.453.453,0,0,0,.218-.672,2.44,2.44,0,0,0-.662-.4C2021.86,392.666,2020.994,392.1,2020.7,392.165Z" transform="translate(-1994.936 -378.915)" fill="#fff"/>
    <path id="Caminho_10729" data-name="Caminho 10729" d="M1787.688,294.8a.425.425,0,0,0-.232.648c.118.188.476.314.685.426.281.151,1.183.725,1.477.633a.45.45,0,0,0,.229-.658,2.521,2.521,0,0,0-.681-.428c-.263-.145-1.194-.735-1.478-.621Z" transform="translate(-1771.827 -285.659)" fill="#fff"/>
    <path id="Caminho_10730" data-name="Caminho 10730" d="M2033.571,622.737a.437.437,0,0,0-.227.665,6.736,6.736,0,0,0,2.153,1.047.444.444,0,0,0,.2-.708,13.075,13.075,0,0,0-1.367-.76c-.228-.12-.484-.342-.76-.245Z" transform="translate(-2007.318 -599.722)" fill="#fff"/>
    <path id="Caminho_10731" data-name="Caminho 10731" d="M2046.632,263.284a.346.346,0,0,0-.258.286c-.107.47.324.552.763.791.294.161,1.161.735,1.492.609a.459.459,0,0,0,.146-.711s-1.792-1.123-2.143-.975Z" transform="translate(-2019.857 -255.474)" fill="#fff"/>
    <path id="Caminho_10732" data-name="Caminho 10732" d="M1849.633,729.186a.422.422,0,0,0-.177.692c.052.057,1.807,1.13,2.14,1.006a.448.448,0,0,0,.186-.684c-.069-.083-1.847-1.153-2.15-1.014Z" transform="translate(-1831.164 -701.682)" fill="#fff"/>
    <path id="Caminho_10733" data-name="Caminho 10733" d="M1621.689,662.312a.45.45,0,0,0-.157.7l1.373.758c.211.112.514.344.786.227a.454.454,0,0,0,.152-.7c-.025-.028-1.811-1.145-2.155-.989Z" transform="translate(-1612.885 -637.632)" fill="#fff"/>
    <path id="Caminho_10734" data-name="Caminho 10734" d="M1485.091,653.588c-.415.144-.334.423-.177.843.109.3.228.68.681.518.342-.121.264-.517.143-.84s-.211-.671-.647-.521Z" transform="translate(-1482.024 -629.259)" fill="#fff"/>
  </g>
  <path id="Caminho_10735" data-name="Caminho 10735" d="M2927.05,92.386l8.507-.626,1.244,16.915-8.507.626Z" transform="translate(-2803.319 -87.881)" fill="#fff"/>
  <path id="Caminho_10736" data-name="Caminho 10736" d="M2.892,1295.075c3.385.8,5.054,3.89,8.712,5.056,5.043,1.417,7.84-.471,11.662-3.337,8.74-6.554,15.161,9.243,23.676,2.861,13.167-9.135,9.987-1.836,18.663.955,9.206,2.964,10.231-4.9,17.067-4.843l-.011-2.79a20.686,20.686,0,0,0-2.636.288,8.321,8.321,0,0,0-2.641,1.05c-14.166,9.605-10.559-.487-20.977-1.542-8.587-.87-11.305,9.793-19.933,3.277-3.013-2.276-4.616-3.8-8.69-3.642-4.039.153-5.829,2.017-9.071,4.338-7.141,4.225-9.642-4.318-17.626-4.644l-.026,2.739,1.832.236Z" transform="translate(-1.015 -1237.481)" fill="#fff"/>
  <path id="Caminho_10737" data-name="Caminho 10737" d="M504.151,61.16A20.434,20.434,0,1,1,483.4,81.592,20.593,20.593,0,0,1,504.151,61.16ZM490.287,81.977a.945.945,0,0,0,1.126.72l24.644-4.641a.919.919,0,1,0-.4-1.79l-24.531,4.619A.981.981,0,0,0,490.287,81.977Zm12.125,11.175c3.495-.658,7.769-1.339,11.111-2.265a8.834,8.834,0,0,0,2.6-1.215,4.214,4.214,0,0,0,1.721-3.973c-.017-.148-.062-.3-.078-.446-.02-.18.011-.212-.022-.407l-11.928,2.246a19.863,19.863,0,0,0-6.288,2.225,7.439,7.439,0,0,0-.964.665c-.15.133-.279.222-.41.358s-.247.279-.377.429a2.131,2.131,0,0,0-.32.419,2.717,2.717,0,0,1-.272.5,6.014,6.014,0,0,0-2.622-2.478c-2.737.515-2.237.237-2.068,1.089a4.141,4.141,0,0,0,3.325,3.244,18.961,18.961,0,0,0,6.593-.393Zm-12-7.412c.213,1.131.275,2.311,1.415,2.881a2.337,2.337,0,0,0,1.435.273l.8-.171c.238-.045.321-.018.464-.041l.661-.171c.238-.045.32-.018.464-.041l.662-.171c.238-.045.321-.018.464-.041l.662-.171c.238-.045.32-.018.464-.041l.662-.171c.238-.045.321-.018.464-.041l.661-.171c.238-.045.32-.018.464-.041l.662-.171c.237-.045.321-.018.464-.041l.662-.171c.238-.045.32-.018.464-.041l.661-.171c.238-.045.32-.018.464-.041l.662-.171c.238-.045.32-.018.464-.041l.661-.171c.238-.045.32-.018.464-.041l.662-.171c.238-.045.32-.018.464-.041l.662-.171c.237-.045.32-.018.464-.041l.662-.171c.238-.045.321-.018.464-.041l.661-.171c.238-.045.32-.018.464-.041l.661-.171c.238-.045.321-.018.464-.041l.661-.171c.238-.045.32-.018.464-.041l.661-.171c.238-.045.321-.018.464-.041l.662-.171c.237-.045.32-.018.464-.041l.662-.171a4.55,4.55,0,0,0,.6-.077c.629-.2,1.013-.1,1.644-.743,1.039-1.05.637-2.137.387-3.462a2.519,2.519,0,0,0-1.133-1.428,4.024,4.024,0,0,0-2.814-.042c-.205.038-.628.993-1.033,1.452-.148.168-.254.294-.394.467-1.121,1.376-2.738,2.574-4.485,1.425-.547-.36-1.611-1.285-2.13-1.188-1.433.27-.867.746-1.695.9a1.648,1.648,0,0,1-.984-.354c-.17-.118-.266-.144-.42-.246-.37-.246-.273-.308-.45-.274l-9.79,1.843a2.792,2.792,0,0,0-1.818.916,2.376,2.376,0,0,0-.515,1.854Zm12.949-9.2c-.075-.4,1.285-.6,1.35-.254C504.783,76.659,503.433,76.913,503.363,76.543Zm-9.9,1.281c.431-.19,1.223-.253,1.446.252C494.47,78.4,493.62,78.3,493.467,77.824Zm14.861-3.381c1.018-.449,1.771.249,1.287.34a1.7,1.7,0,0,1-.891.012A.475.475,0,0,1,508.327,74.443Zm-9.4,2.062a.334.334,0,0,1-.37-.105c.03-.409.715-.672,1.276-.648.077.465-.513.679-.907.754Zm12-4.009c.033-.443.989-.664,1.386-.377C512.159,72.63,511.183,72.73,510.932,72.5Zm-8.388.938a.92.92,0,0,1,.774.087c-.033.447-1.016.536-1.385.377C501.956,73.6,502.185,73.5,502.545,73.434Zm-6.136,1.447c-1.007.189-.573-.722.749-.665.047.282-.024.32-.221.438a2.47,2.47,0,0,1-.528.228Zm8.716-3.215c-.051-.5.863-.812,1.266-.7.032.309-.2.445-.452.574A1.012,1.012,0,0,1,505.125,71.667Zm-6.288.019a1.189,1.189,0,0,1,1.407-.265c-.036.482-1.122.474-1.193.455C498.815,71.813,498.935,71.809,498.837,71.686Zm-8.082,8.746,25.094-4.726c.215-.041.1-.143.042-.412a7.316,7.316,0,0,0-3.542-4.3A15.724,15.724,0,0,0,501.7,69.573a16.292,16.292,0,0,0-9.115,4.854,8.976,8.976,0,0,0-1.73,2.937,6,6,0,0,0-.289,2.748c.017.174-.035.361.187.32Z" transform="translate(-462.966 -58.575)" fill="#fff"/>
</svg>
