<svg id="_1977107360736" xmlns="http://www.w3.org/2000/svg" width="19.125" height="20.49" viewBox="0 0 19.125 20.49">
  <path id="Caminho_5110" data-name="Caminho 5110" d="M13.336,9.545a6.342,6.342,0,0,1,1.143.138,5.063,5.063,0,0,1,3.3,2.461,5.421,5.421,0,0,1,.632,1.929c.011.107,0,.209.005.315a2.4,2.4,0,0,1-.011.87,5.114,5.114,0,0,1-8.684,3.022,4.631,4.631,0,0,1-.583-.7c-.092-.136-.17-.25-.251-.39a5.461,5.461,0,0,1-.632-1.929c-.011-.106,0-.208-.008-.312a1.293,1.293,0,0,1,0-.565c.008-.1,0-.207.008-.312a5.045,5.045,0,0,1,.1-.542,5.117,5.117,0,0,1,4.978-3.986ZM8.654,11.266c-.434-.1-4.35-.04-5.122-.04-.587,0-.59.68-.08.721H8.174a1.856,1.856,0,0,1-.126.314l-.437,1.4c-.077.425.073.323-1.118.323H3.731c-.417,0-.64-.045-.64.36a.3.3,0,0,0,.32.32H7.533v.68H3.411c-.226,0-.32.145-.32.36,0,.416.468.32.88.32H7.693a5.4,5.4,0,0,0,.68,1.681H.73V1.341H12.976V8.785c0,.154-.127.115-.271.129-.088.009-.273.026-.393.047a5.945,5.945,0,0,0-1.284.4,5.833,5.833,0,0,0-1.564,1,4.892,4.892,0,0,0-.81.911ZM4.292.661H.329A.273.273,0,0,0,.123.734.464.464,0,0,0,.01.941V18.149c0,.329.542.281.68.28H8.414c.877,0,.351.015,1.223.7a5.669,5.669,0,0,0,3.979,1.343,5.759,5.759,0,0,0,5.355-4.409,5.86,5.86,0,0,0-.941-4.807,6.035,6.035,0,0,0-2.5-1.944,5.9,5.9,0,0,0-1.144-.336c-.8-.153-.692.169-.692-.789V2.261c0-1.825.233-1.6-1.361-1.6H9.374c.186-.162.2-.095.2-.36a.3.3,0,0,0-.32-.32H4.372a.353.353,0,0,0-.227.5c.084.166.043.034.147.176Z" transform="translate(-0.01 0.02)" fill="#177b81"/>
  <path id="Caminho_5111" data-name="Caminho 5111" d="M123.7,286.23c0,.189,0,.44.44.44h7.924c.759,0,.6-.72.16-.72H124.06C123.9,285.95,123.7,286.085,123.7,286.23Z" transform="translate(-120.619 -278.826)" fill="#177b81"/>
  <path id="Caminho_5112" data-name="Caminho 5112" d="M123.7,122.45c0,.215.094.36.32.36H131.9c.408,0,.581-.72-.2-.72h-7.4C123.983,122.09,123.7,122.133,123.7,122.45Z" transform="translate(-120.619 -119.048)" fill="#177b81"/>
  <path id="Caminho_5113" data-name="Caminho 5113" d="M123.7,342.49c0,.253.084.4.52.4h6.2c.6,0,.59-.72.04-.72h-6.4a.327.327,0,0,0-.36.32Z" transform="translate(-120.619 -333.646)" fill="#177b81"/>
  <path id="Caminho_5114" data-name="Caminho 5114" d="M520.49,411.376v4c0,.351.173.44.52.44h1.8c.633,0,.517-.72.08-.72H521.21a35.843,35.843,0,0,0-.067-3.935.359.359,0,0,0-.654.213Z" transform="translate(-507.524 -400.771)" fill="#177b81"/>
  <path id="Caminho_5115" data-name="Caminho 5115" d="M123.7,178.64c0,.214.094.36.32.36H128.5a.341.341,0,0,0,0-.68H124.02A.3.3,0,0,0,123.7,178.64Z" transform="translate(-120.619 -173.877)" fill="#177b81"/>
  <path id="Caminho_5116" data-name="Caminho 5116" d="M123.7,397.08c0,.241.033.44.44.44a34.463,34.463,0,0,0,3.855-.067c.226-.133.265-.653-.293-.653H124.06c-.165,0-.36.135-.36.28Z" transform="translate(-120.619 -386.915)" fill="#177b81"/>
  <path id="Caminho_5117" data-name="Caminho 5117" d="M123.7,506.31c0,.182.037.44.28.44h3.482c.4,0,.605-.72-.2-.72H124.22c-.224,0-.52.078-.52.28Z" transform="translate(-120.619 -493.424)" fill="#177b81"/>
  <path id="Caminho_5118" data-name="Caminho 5118" d="M126.6,233.61h3.6c.3,0,.374-.68-.08-.68h-3.441c-.489,0-.375.68-.08.68Z" transform="translate(-123.203 -227.127)" fill="#177b81"/>
  <path id="Caminho_5119" data-name="Caminho 5119" d="M54.62,122.48c0,.389.472.32.72.32.4,0,.541-.72-.2-.72-.3,0-.52.1-.52.4Z" transform="translate(-53.26 -119.038)" fill="#177b81"/>
  <path id="Caminho_5120" data-name="Caminho 5120" d="M54.62,451.77c0,.531,1.04.437,1.04.08,0-.267-.035-.44-.52-.44C54.852,451.41,54.62,451.485,54.62,451.77Z" transform="translate(-53.26 -440.164)" fill="#177b81"/>
  <path id="Caminho_5121" data-name="Caminho 5121" d="M54.62,341.852c0,.5,1.04.5,1.04,0C55.66,341.337,54.62,341.36,54.62,341.852Z" transform="translate(-53.26 -332.967)" fill="#177b81"/>
  <path id="Caminho_5122" data-name="Caminho 5122" d="M54.62,562.4c0,.444.441.36.72.36a.341.341,0,0,0,0-.68C55.074,562.076,54.62,562.008,54.62,562.4Z" transform="translate(-53.26 -548.069)" fill="#177b81"/>
  <path id="Caminho_5123" data-name="Caminho 5123" d="M54.62,233.073c0,.436.4.36.72.36a.341.341,0,0,0,0-.68C55.092,232.753,54.62,232.684,54.62,233.073Z" transform="translate(-53.26 -226.95)" fill="#177b81"/>
</svg>
