<svg id="Camada_x0020_1" xmlns="http://www.w3.org/2000/svg" width="9.368" height="15.038" viewBox="0 0 9.368 15.038">
  <g id="_1671184741072">
    <path id="Caminho_11828" data-name="Caminho 11828" d="M.508,2.775l8.324,0V13.04H6.413l-.011.5,2.432,0-.019.962H.521L.507,3.07V2.775ZM.123,14.931c.256.149,8.839.149,9.093,0,.011-.012.028-.048.031-.038.088.254.088-1.349.088-1.417q0-.793,0-1.585c0-.946.057-9.272-.025-9.44C9.042,2.12,8.179,2.27,7.7,2.27H5.841q-1.882,0-3.764,0A1.707,1.707,0,0,1,2.7,2l1.93-.619A22.267,22.267,0,0,1,7.2.6V1.868l.506-.007L7.69.01C7.225-.094,2.327,1.6,1.209,1.954-.178,2.395,0,2.068,0,3.621,0,3.8-.056,14.572.039,14.81c.055.136.019.052.083.122Z" transform="translate(0.014 -0.005)" fill="#177b81"/>
    <path id="Caminho_11829" data-name="Caminho 11829" d="M103.774,211.541c-1.783.218-2.532,2.163-2.118,2.6.195.206,1.306.114,1.638.114.586,0,1.172,0,1.758,0,0-.554,0-.465-.237-.508l-2.726.007a1.969,1.969,0,0,1,3.9-.074c-.325.205-.327-.094-.329.548a1.447,1.447,0,0,0,.767-.035c.394-.309-.25-2.5-2.12-2.644l-.02-.4c-.627-.016-.494-.011-.509.386Z" transform="translate(-99.3 -206.483)" fill="#177b81"/>
    <path id="Caminho_11830" data-name="Caminho 11830" d="M91.43,370.624l5.433.008.012-.469-5.44-.032Z" transform="translate(-89.408 -361.947)" fill="#177b81"/>
    <path id="Caminho_11831" data-name="Caminho 11831" d="M214.325,590.074h1.063l.01-.5H214.32Z" transform="translate(-209.582 -576.536)" fill="#177b81"/>
  </g>
</svg>
