<svg id="_2422296701200" xmlns="http://www.w3.org/2000/svg" width="24.848" height="13.371" viewBox="0 0 24.848 13.371">
  <path id="Caminho_3912" data-name="Caminho 3912" d="M6463.564,737.777a3.183,3.183,0,0,0-1.793.178,4.417,4.417,0,0,0-1.191.908,4.653,4.653,0,0,0-1.288,2.984,1.425,1.425,0,0,0,.413,1.067c.564.552,1.781.265,2.248-.055a3.585,3.585,0,0,0,.42-.324c.26-.243.2-.368.374-.341-.006.291-.229.65-.214.906.329.034,1.3.013,1.7.012.327,0,.173-.179.333-.831l.8-3.857c.089-.331.115-.656.2-1,.076-.306.134-.635.2-.959a8.124,8.124,0,0,0,.193-1.018l-1.875,0c-.068.192-.181.894-.25,1.16a11.775,11.775,0,0,1-.263,1.166Z" transform="translate(-6441.104 -735.436)" fill="#177b81"/>
  <path id="Caminho_3913" data-name="Caminho 3913" d="M6031.7,900.344a.311.311,0,0,1-.069.026l-.071.018a3.413,3.413,0,0,0-.918.349,4.448,4.448,0,0,0-.825.61,4.148,4.148,0,0,0-1.081,1.8,1.926,1.926,0,0,0,.452,2.182,2.87,2.87,0,0,0,2.288.455,3.733,3.733,0,0,0,2.244-1.36l.114-.137a.227.227,0,0,0,.047-.063,4.261,4.261,0,0,0,.592-1.207,1.948,1.948,0,0,0-.438-2.2,2.435,2.435,0,0,0-1-.442A4.541,4.541,0,0,0,6031.7,900.344Z" transform="translate(-6016.244 -898.053)" fill="#177b81"/>
  <path id="Caminho_3914" data-name="Caminho 3914" d="M5591.924,899.623c-.127.02-.2.013-.328.042s-.159.049-.27.076a2.317,2.317,0,0,0-.543.184,3.632,3.632,0,0,0-.881.559,3.959,3.959,0,0,0-1.41,2.951,1.641,1.641,0,0,0,1.171,1.528,3.408,3.408,0,0,0,1.461.173,3.689,3.689,0,0,0,1.99-.886,4.045,4.045,0,0,0,.356-.362,3.772,3.772,0,0,0,.83-1.354,2.156,2.156,0,0,0-.209-2.25A2.626,2.626,0,0,0,5591.924,899.623Z" transform="translate(-5582.113 -897.354)" fill="#177b81"/>
  <path id="Caminho_3915" data-name="Caminho 3915" d="M5314.281,736.808l-.654.008a6.573,6.573,0,0,0-.192,1.081l.605,0a6.148,6.148,0,0,1-.2,1.056c-.174,1.062-.44,2.142-.629,3.235-.034.2-.1.486-.149.7a4.987,4.987,0,0,0-.134.718c.409.032,1.438.015,1.881.006.042-.254.1-.459.148-.709l.288-1.485c.115-.442.333-1.634.452-2.194l.221-1.108c.066-.334-.018-.23,1.181-.236l.239,0a2.836,2.836,0,0,0,.126-.534l.084-.419c.012-.111.022-.057-.021-.1a9.031,9.031,0,0,0-1.351-.031,2.092,2.092,0,0,1,.229-.845c.215-.334.483-.353.859-.352.85,0,.877.21,1.107.179a8.4,8.4,0,0,0,.186-1.093,4,4,0,0,0-1.374-.217,2.8,2.8,0,0,0-1.92.7,3.067,3.067,0,0,0-.982,1.643Z" transform="translate(-5310.287 -734.459)" fill="#177b81"/>
  <path id="Caminho_3916" data-name="Caminho 3916" d="M5549.939,1408.974a4.442,4.442,0,0,1-.908.716,7.6,7.6,0,0,1-1.115.544c-.2.069-.384.129-.592.209a7.262,7.262,0,0,1-2.2.243,4.844,4.844,0,0,1-3.178-1.73,4.6,4.6,0,0,1-.489-.753c-.07-.146-.045-.206-.215-.2a5.026,5.026,0,0,0,.494,1.465,5.185,5.185,0,0,0,1.906,2.02,4.442,4.442,0,0,0,1.4.566,7.3,7.3,0,0,0,4.891-.745,6.5,6.5,0,0,0,.9-.592c.085-.069.193-.185.3-.183.046.123.074.237.116.364s.089.244.139.385l.2.583a.746.746,0,0,0,.037.1c.032.06.01.044.063.072l.763-3.8c.074-.348.019-.262-.9-.262h-.94c-.6,0-1.3-.035-1.879,0,.066.172,1.13.794,1.211.994Z" transform="translate(-5535.502 -1398.83)" fill="#177b81"/>
  <path id="Caminho_3917" data-name="Caminho 3917" d="M5118.2,912.387l1.881,0,.527-2.664c.063-.368.54-2.435.5-2.653l-1.513,0c-.4,0-.339-.2-.544.994-.051.3-.128.558-.175.876-.037.254-.118.581-.174.849l-.335,1.746C5118.335,911.643,5118.192,912.316,5118.2,912.387Z" transform="translate(-5118.197 -904.719)" fill="#177b81"/>
  <path id="Caminho_3918" data-name="Caminho 3918" d="M5209.1,735.959a13.2,13.2,0,0,0,1.841-.024c.1-.061.139-.5.181-.73a4.663,4.663,0,0,0,.14-.774l-1.863-.011A12.881,12.881,0,0,0,5209.1,735.959Z" transform="translate(-5207.872 -734.42)" fill="#177b81"/>
</svg>
