<svg id="Camada_x0020_1" xmlns="http://www.w3.org/2000/svg" width="13.658" height="13.679" viewBox="0 0 13.658 13.679">
  <path id="Caminho_11859" data-name="Caminho 11859" d="M175.4,41.036c.2-.062,1.1-.138,1.255.021s.083,1.051.024,1.284l-1.312,0,.033-1.3Zm-.19-.649c-.4.15-.52.273-.538.813a4.774,4.774,0,0,0,.051,1.355c.288.8,2.064.469,2.185.428.749-.255.472-2.005.416-2.159-.277-.773-1.91-.513-2.115-.437Z" transform="translate(-165.788 -38.24)" fill="#177b81"/>
  <path id="Caminho_11860" data-name="Caminho 11860" d="M40.954,42.663c-.062-.2-.138-1.1.021-1.255s1.051-.083,1.284-.024l0,1.312-1.3-.033Zm-.171-1.917c-.376.153-.515.274-.541.807-.051,1.072-.113,1.806.875,1.839.93.031,1.815.19,1.841-.886.024-1,.183-1.786-.888-1.83a3.613,3.613,0,0,0-1.288.07Z" transform="translate(-38.178 -38.592)" fill="#177b81"/>
  <path id="Caminho_11861" data-name="Caminho 11861" d="M42.74,176.07a4.039,4.039,0,0,1-.033,1.3,2.529,2.529,0,0,1-1.251-.024,2.674,2.674,0,0,1-.028-1.281l1.312,0Zm-2.02.263c0,1.755,0,1.751,1.75,1.751,1.118,0,.962-.714.962-1.751,0-1.117-.8-.962-1.761-.962C40.98,175.371,40.72,175.632,40.72,176.333Z" transform="translate(-38.654 -166.469)" fill="#177b81"/>
  <path id="Caminho_11862" data-name="Caminho 11862" d="M.081,3.358C1.288,3.784.221,1.8,1,1.022S3.762,1.311,3.336.1A3.6,3.6,0,0,0,.511.533,1.757,1.757,0,0,0,.022,1.723,5.816,5.816,0,0,0,.08,3.358Z" transform="translate(0.006 0.003)" fill="#177b81"/>
  <path id="Caminho_11863" data-name="Caminho 11863" d="M202.318,205.966c3.01.394,3.528-.572,3.271-3.256-1.228-.422-.153,1.556-.935,2.338s-2.762-.29-2.336.919Z" transform="translate(-191.999 -192.372)" fill="#177b81"/>
  <path id="Caminho_11864" data-name="Caminho 11864" d="M205.409,3.853c.2-1.506.187-3.316-1.841-3.316-.861,0-1.53-.146-1.479.372.068.686,1.492-.043,2.242.474,1.091.752-.207,2.924,1.078,2.47Z" transform="translate(-191.835 -0.492)" fill="#177b81"/>
  <path id="Caminho_11865" data-name="Caminho 11865" d="M.491,202.826c0,2.138.1,2.981,2.846,2.846l.471-.047c.445-1.28-1.672-.042-2.441-1.051-.541-.71.132-2.123-.44-2.273-.422-.111-.437.188-.437.524Z" transform="translate(-0.465 -192.017)" fill="#177b81"/>
  <path id="Caminho_11866" data-name="Caminho 11866" d="M161.544,203.029a1.585,1.585,0,0,0,.087.748,12.663,12.663,0,0,0,3.222-.029c.07-.18.3-1.292-.281-1.255-.375.024-.293.3-.31.663l-.68-.006c-.022-.513.047-.7-.557-.635a1.04,1.04,0,0,0-.138.644l-.674-.008a1.258,1.258,0,0,0-.122-.616l-.429-.031a1,1,0,0,0-.119.523Z" transform="translate(-153.347 -192.221)" fill="#177b81"/>
  <path id="Caminho_11867" data-name="Caminho 11867" d="M107.729,95.241h.84c.006,1.211-.009.429-.545.764-.241.151-.2.592.359.592l1.476-.057c.173-.54-.107-.6-.618-.609l0-.69c.537,0,.791-.019.623-.591a9.732,9.732,0,0,0-2.15-.073c-.769,0-.674.664.018.664Z" transform="translate(-101.734 -89.759)" fill="#177b81"/>
  <path id="Caminho_11868" data-name="Caminho 11868" d="M109.637,149.081l.584.083,0,.67a8.365,8.365,0,0,0-1.956.081c-.137.411-.026.6.451.6a14.806,14.806,0,0,0,2.1-.059,4.548,4.548,0,0,0,.009-1.906l-.732-.075c-.512,0-.629.149-.461.611Z" transform="translate(-102.723 -140.939)" fill="#177b81"/>
  <path id="Caminho_11869" data-name="Caminho 11869" d="M108.233,41.489a10.739,10.739,0,0,0,1.954.079,4.112,4.112,0,0,0,.059,1.181c.172.335.626.231.626-.327a5.349,5.349,0,0,0-.081-1.459,11.231,11.231,0,0,0-2.113-.074C108.183,40.889,108.087,41.067,108.233,41.489Z" transform="translate(-102.684 -38.804)" fill="#177b81"/>
  <path id="Caminho_11870" data-name="Caminho 11870" d="M176.392,162.637l-.646,0c-.034-.336.037-.579-.244-.654-.512-.138-.442.472-.442.819,0,.57.242.567,1.47.506l.464-.046a1.229,1.229,0,0,0,.089-.645l.629-.052.031-.523a1.764,1.764,0,0,0-.778-.088c-.6,0-.5.16-.573.687Z" transform="translate(-166.176 -153.733)" fill="#177b81"/>
  <path id="Caminho_11871" data-name="Caminho 11871" d="M107.857,202.62a1.831,1.831,0,0,0,.081.732c.629.187.542-.189.6-.368.086-.291-.125-.1.137-.247a2.929,2.929,0,0,0,1.172-.1l.016-.47a4.4,4.4,0,0,0-1.478-.1c-.486,0-.523.056-.523.548Z" transform="translate(-102.384 -191.812)" fill="#177b81"/>
  <path id="Caminho_11872" data-name="Caminho 11872" d="M202.831,109.117c-.337.023-.625-.053-.664.291-.046.405.319.379.643.392.043.323,0,.584.282.656.559.145.412-.793.412-1.488,0-.3-.047-.532-.366-.512-.348.022-.3.323-.306.66Z" transform="translate(-191.908 -102.954)" fill="#177b81"/>
  <path id="Caminho_11873" data-name="Caminho 11873" d="M68.478,108.623c.027.691,0,.668.876.668a.785.785,0,0,0,.42-.109l.045-.445a1.522,1.522,0,0,0-.665-.132l-.051-.593c-.366-.065-1.34-.259-1.285.3.033.343.32.3.659.309Z" transform="translate(-64.376 -102.452)" fill="#177b81"/>
  <path id="Caminho_11874" data-name="Caminho 11874" d="M41.33,148.8a5.328,5.328,0,0,0,1.459.081c.687,0,.7-.677,0-.677-1.054,0-1.682-.157-1.459.6Z" transform="translate(-39.19 -140.676)" fill="#177b81"/>
  <path id="Caminho_11875" data-name="Caminho 11875" d="M175.12,108.362v1.017c0,.638.669.733.669-.073v-.944c0-.688-.669-.768-.669,0Z" transform="translate(-166.237 -102.347)" fill="#177b81"/>
  <path id="Caminho_11876" data-name="Caminho 11876" d="M108.012,68.443h.291c.514,0,.616-.154.468-.613l-.466-.08-.293.014C107.238,67.764,107.338,68.443,108.012,68.443Z" transform="translate(-102.017 -64.313)" fill="#177b81"/>
  <path id="Caminho_11877" data-name="Caminho 11877" d="M94.671,149.044a2.346,2.346,0,0,0,1.2-.019c.192-.667-.255-.6-.8-.6-.492,0-.547.2-.4.615Z" transform="translate(-89.8 -140.898)" fill="#177b81"/>
  <path id="Caminho_11878" data-name="Caminho 11878" d="M40.72,109.063c0,1.32.671.88.671.363a2.159,2.159,0,0,0-.071-.809c-.422-.147-.6-.05-.6.446Z" transform="translate(-38.654 -103.048)" fill="#177b81"/>
</svg>
