<svg id="Camada_x0020_1" xmlns="http://www.w3.org/2000/svg" width="13.785" height="11.319" viewBox="0 0 13.785 11.319">
  <g id="_1671340894576">
    <path id="Caminho_11839" data-name="Caminho 11839" d="M3.554,2.361c0,.281.189.271.382.221a3.531,3.531,0,0,0,.507-.113V7.638c0,.362-.033.538.269.538a.2.2,0,0,0,.13-.086,12.459,12.459,0,0,0,.032-1.664V.611a3.651,3.651,0,0,1,.512.242l.5.251L8.678,2.514c.079.039.233.084.233.171v6l-.269-.032c-.161-.016-.5.463.269.463v1a.209.209,0,0,0,.387.118,2.081,2.081,0,0,0,.043-.71,1.611,1.611,0,0,1,.019-.466c.026-.073.065-.084.052-.17-.021-.138-.054-.049-.07-.2V2.658L12.331,1.9l.5-.124a3.151,3.151,0,0,1,.528-.118V9.873a2.033,2.033,0,0,0-.436.1c-1.059.29-2.371.593-3.446.862-.472.118-.232.129-1.125-.318l-3.584-1.8a.745.745,0,0,0-.428.053L3.9,8.877c-.154.038-3.3.858-3.473.862V1.527l1-.242,1.012-.253c.677-.169,1.334-.345,2-.5V2.119c-.158-.076-.888.017-.888.242ZM0,1.365v8.669c0,.384.584.13.824.07.217-.054.383-.1.6-.156l3.037-.76c.256-.068.214-.035.558.137.182.09.31.169.494.26L8.059,10.86c1.283.641.77.588,2.269.214l2.988-.754c.232-.058.468-.06.468-.285V1.365c0-.358-.484-.155-.673-.108l-3.635.915c-.52.13-.355.065-1.2-.359L4.864.109C4.656,0,4.682.018,4.448.078L.339,1.112C.167,1.155,0,1.163,0,1.365Z" transform="translate(0 -0.031)" fill="#177b81"/>
    <path id="Caminho_11840" data-name="Caminho 11840" d="M2143.268,1328.353l.14-.156c.351.23.4.635.8.23a1.617,1.617,0,0,0,.223-.236l.2.182c-.106.073-.426.368-.427.49,0,.191.295.366.393.512l-.14.156c-.218-.143-.286-.4-.56-.4-.088,0-.362.34-.458.4l-.168-.156c.079-.114.41-.377.41-.49C2143.672,1328.674,2143.369,1328.505,2143.268,1328.353Zm-.538,0c0,.182.312.374.4.512-.264.394-.654.357-.181.828.094.092.2.218.3.3.159.13.255.085.377-.04a2.262,2.262,0,0,0,.289-.3c.526.353.313.723.962.074.085-.085.249-.2.249-.343,0-.182-.312-.374-.4-.512.149-.223.4-.282.4-.539,0-.06-.473-.646-.7-.646-.182,0-.373.311-.512.4-.075-.111-.345-.4-.485-.4-.167,0-.24.146-.4.3-.074.075-.3.26-.3.37Z" transform="translate(-2132.364 -1321.258)" fill="#177b81"/>
    <path id="Caminho_11841" data-name="Caminho 11841" d="M1271.145,566.051c.067,0,.356-.1.085-.462-.07-.095-.307-.4-.435-.4a.232.232,0,0,0-.229.177c-.029.118.062.21.127.274C1270.906,565.851,1270.967,566.051,1271.145,566.051Z" transform="translate(-1264.414 -562.456)" fill="#177b81"/>
    <path id="Caminho_11842" data-name="Caminho 11842" d="M389.57,771.847a.218.218,0,0,0,.215.215c.2,0,.22-.159.266-.3s.324-.642-.077-.642c-.184,0-.206.162-.262.3a3.562,3.562,0,0,0-.142.423Z" transform="translate(-387.685 -767.39)" fill="#177b81"/>
    <path id="Caminho_11843" data-name="Caminho 11843" d="M1411.955,1100.459c.314,0,.245-.236.277-.477.041-.312.061-.492-.25-.492-.178,0-.186.358-.189.484S1411.734,1100.459,1411.955,1100.459Z" transform="translate(-1404.955 -1094.171)" fill="#177b81"/>
    <path id="Caminho_11844" data-name="Caminho 11844" d="M512.03,535.009a.249.249,0,0,0,.215.242c.157,0,.276-.234.37-.33s.314-.263.164-.445C512.516,534.159,512.03,534.964,512.03,535.009Z" transform="translate(-509.553 -531.817)" fill="#177b81"/>
    <path id="Caminho_11845" data-name="Caminho 11845" d="M1408.08,809.88a6.407,6.407,0,0,0,.083.671c.059.133.4.272.4-.159C1408.564,809.367,1408.08,809.719,1408.08,809.88Z" transform="translate(-1401.268 -805.773)" fill="#177b81"/>
    <path id="Caminho_11846" data-name="Caminho 11846" d="M1018.49,442.911c0,.23.072.233.293.3s.65.285.65-.084c0-.266-.653-.377-.781-.377A.207.207,0,0,0,1018.49,442.911Z" transform="translate(-1013.563 -440.608)" fill="#177b81"/>
    <path id="Caminho_11847" data-name="Caminho 11847" d="M1406.08,1384.289c.387,0,.24-.256.215-.644-.01-.147-.061-.325-.215-.325-.27,0-.229.235-.215.458.011.171.053.511.215.511Z" transform="translate(-1399.053 -1376.628)" fill="#177b81"/>
    <path id="Caminho_11848" data-name="Caminho 11848" d="M1501.265,1649.154c.288,0,.365-.239.108-.431l-.21-.194c-.342-.38-.643-.025-.364.256C1500.873,1648.859,1501.167,1649.154,1501.265,1649.154Z" transform="translate(-1493.431 -1640.389)" fill="#177b81"/>
    <path id="Caminho_11849" data-name="Caminho 11849" d="M2029.012,1746.583c.181,0,.511-.084.511-.3,0-.4-.573-.119-.628-.062A.218.218,0,0,0,2029.012,1746.583Z" transform="translate(-2019.023 -1737.63)" fill="#177b81"/>
    <path id="Caminho_11850" data-name="Caminho 11850" d="M345.06,1043.506c0,.15.458.429.458-.323C345.518,1042.949,345.06,1042.725,345.06,1043.506Z" transform="translate(-343.391 -1037.918)" fill="#177b81"/>
  </g>
</svg>
