<svg id="Grupo_4227" data-name="Grupo 4227" xmlns="http://www.w3.org/2000/svg" width="12.767" height="16.284" viewBox="0 0 12.767 16.284">
  <path id="Caminho_271" data-name="Caminho 271" d="M309.641,2242.941H321.5v15.371H309.641Zm-.521,15.762h12.767v-16.284H309.12Z" transform="translate(-309.12 -2242.419)" fill="#177b81"/>
  <path id="Caminho_272" data-name="Caminho 272" d="M324.6,2262.182c.128.477.137.273.391.65a8.842,8.842,0,0,1-1.3,1.433c-.315,0-1.239-.96-1.539-1.2-.149-.118-.395-.263-.546-.366a8.549,8.549,0,0,0-1.564,1.695c-.364-.244-.67-.529-1.018-.8l-1.066-.759a4.433,4.433,0,0,1-.749.945,2.151,2.151,0,0,0-.683,1.01l.375.28a2.2,2.2,0,0,0,.615-.593c.244-.33.383-.445.573-.729.362.244.67.528,1.018.8l1.066.759a7.137,7.137,0,0,1,1.564-1.693c.023.019.06.019.07.059l2.015,1.634,1.694-2.085c.482.127.168.132.652.261v-1.563c-.65.013-.914.246-1.564.261Z" transform="translate(-315.088 -2258.145)" fill="#177b81"/>
  <path id="Caminho_273" data-name="Caminho 273" d="M350.943,2290.162l-.387-.525c-.248-.431-.006-.232-.395-.516a1.435,1.435,0,1,0,.782-.262Z" transform="translate(-341.695 -2279.871)" fill="#177b81"/>
  <path id="Caminho_274" data-name="Caminho 274" d="M317.2,2311.72h4.819v-.65H317.2Z" transform="translate(-315.636 -2297.783)" fill="#177b81"/>
  <path id="Caminho_275" data-name="Caminho 275" d="M317.2,2317.1h4.819v-.652H317.2Z" transform="translate(-315.636 -2302.122)" fill="#177b81"/>
  <path id="Caminho_276" data-name="Caminho 276" d="M337.065,2289.026c0,.318-.288.521.261.521h.652v-3.387h-.912v2.866Z" transform="translate(-331.595 -2277.695)" fill="#177b81"/>
  <path id="Caminho_277" data-name="Caminho 277" d="M323.93,2292.266h.912v-2.736h-.912Z" transform="translate(-321.064 -2280.412)" fill="#177b81"/>
  <path id="Caminho_278" data-name="Caminho 278" d="M329.31,2254.641h3v-.782h-3C329.428,2254.368,329.428,2254.13,329.31,2254.641Z" transform="translate(-325.402 -2251.645)" fill="#177b81"/>
  <path id="Caminho_279" data-name="Caminho 279" d="M348.83,2311.72h3.517v-.65H348.83Z" transform="translate(-341.144 -2297.783)" fill="#177b81"/>
  <path id="Caminho_280" data-name="Caminho 280" d="M348.83,2317.1h3.517v-.652H348.83Z" transform="translate(-341.144 -2302.122)" fill="#177b81"/>
  <path id="Caminho_281" data-name="Caminho 281" d="M330.65,2294.435h.914v-2.217h-.914Z" transform="translate(-326.483 -2282.58)" fill="#177b81"/>
  <path id="Caminho_282" data-name="Caminho 282" d="M317.2,2252.472h1.432v-1.3H317.2Z" transform="translate(-315.636 -2249.476)" fill="#177b81"/>
  <path id="Caminho_283" data-name="Caminho 283" d="M317.2,2294.631v1.432h.912v-1.824h-.521C317.291,2294.24,317.2,2294.33,317.2,2294.631Z" transform="translate(-315.636 -2284.21)" fill="#177b81"/>
  <path id="Caminho_284" data-name="Caminho 284" d="M329.31,2251.56h3v-.391h-3Z" transform="translate(-325.402 -2249.476)" fill="#177b81"/>
</svg>
