<svg id="Camada_x0020_1" xmlns="http://www.w3.org/2000/svg" width="13.092" height="13.804" viewBox="0 0 13.092 13.804">
  <g id="_1671347010912">
    <path id="Caminho_11851" data-name="Caminho 11851" d="M6.508.258V.716a6.533,6.533,0,0,0-2.073.354A6.728,6.728,0,0,0,1.943,2.624c-.085.084-.113.135-.188.216A6.26,6.26,0,0,0,.2,5.738,9.342,9.342,0,0,0,.01,7.163l.05.756a6.325,6.325,0,0,0,.5,1.932,4.478,4.478,0,0,0,.263.546l.307.5c.119.162.217.317.345.464a6.164,6.164,0,0,0,1.242,1.185,5.8,5.8,0,0,0,.487.323,6.373,6.373,0,0,0,3.12.925,6.33,6.33,0,0,0,2.4-.354,8.286,8.286,0,0,0,.8-.338,2.478,2.478,0,0,0,.358-.208A.425.425,0,0,0,10,12.732a.526.526,0,0,0-.5-.77,10.813,10.813,0,0,1-2.051.7,6.74,6.74,0,0,1-.834.084,6.516,6.516,0,0,1-1.6-.235A5.487,5.487,0,0,1,1.087,7.243a5.573,5.573,0,0,1,.47-2.2,5.266,5.266,0,0,1,.609-1.036A5.321,5.321,0,0,1,4.189,2.335a5,5,0,0,1,2.346-.54,3.22,3.22,0,0,0,.027.7.227.227,0,0,0,.248-.049c.067-.052.114-.1.188-.163l.758-.644c.138-.123.317-.208.317-.411,0-.169-.318-.386-.482-.516C7.517.654,7.467.608,7.4.554c-.47-.366-.89-.884-.89-.3Z" transform="translate(-0.01 0.008)" fill="#177b81"/>
    <path id="Caminho_11852" data-name="Caminho 11852" d="M1086.1,1116.648c0,.091.2.309.264.384l.615.733c.349.444.349.256.116.956-.027.083-.052.168-.089.262a1.88,1.88,0,0,0-.1.281,2.236,2.236,0,0,1-.415-.125l-2.875-.981c.033-.141.092-.288.138-.428.321-.964.226-.675,1.891-1.076.212-.051.216-.117.28-.313.2-.617.244-.382-.264-1.011-.06-.075-.106-.119-.162-.189-.1-.122-.563-.607-.563-.759a9.445,9.445,0,0,1,.378-1.267l1.628.556c.29.1.536.188.823.283.144.048.73.257.839.266a9.127,9.127,0,0,1-.3.914c-.138.422-.246.419-.723.518-.337.071-.662.15-1.016.224-.234.049-.249.089-.318.3C1086.223,1116.256,1086.1,1116.607,1086.1,1116.648Zm-1.4-3.83c0,.139.078.109.189.162a9.558,9.558,0,0,0-.4,1.429c0,.273.33.593.509.813.049.061.093.113.147.177l.45.548c-.084.36-.038.266-.69.415a6.265,6.265,0,0,0-.909.224.926.926,0,0,0-.514.591c-.093.273-.223.574-.286.847-.325-.156-.289.04-.436.455-.135.379.146.25,1.083.623l3.282,1.117c.258.077.237-.064.308-.278.16-.482.152-.4-.084-.516.03-.36.351-.791.351-1.321,0-.25-.341-.6-.507-.788l-.6-.723c.08-.341.127-.295.248-.318a4.685,4.685,0,0,0,1.582-.468l.055-.053a1.122,1.122,0,0,0,.269-.486l.3-.887c.319.153.292-.049.436-.455.028-.08.056-.115.023-.192-.053-.122.063-.027-.235-.143-.1-.038-.192-.067-.281-.1l-3.425-1.16c-.1-.033-.18-.056-.282-.1-.37-.143-.355-.164-.473.2A1.438,1.438,0,0,0,1084.695,1112.818Z" transform="translate(-1079.518 -1108.858)" fill="#177b81"/>
    <path id="Caminho_11853" data-name="Caminho 11853" d="M3979.319,1659.4c0,1.067.714,1.111.994.831.261-.262.15-.6.021-.929A.531.531,0,0,0,3979.319,1659.4Z" transform="translate(-3967.562 -1654.061)" fill="#177b81"/>
    <path id="Caminho_11854" data-name="Caminho 11854" d="M3655.08,1049.619a.566.566,0,0,0,.412-.155.533.533,0,0,0,.073-.654c-.113-.184-.369-.54-.592-.54a.5.5,0,0,0-.532.25c-.191.35,0,.582.229.862A.485.485,0,0,0,3655.08,1049.619Z" transform="translate(-3643.566 -1045.173)" fill="#177b81"/>
    <path id="Caminho_11855" data-name="Caminho 11855" d="M3888.04,3020.72v.135a.525.525,0,0,0,.987.205,1.354,1.354,0,0,0,.2-.637.529.529,0,0,0-.98-.226A2.846,2.846,0,0,0,3888.04,3020.72Z" transform="translate(-3876.552 -3011.015)" fill="#177b81"/>
    <path id="Caminho_11856" data-name="Caminho 11856" d="M3148.67,574.142c0,.37.223.46.507.653a.529.529,0,0,0,.842-.33.537.537,0,0,0-.318-.6.931.931,0,0,0-.491-.237.534.534,0,0,0-.54.512Z" transform="translate(-3139.367 -571.935)" fill="#177b81"/>
    <path id="Caminho_11857" data-name="Caminho 11857" d="M4064.833,2345.211a.565.565,0,0,0,.4-.223c.12-.145.1-.265.115-.506s.042-.289-.085-.481a.539.539,0,0,0-.864-.009C4064.283,2344.144,4064.056,2345.211,4064.833,2345.211Z" transform="translate(-4052.267 -2336.855)" fill="#177b81"/>
    <path id="Caminho_11858" data-name="Caminho 11858" d="M3495.539,3613.974a.5.5,0,0,0,.567.567,1.03,1.03,0,0,0,.728-.755.524.524,0,0,0-.594-.566A1.08,1.08,0,0,0,3495.539,3613.974Z" transform="translate(-3485.212 -3602.544)" fill="#177b81"/>
  </g>
</svg>
