<svg id="hj_2044961984480" xmlns="http://www.w3.org/2000/svg" width="17.367" height="17.75" viewBox="0 0 17.367 17.75">
  <path id="Caminho_251" data-name="Caminho 251" d="M344.344,1870.566a9.043,9.043,0,0,1-.165,1.265.965.965,0,0,1-.017.334,2.631,2.631,0,0,1-.1.743,1.591,1.591,0,0,1-.025.411,2.314,2.314,0,0,1-.087.644c.037.287-.227,1.99-.244,2.527a3.39,3.39,0,0,1,.411.314,3.234,3.234,0,0,0,.394.289l.293-3.812c.014-.083,0-.031.029-.089a.5.5,0,0,1-.006-.223l.27.012-.025.3c-.031.561-.4,5.732-.454,5.817a1.209,1.209,0,0,1-.008.328l-.041.6-.006.194a2.725,2.725,0,0,0,.739.022l.033.31a6.9,6.9,0,0,1,.1,1.084,2.939,2.939,0,0,1,.085.62,1.235,1.235,0,0,1,.023.369,2.646,2.646,0,0,1,.1.746.761.761,0,0,1,.014.289,3.739,3.739,0,0,1,.1.8l.031.262.07.013.712.023c-.031-.256-.006-1.879,0-2.28l.006-1.7c0-.126-.045-.431.037-.524l.293-.013v.318l0,.549,0,.568,0,.562,0,.528,0,1.964.074,0h.613l.05-.277.07-.552c.025-.095,0-.029.027-.063a1.844,1.844,0,0,1,.039-.506l.056-.475a.734.734,0,0,1,.014-.072c.017-.064.006-.035.027-.07a1.5,1.5,0,0,1,.037-.493c.017-.12.031-.243.043-.357a.887.887,0,0,1,.06-.314,5.082,5.082,0,0,1,.1-.969l.037-.338.553,0,.229,0,.008-.2a2.412,2.412,0,0,1-.091-.655,1.229,1.229,0,0,1-.023-.368,2.686,2.686,0,0,1-.1-.687l-.444-3.936-.064-.535-.062-.58-.035-.318.283,0-.008.167c.05.083.035.125.066.39.014.134.031.267.043.4a1.346,1.346,0,0,1,.031.442l.18,1.4c.052.458.1.916.155,1.373.058-.029.783-.657.8-.69.064-.151-.165-1.037-.138-1.3a2.649,2.649,0,0,1-.12-.741l-.153-1.1a5.293,5.293,0,0,1-.118-.942,2.712,2.712,0,0,1-.124-.748,1.289,1.289,0,0,1-.047-.467,3.6,3.6,0,0,1-.116-.677l-.06-.341-.085-.006-3.958,0-.359,0-.041.45Z" transform="translate(-334.695 -1867.012)" fill="#177b81"/>
  <path id="Caminho_252" data-name="Caminho 252" d="M307.164,1871.694a1.621,1.621,0,0,1,.074.541l-.262,0-.045-.539-.045-.568.233.013a1.341,1.341,0,0,1,.048.555Zm-3.4.094-.021.442-.258,0a3.125,3.125,0,0,1,.074-.839l0-.26.239.006-.031.648Zm-.626-3.355-.052.56a2.46,2.46,0,0,1-.079.659,1.552,1.552,0,0,1-.021.425,10.848,10.848,0,0,1-.14,1.323.487.487,0,0,1,0,.237l-.05.595-.471,0H300.1c-.064.021-.041,0-.043.1v.56c0,.072-.023.113.035.134l.628,0,0,1.54v7.66l10.153.008,0-.266c-.058-.081-.021-.208-.066-.313l-.138-.006h-8.92l-.39,0c-.076-.056-.029.035-.049-.108,0-.012,0-.119,0-.141,0-.093,0-.185,0-.28v-8.086l.467,0H309.1l.074-.71,0-.081h-.717l-.469,0-.056-.481a5.478,5.478,0,0,1-.105-.979c-.041-.064-.031-.068-.043-.163-.006-.058-.012-.115-.021-.175-.014-.112-.027-.215-.039-.328a1.453,1.453,0,0,1-.035-.448,2.315,2.315,0,0,1-.1-.669,1.367,1.367,0,0,1-.041-.487l-.07-.31h-2.36l-.558,0h-1.121l-.268,0-.025.244Z" transform="translate(-300.049 -1865.481)" fill="#177b81"/>
  <path id="Caminho_253" data-name="Caminho 253" d="M365.617,1888.458l.025.1.186,0h.572l.38.006v8.612l-.97,0h-1.755c-.114.064-.015.13-.093.244a.866.866,0,0,1-.031.341h3.438l0-9.2.741-.017-.006-.778h-2.575l.091.686Z" transform="translate(-350.74 -1881.018)" fill="#177b81"/>
  <path id="Caminho_254" data-name="Caminho 254" d="M351.6,1856.819a1.186,1.186,0,0,0,.169.572,1.069,1.069,0,0,0,.169.221l.171.171c.085.029.047,0,.1.073.109.014.3.109.5.14a1.97,1.97,0,0,0,.582-.075c.033-.037.2-.113.26-.153a1.251,1.251,0,0,0,.014-2.011,1.235,1.235,0,0,0-1.968,1.057Z" transform="translate(-340.956 -1855.425)" fill="#177b81"/>
  <path id="Caminho_255" data-name="Caminho 255" d="M320.015,1855.816l-.045.31a1.346,1.346,0,0,0,.223.808c.054.016.056.041.1.092.021.023.031.031.052.056s.021.022.029.039a1.994,1.994,0,0,0,.427.207l.091.022.087.035a4.091,4.091,0,0,0,.549-.09,1.159,1.159,0,0,0-.628-2.218,1.262,1.262,0,0,0-.541.271,1.365,1.365,0,0,0-.2.221,1.592,1.592,0,0,1-.149.25Z" transform="translate(-315.857 -1855.071)" fill="#177b81"/>
</svg>
