<svg xmlns="http://www.w3.org/2000/svg" xmlns:xlink="http://www.w3.org/1999/xlink" width="248.22" height="313.943" viewBox="0 0 248.22 313.943">
  <defs>
    <filter id="Caminho_13682">
      <feOffset dx="5" dy="-5" input="SourceAlpha"/>
      <feGaussianBlur stdDeviation="7.5" result="blur"/>
      <feFlood flood-opacity="0.161" result="color"/>
      <feComposite operator="out" in="SourceGraphic" in2="blur"/>
      <feComposite operator="in" in="color"/>
      <feComposite operator="in" in2="SourceGraphic"/>
    </filter>
    <clipPath id="clip-path">
      <path id="Caminho_13311" data-name="Caminho 13311" d="M100.457,5323.089A96.328,96.328,0,1,1,4.13,5419.418,96.329,96.329,0,0,1,100.457,5323.089Z" transform="translate(-4.13 -5323.089)"/>
    </clipPath>
  </defs>
  <g id="Grupo_4868" data-name="Grupo 4868" transform="translate(22703.031 2280.349)">
    <g data-type="innerShadowGroup">
      <path id="Caminho_13682-2" data-name="Caminho 13682" d="M100.457,5323.089A96.328,96.328,0,1,1,4.13,5419.418,96.329,96.329,0,0,1,100.457,5323.089Z" transform="translate(-22707.156 -7491.632)" fill="#fff"/>
      <g transform="matrix(1, 0, 0, 1, -22703.03, -2280.35)" filter="url(#Caminho_13682)">
        <path id="Caminho_13682-3" data-name="Caminho 13682" d="M100.457,5323.089A96.328,96.328,0,1,1,4.13,5419.418,96.329,96.329,0,0,1,100.457,5323.089Z" transform="translate(-4.13 -5211.28)" fill="#fff"/>
      </g>
    </g>
    <g id="Grupo_4866" data-name="Grupo 4866" transform="translate(-23112.619 -3405.715)">
      <g id="Grupo_4486" data-name="Grupo 4486" transform="translate(409.588 1237.169)" clip-path="url(#clip-path)">
        <g id="_2500120265568" transform="translate(44.143 116.398)">
          <path id="_1" data-name="1" d="M1982.845,10516.779l-.5,11.074c-.544,2.987.375,9.85-.434,11.145l4.839,29.892c6,1.922,9.666,9.106,10.273,15.254l-1.659,1.227c-2.283-.236-2.6-2.1-4.751-2.968.777,5.65,4.99,13,2.456,18.767-5.082,1.054-8.912-1.616-11.41-5.275a7.177,7.177,0,0,0-.505-.743c-.51-.627-.113-.122-.5-.483,0,4.585.388,10.15-.247,14.188-.509,3.247-.083,7.517-.065,10.889a26.9,26.9,0,0,1-.317,3.438c-.264,3.525.153,7.4.015,10.967-.056,1.4-.337,1.675-.329,3.429.011,2.4,0,4.806,0,7.2.005,2.71-.314,4.332-.314,7.2,0,5.191-.314,9.25-.313,14.4l-1.185,28.229a24.347,24.347,0,0,0-.055,3.389c-.042,2.984-.637,5.6-.637,10.629a42.615,42.615,0,0,1-.125,7.073c-.5,2.74-1.455,24.628-1.439,27.671a26.481,26.481,0,0,1-.317,3.436c-.088,1.18.062,2.576.015,3.77-.054,1.389-.331,1.456-.333,3.111l-1.236,31.937c0,1.162-.953,6.169.1,6.771.461.265,26.4.11,29.311.11a30.612,30.612,0,0,0,.3-3.456l3.328-40.482c.645-3.565.464-10.562,1.131-14.833.6-3.88.509-8.736,1.119-12.653l3.13-38.808c.649-4.167.96-17.646,1.7-22.4l2.1-19.494c.077-.694-.034-1.449.045-2.147l3.419-32.571c.11-1.589.273-2.356.314-3.75l1.5-14.47c.1-.687.023-1.154.068-1.812l.336-3.415a11.55,11.55,0,0,0,.294-1.9c.127-3.184.724-6.064.933-9.082.8-11.581.229-8.448,5.008-8.448,0,2.488.693,5.236.929,7.83.951,10.413,2.533,21.063,3.735,31.318.187,1.588.188,2.37.369,4.016l2.447,19.77c.317,2.692.651,5.368.939,7.828l.943,7.817c.59,5.345,1.09,10.678,1.833,15.7l1.948,17.766c.052.743-.053,1.354.066,2.123.156,1.016.212,2.721.434,3.947l.428,6.146c.047,1.37.238.98.326,2.181.4,5.521.615,11.061,1.227,16.3.385,3.3.354,9.649.836,12.307.492,2.715.835,11.063,1.062,14.278.088,1.239.227.626.317,1.871.05.689-.055,1.5,0,2.2.091,1.242.23.631.318,1.87.366,5.185,1.2,11.767,1.241,16.6.014,1.55.293,2.176.311,4.071.029,3.128.577,7.008.928,10.021l.323,6.251a10.146,10.146,0,0,0,.3,1.891l.938,14.4c.12,1.788,1.2,1.237,3.153,1.229h26.6l-.306-13.154c0-1.8-.332-2.355-.321-4.372.046-8.961-.977-17.351-.934-26.3.008-1.9-.323-2.271-.325-4.056l-.307-6.576c-.161-2.143.047-4.783-.245-6.644a33.545,33.545,0,0,1-.065-4.314c.011-2.015-.321-2.575-.321-4.373,0-6.026-.518-11.429-.607-17.545-.023-1.6-.336-2.13-.326-4.06l-.936-21.908c.01-1.927-.3-2.458-.327-4.056-.02-1.394.146-3.361-.01-4.683a27.406,27.406,0,0,1-.291-4.089l-.6-10.669a24.092,24.092,0,0,1-.022-2.479,27.628,27.628,0,0,0-.291-4.091c-.155-1.322.01-3.285-.011-4.687-.023-1.6-.336-2.129-.326-4.053l-.312-8.766c0-1.33.124-3.432-.022-4.671a28.018,28.018,0,0,1-.291-4.091l-.437-13.333c-.368-2.021-.028-4.281-.186-6.385-.09-1.192-.274-.816-.327-2.181-.052-1.345.142-3.074-.01-4.372l-1.219-21.629c-.023-1.592-.336-2.129-.326-4.053a36.64,36.64,0,0,0-.065-4.631l-2.727-35.768c-.08-.7.028-1.478-.021-2.171-.088-1.24-.227-.628-.317-1.87l-.623-10.813-.626,1.306c-8.2-1.234-31.687-.252-41.623-.252-13.837,0-27.462-.229-41.311.057Z" transform="translate(-1973.382 -10515.667)" fill="#191919"/>
        </g>
      </g>
      <path id="Caminho_13312" data-name="Caminho 13312" d="M1166.024,8004.311c.386.359-.012-.142.5.482a6.768,6.768,0,0,1,.506.746c2.5,3.655,6.328,6.329,11.41,5.275,2.534-5.771-1.679-13.118-2.456-18.771,2.147.865,2.468,2.731,4.751,2.968l1.66-1.229c-.608-6.146-4.275-13.33-10.273-15.251l-4.84-29.894a42.268,42.268,0,0,0-.708-4.929c-.251-1.468-.531-3.7-.782-5.165-.6-3.5-1.006-7.06-1.565-10.326-.809-4.726-3.115-16.892-2.395-21.018a83.189,83.189,0,0,1,1.941-9.952l6.948-28.73h1.138l-25.549-2.608c-.574,2.855-1.072,6.473-1.492,9.257-.5,3.286-.851,5.979-1.4,9.236-1,5.932-1.781,12.23-2.868,18.414-1.286,7.3.25,11.488,2.2,18.083l12.008,41.2c1.65,6.253,4.49,14.809,5.355,21.248C1161.4,7992.918,1160.557,7994.7,1166.024,8004.311Z" transform="translate(-705.021 -6571.738)" fill="#f1a295"/>
      <path id="Caminho_13313" data-name="Caminho 13313" d="M1224.492,7238.038l.242,3.617-73.055.085c.539-4.966.537-3.763,5.645-3.763l28.792,0c12.459-.006,26.054-.519,38.376.063Zm-105.349-11.219c-2.294.285-2.974-.174-4.694-.214a26.368,26.368,0,0,1-.814,4.823l-1.339,7.164c-.1,1.229.383,1.1,1.513,1.172a44.589,44.589,0,0,0,5.333.508l25.55,2.607h1.364c-.387,1.662-.69,3.492-.972,5.291a33.569,33.569,0,0,0-.906,5.477l80.391.008.238-11.23c.934-.565,17.738-4.423,19.831-4.722l2.191-.768a41.88,41.88,0,0,0-1.068-6.132c-.8-3.948-.342-4.725-3-4.414-6.345-.144-12.684,3.227-17.774,3.026l-.136-3.486-70.334.257a5.357,5.357,0,0,0-1.117,2.748C1141.977,7228.343,1130.643,7226.234,1119.142,7226.819Z" transform="translate(-677.854 -5946.104)" fill="#f2f1ee"/>
      <path id="Caminho_13314" data-name="Caminho 13314" d="M2382.9,2065.436c1.353-.779,2.353-1.588,3.641-2.23-.2,7.195-12.854,23-25.858,4.617-1.091-1.543-5.306-8.136-5.512-9.723a14.965,14.965,0,0,1,1.36,1.681c3.221,3.578,7.286,6.918,12.27,8.075A20.25,20.25,0,0,0,2382.9,2065.436Zm-11.674-19.419c4.156,2.341,9.246-.175,11.97,1.09-.845,1.983-13.668,2.734-15.031-3.026,1.968.384,1.606,1.116,3.061,1.935Zm-25.32-13.03c-2.056-1.042-2.982-.073-3.593-1.565,2.9-1.554,6.455,1.552,7.343,5.239-2.376-.7-.977-1.242-2.648-2.12-2.176,1.44-1.074,2.3-.705,4.672C2342.5,2039,2345.281,2034.588,2345.909,2032.988Zm-3.279,57.919a7.406,7.406,0,0,1,3.763,3.863l-19.412-.1c-1.579-.071-.928-.141-1.251.469,1.348-.415,19.311-.387,20.879-.011l6.815,3.425c9.624,3.625,26.517,5.511,36.033.984a11.307,11.307,0,0,0,3.25-2.067,11.7,11.7,0,0,0,1.252-1.266c.967-1.114.476-1.126,1.559-.985a3.152,3.152,0,0,0,.194-.888l.747-4.382c-3.816-2.546-5.321-2.416-8.765-4.069l-.313-19.4c0-7.13,1.385-4.134,4.282-9.176a29.2,29.2,0,0,0,2.254-4.318,42.7,42.7,0,0,0,1.419-5.155l1.4-5.45-.628-1.536c-3.09.117-3.21,2.79-8.624,1.122a11.582,11.582,0,0,1-6.214-4.335c-.713.553-.245-.159-.57.693l-.023,2.812c-.06,5.132-5.41,3.762-6.053,1.97,2.305-.437,2.714.848,4.868-.446l-.057-9.742c-.1-1.576-1.677-1.685-3-.888-.792.761-.782,4.587-3.446,7.215a9.181,9.181,0,0,1-7.191,3.158c-7.04.117-8.815-4.275-10.741-9.941-1.781-.091-4.179.25-5.707-.323l-.241-1.336c-.877-3.593-2.283-5.06-5.849-5.851-2.617.777-4.438,1.305-4.953,4.336-.674,3.966,1.986,8.96,4.242,11.925,1.432,1.882.425.874,2.357,2.337,2.019,1.531,3.427,1.332,5.867,1.332.527,6.336,1.584,4.326,1.565,9.071l0,26.611c.01,2-.317,2.815-.317,5-1.62.857-3.181,1.429-4.9,2.295-1.542.777-3.593,1.655-4.487,3.045Z" transform="translate(-1864.096 -861.712)" fill="#f1a295"/>
      <path id="Caminho_13315" data-name="Caminho 13315" d="M6006.747,7482.271c-2.091.3-18.894,4.156-19.83,4.723l-.237,11.229.119,3.7c-.827,0-2.731-.268-3.113.241l-.1.311,3.3,0-.086,11.266-3.213-.264.206.577,3.061.177-.187,3.528.1,11.412-2.243-.357a8.511,8.511,0,0,1,.313,1.111l1.854.086.022,3.382-.1.691c2.637,1.462,3.522,3.347,9.248,1.948,3.951-.961,10.65-4.179,14.326-6.018.922-.461,1.69-.862,2.706-1.362,1.054-.516,1.764-.706,2.822-1.248s1.75-.733,2.822-1.246c6.777-3.221,16.3-7.2,22.315-10.229.924-.465,1.9-.783,2.822-1.245l11.078-5.2c1.636-.657,4.005-2,6.122-2.016,6.148-.037,1.209-.463,6.17,1.364,3.888,1.431,11.38-1.245,12.779-2.291-.7-.708-7.222-3.117-8.665-3.705-3.212-1.306-5.757-1.933-8.067-4.01-.8-5.1,7.743-19.093,6.98-22.329-4.283-1.705-4.389,2.329-8.629,9.009-.409.646-.836,1.364-1.179,1.948a18.764,18.764,0,0,1-1.193,2.251,16.457,16.457,0,0,0-1.389,1.741,19.153,19.153,0,0,0-.959,2.171c-1.508,3.038-3.946,3.367-7.848,4.667l-24.332,7.592c-1.652.543-2.925,1.08-4.614,1.643-2.942.981-12.161,4.125-14.749,4.343,0-10.568,1.563-19.215,1.563-29.592Z" transform="translate(-5439.963 -6190.674)" fill="#f1a295"/>
      <path id="Caminho_13316" data-name="Caminho 13316" d="M3052.026,373.318c3.564.791,4.97,2.259,5.849,5.851l.741-.658c.063-.069.148-.189.222-.283,1.651-5.3,3.242-15.272,3.746-21.156,2.932.589,10.908,4.139,17.912,5.848a46.97,46.97,0,0,0,16.067,1.37,26.549,26.549,0,0,1,5.048-.6l1.489,6.862c-4.558-3.232.614-4.313-12.963-4.2l.1,4.422,4.174.058c.766-.191.524-.262.346.565,3.841-.321,6.389-1.458,9,.877,2.521.488,1.644,1.436,3.67,2.208l-.1.208.05-1.047.674.1-.619-.25c.257-3.128,1.265-6.335,1.551-9.373a11.37,11.37,0,0,0,.135-2.3c-.587-5.3,1.67-4.035,3.439-10.4a10.146,10.146,0,0,0,.262-4.89,13.044,13.044,0,0,0-4.222-7.046c-7.176-6.042-18.635-4.253-26.718-1.529l-8.566,2.7c-.225-.971-.4-.906-.625-1.878-6.529,0-13.321,5.717-13.457,11.893a22.422,22.422,0,0,0-6.492,5.4,12.43,12.43,0,0,0-1.436,2.632c-1.084,2.774-.3,7.888.234,10.929a19.653,19.653,0,0,1,.5,3.672Z" transform="translate(-2572.873 789.92)" fill="#191919"/>
      <path id="Caminho_13317" data-name="Caminho 13317" d="M1243.655,6521.923c-6.184.745-4.7-2.562-5.555,2.508-.46,2.722-.747,5.56-1.33,8.06,1.835,0,1.844-.223,2.817.63,3.08.847,13.819,1.154,17.927,1.459,5.765.43,12.369,1.2,18.009,1.281l.971-3.068,70.1-.046.054,3.38,18.44-3.521c0-3.678-.92-9.929-2.817-11.4-5.385-.225-9.874,2.473-15.335,2.64-.106-.17-.289.049-.507-1.474-.068-.471-.1-1.014-.143-1.488-2.265-.113-65.5-.411-67.73.14l-.47,2.637C1271.237,6525.183,1254.7,6520.644,1243.655,6521.923Z" transform="translate(-799.551 -5256.682)" fill="#f2f1ee"/>
      <path id="Caminho_13318" data-name="Caminho 13318" d="M1371.195,5822.379c-2.168.44-3.271-.151-5.321-.151a35.421,35.421,0,0,1-.862,5.4c-.955,4.791-.673,2.158-.39,5.556,1.561,0,3.441-.878,5.421.21a1.845,1.845,0,0,1,.525.4c1.736.505,30.06,2.528,32.782,2.45.4-1.548.515-2.942,1.33-3.2h49.76c3.858,0,13.414-.469,16.587.16l.367,3.008,14.029-3.048v-.921h1.251c-.392-1.687-.606-3.541-.96-5.3a28.25,28.25,0,0,0-1.543-5.086c-4.14-.572-8.889,2.034-12.726,1.9l-.316-2.721-67.356.151.274,3.125C1393.926,5823.863,1381.142,5821.3,1371.195,5822.379Z" transform="translate(-924.266 -4572.71)" fill="#f2f1ee"/>
      <path id="Caminho_13319" data-name="Caminho 13319" d="M1617.6,5130.882c-1.085-.143-.592-.13-1.56.984a11.657,11.657,0,0,1-1.253,1.266,11.276,11.276,0,0,1-3.249,2.065c-9.516,4.527-26.41,2.643-36.033-.983l-6.816-3.426c-1.568-.375-19.53-.4-20.879.013-3.547-.8-13.068,4.493-14.775,6.637l-3.063,4.449,3.664.1c.865.307.438.118.717.764,2.273.865,26,2.192,30.6,2.447l-.819-3.273,69.016.067.179,2.367c2.689.346,8-1.257,10.56-1.807.891-1.984-.37-2.69-1.934-4.675a20.761,20.761,0,0,0-7.036-5.482c-5.709-2.82-3.675-2.083-12.625-2.083C1619.934,5130.305,1619.489,5130.059,1617.6,5130.882Z" transform="translate(-1086.176 -3897.374)" fill="#f2f1ee"/>
      <path id="Caminho_13320" data-name="Caminho 13320" d="M2363.017,10037.778c13.848-.285,27.473-.057,41.31-.057,9.936,0,33.418-.978,41.623.252l.627-1.3-.1-10.159.1-.691c-8.142-.007-82.417-.338-83.829.067l-.475.308.435,5.632c.073.983-.079,2.155-.006,3.14A19.726,19.726,0,0,1,2363.017,10037.778Z" transform="translate(-1899.814 -8683.098)" fill="#f2f1ee"/>
      <path id="Caminho_13321" data-name="Caminho 13321" d="M2325.544,9334.621a19.527,19.527,0,0,0-.325,2.515l.325,8.459c8.787,0,80.465.44,82.622-.26l2.243.353-.1-11.407-84.763.341Z" transform="translate(-1863.6 -8007.193)" fill="#f2f1ee"/>
      <path id="Caminho_13322" data-name="Caminho 13322" d="M2462.343,8649.715l3.215.265.084-11.266-3.3-.006-58.836.006c-6.841,0-12.8-.312-19.4-.312-.619,1.169-2.5,10.028-2.5,11.578C2390.192,8649.979,2460.217,8650.415,2462.343,8649.715Z" transform="translate(-1918.713 -7326.92)" fill="#f2f1ee"/>
      <path id="Caminho_13323" data-name="Caminho 13323" d="M9698.4,7047.014l.96.188c.47-1.11.194-1.092.451-2.015l.782-1.659c-.988-2.447-.339-2.137.1-4.385-2.077-1.878-1.923-4.354,1.214-4.683a71.7,71.7,0,0,1,8.406.1c.374-1.255.213-.28.539-.736,1.129-2.047,4.905-12.207,4.708-14.713-1.5-1.895-4.852-2.853-7.42-3.767-8.945-3.188-8.215-5.224-11.2,1.669l-5.729,15.238c-.782,2.25-3.946,8.38-2.73,10.556.652,1.163,7.907,3.992,9.922,4.205Z" transform="translate(-9061.529 -5737.359)" fill="#f2f1ee"/>
      <path id="Caminho_13324" data-name="Caminho 13324" d="M1212.292,7052.5l-2.816,0c-.111,1.337-.595,2.326-.626,3.758,2.162,0,3.169-.217,4.695.526,11.5-.588,22.834,1.524,34.257,2.112a5.378,5.378,0,0,1,1.117-2.749l70.335-.256.136,3.486c5.09.2,11.429-3.169,17.773-3.026.4-.439.112-.646,1.565-1.032l-.823-3.176a1.674,1.674,0,0,0-.117-.152l-18.439,3.52-.055-3.383-70.1.049-.971,3.07c-5.64-.084-12.245-.854-18.008-1.285C1226.112,7053.655,1215.373,7053.347,1212.292,7052.5Z" transform="translate(-772.252 -5776.066)" fill="#191919"/>
      <path id="Caminho_13325" data-name="Caminho 13325" d="M1341.385,6349.979c-2.705.043-4.158-.3-6.572-.3a31.05,31.05,0,0,0-.313,3.754,14.352,14.352,0,0,1,3.591.159l1.1.542c11.043-1.275,27.582,3.261,34.425,1.735l.47-2.636c2.229-.551,65.466-.253,67.73-.141.044.475.076,1.017.143,1.488.219,1.523.4,1.3.508,1.475,5.461-.169,9.951-2.866,15.335-2.643v-3.733a6.377,6.377,0,0,1-1.565-.326l-14.029,3.044-.367-3.007c-3.173-.626-12.729-.159-16.587-.159H1375.5c-.815.253-.927,1.647-1.331,3.2C1371.445,6352.509,1343.121,6350.487,1341.385,6349.979Z" transform="translate(-895.09 -5088.896)" fill="#191919"/>
      <path id="Caminho_13326" data-name="Caminho 13326" d="M1466.087,5653.005l-5.008.086a11.69,11.69,0,0,0-.939,3.435l3.464.279c1.383.231.757-.342,1.23.5,9.946-1.078,22.731,1.484,32.854,1.938l-.274-3.123,67.355-.151.316,2.72c3.837.129,8.586-2.476,12.726-1.9-.212-.832-.242-1.7-.485-2.587-.318-1.159-.482-1.346-1.706-1.388-2.561.552-7.87,2.151-10.559,1.808l-.179-2.37-69.016-.066.819,3.272c-4.6-.253-28.328-1.58-30.6-2.445Z" transform="translate(-1017.912 -4407.636)" fill="#191919"/>
      <path id="Caminho_13327" data-name="Caminho 13327" d="M3409.59,1321.365l-.041,1.564c1.328.552,3.5.2,5.014.18l1.013-6.221c2.062-1.053,3.474-2.375,6.452-3.178,2.378-.641,6.408-.674,8.072.745l1.825,1.311c1.747,1.064,2.918,3.805,3.511,6.741l3.892-.212c.483-3.15,1.853-5.891,4.6-7.334l1.235-.985-4.176-.058-.1-4.422c13.576-.118,8.4.964,12.962,4.2l-1.487-6.862a26.577,26.577,0,0,0-5.05.6,46.963,46.963,0,0,1-16.066-1.369c-7-1.71-14.978-5.26-17.91-5.849C3412.835,1306.093,3411.244,1316.068,3409.59,1321.365Z" transform="translate(-2923.623 -153.218)" fill="#f1a295"/>
      <path id="Caminho_13328" data-name="Caminho 13328" d="M2339.7,9172.987l84.763-.338.184-3.528-3.058-.18h-81.263A25.566,25.566,0,0,1,2339.7,9172.987Z" transform="translate(-1877.756 -7845.561)" fill="#191919"/>
      <path id="Caminho_13329" data-name="Caminho 13329" d="M2571.605,8466.414c.382-.508,2.287-.241,3.113-.241l-.118-3.692-80.391-.009a13.291,13.291,0,0,0-.94,3.63h19.4c6.6,0,12.564.313,19.4.313Z" transform="translate(-2027.875 -7154.934)" fill="#191919"/>
      <path id="Caminho_13330" data-name="Caminho 13330" d="M2353.864,9871.068l.474-.314c1.412-.4,75.688-.069,83.829-.063l-.023-3.385-1.852-.083c-5.954.663-10.669-.23-15.021-.226h-67.6Z" transform="translate(-1891.412 -8527.971)" fill="#191919"/>
      <path id="Caminho_13331" data-name="Caminho 13331" d="M9535.086,6822.249c.763,3.237-7.787,17.233-6.982,22.329,2.31,2.077,4.855,2.708,8.067,4.01,1.444.588,7.969,3,8.662,3.706,2.442.462,2.1,1.215,4.58,0-1.229-.832-3.295-1.234-4.914-1.684-2.546-.709-2.29-1.578-2.067-4.238l-.6-.292c-2.015-.213-9.266-3.039-9.919-4.2-1.215-2.177,1.945-8.309,2.731-10.559l5.729-15.238c2.984-6.893,2.258-4.856,11.2-1.669,2.568.914,5.929,1.873,7.424,3.77.2,2.505-3.582,12.66-4.709,14.712.48,1.1-.111.515,1.007.8h1.583c.292-1.592,1.855-5.255,2.463-7.1,2.214-6.708,5.875-10.836,1.087-13.214-2.3-1.145-4.451-1.808-6.9-2.8-14.944-6.087-11.324-5.621-16.809,8.421C9536.382,6819.874,9535.937,6821.822,9535.086,6822.249Z" transform="translate(-8904.969 -5536.426)" fill="#04162d"/>
      <path id="Caminho_13332" data-name="Caminho 13332" d="M2942.514,7754.051c-12.322-.577-25.917-.072-38.376-.063l-28.793,0c-5.108,0-5.106-1.2-5.645,3.767l73.055-.084Z" transform="translate(-2395.879 -6462.119)" fill="#191919"/>
      <path id="Caminho_13333" data-name="Caminho 13333" d="M4774.648,1920.971c.683-.684,1.558-1.771,3.011-1.427a2.436,2.436,0,0,1,1.508,2.947C4778.668,1924.7,4774.257,1925.358,4774.648,1920.971Zm1.063-5.8c-2.229,1.936-5.437,4.217-5.453,9.009a9.523,9.523,0,0,0,5.6,8.772c2.6,1.021,8.6,1,10.846-2.286,2.075-3.027,3.584-4.524,2.153-9.78-.467-1.711-.145-.818-.792-1.113-.889,1.388-.292,2.724-.938,4.138-.9-.6-2.125-6.537-2.423-7.864C4782.1,1913.714,4779.553,1914.852,4775.711,1915.172Z" transform="translate(-4253.834 -753.847)" fill="#f1b2a9"/>
      <path id="Caminho_13334" data-name="Caminho 13334" d="M10142.988,7981.476l.594.295c-.219,2.658-.472,3.528,2.067,4.238,1.62.45,3.683.853,4.917,1.684,4.052,0,3.145-.49,4.139-3.012.444-1.126,1.146-.939,1.819-1.624.731-.741.566-1.819.566-3.187,2.794-.651,2.881-2.068,2.2-5.011a2.744,2.744,0,0,0,2.094-3.322,3.973,3.973,0,0,0-3.351-2.447c-.06,0-1.576,0-1.584,0-1.117-.286-.521.3-1-.8-.33.457-.163-.517-.541.737a72.146,72.146,0,0,0-8.407-.1c-3.132.329-3.287,2.8-1.214,4.683-.441,2.25-1.087,1.939-.1,4.385l-.785,1.659c-.256.922.015.9-.454,2.015Z" transform="translate(-9506.117 -6671.818)" fill="#f1b2a9"/>
      <path id="Caminho_13335" data-name="Caminho 13335" d="M3682.375,2017.816c-1.106.5-1.814,3.448-2.059,4.759a8.155,8.155,0,0,0,1.049,5.844,9.888,9.888,0,0,0,9.454,4.729,9.489,9.489,0,0,0,8.012-12.171,11.344,11.344,0,0,0-1.924-3.416c-.652-.84-.4-.2-.6-1.182l-1.125.089-.861,3.768-2.1-.155a12.442,12.442,0,0,1-.463,3.011c-2.167.862-3.054.575-4.078-1.3-.087-1.765.39-1.437.819-2.817C3687.1,2018.055,3684.238,2017.726,3682.375,2017.816Z" transform="translate(-3188.17 -853.333)" fill="#f1b2a9"/>
      <path id="Caminho_13336" data-name="Caminho 13336" d="M3670.571,3508.886c-1.288.643-2.289,1.452-3.642,2.23a20.238,20.238,0,0,1-14.1,2.421c-4.985-1.157-9.049-4.5-12.269-8.074a15.156,15.156,0,0,0-1.361-1.682c.206,1.589,4.421,8.182,5.513,9.723C3657.717,3531.886,3670.37,3516.083,3670.571,3508.886Z" transform="translate(-3148.127 -2307.393)" fill="#191919"/>
      <path id="Caminho_13337" data-name="Caminho 13337" d="M3369.423,1889.106c-.073.1-.159.214-.221.284l-.743.657.242,1.337c1.528.572,3.926.23,5.706.323,1.927,5.666,3.7,10.057,10.741,9.94a9.18,9.18,0,0,0,7.192-3.158c2.664-2.627,2.655-6.455,3.445-7.215,1.324-.8,2.9-.687,3,.889l.33.46a3.839,3.839,0,0,1,.259.8c.114.454.108.716.266,1.219.277.883.649,1.417.98,2.239a11.581,11.581,0,0,0,6.215,4.334c5.413,1.667,5.533-1,8.624-1.121,1.445-1.939,1.566-1.591,2.335-2.751a10.244,10.244,0,0,0,.745-10.935c-.416-.77-.279-.457-.635-.827l.1-.208c-2.026-.773-1.149-1.72-3.67-2.208.3,1.326,1.521,7.26,2.421,7.864.647-1.413.052-2.75.939-4.139.646.3.324-.6.79,1.114,1.434,5.257-.074,6.755-2.15,9.78-2.25,3.281-8.251,3.306-10.847,2.286a9.526,9.526,0,0,1-5.6-8.772c.015-4.792,3.224-7.073,5.454-9.009.178-.826.42-.756-.344-.565l-1.234.986c-2.748,1.442-4.115,4.182-4.6,7.333l-3.891.211c-.6-2.935-1.766-5.676-3.514-6.741-.478.267-.636-.354-.167.5.2.98-.053.342.6,1.183a11.372,11.372,0,0,1,1.924,3.415,9.49,9.49,0,0,1-8.013,12.171,9.887,9.887,0,0,1-9.453-4.731,8.139,8.139,0,0,1-1.048-5.843c.243-1.311.95-4.264,2.058-4.759,2.2-2.975,5.746-3.282,6.24-4.472,1.892.079.6-.119,1.073.6,1.548.28,3.155,1.022,4.739.938l.225-.309c-1.664-1.419-5.7-1.386-8.072-.746-2.981.8-4.393,2.127-6.455,3.179l-1.012,6.221c-1.518.021-3.687.373-5.013-.179Z" transform="translate(-2883.455 -720.958)" fill="#2c2b2b"/>
      <path id="Caminho_13338" data-name="Caminho 13338" d="M3778.63,1885.441c1.864-.09,4.731.239,6.127,1.161-.429,1.379-.909,1.052-.82,2.816,1.025,1.875,1.912,2.162,4.081,1.3a12.572,12.572,0,0,0,.46-3.011l2.1.155.861-3.767,1.126-.09c-.468-.851-.309-.231.168-.5l-1.825-1.311-.225.309.229.963a13.1,13.1,0,0,1-3.344-.5c-3.623-1.155-1.673-1.363-1.621-1.4-.474-.718.817-.519-1.076-.6C3784.377,1882.16,3780.83,1882.467,3778.63,1885.441Z" transform="translate(-3284.43 -720.958)" fill="#454444"/>
      <path id="Caminho_13339" data-name="Caminho 13339" d="M2381.59,4969.617l19.412.1a7.413,7.413,0,0,0-3.763-3.864,34.9,34.9,0,0,0-9.084.6C2386.007,4967.015,2382.661,4968.073,2381.59,4969.617Z" transform="translate(-1918.703 -3736.66)" fill="#191919"/>
      <path id="Caminho_13340" data-name="Caminho 13340" d="M5467.646,2040.817c.355.369.219.057.635.827a10.243,10.243,0,0,1-.746,10.936c-.768,1.158-.889.811-2.335,2.751l.628,1.534h.979c.507-.76.789-.869,1.381-1.747a27.645,27.645,0,0,0,3.591-6.425c1.489-4.074,1.023-8.215-3.409-8.818l-.675-.1Z" transform="translate(-4933.195 -876.199)" fill="#e68d84"/>
      <path id="Caminho_13341" data-name="Caminho 13341" d="M5447.739,4928.942h11.388c-1.586-2.372-6.836-4.064-10.643-4.383Z" transform="translate(-4916.123 -3696.325)" fill="#191919"/>
      <path id="Caminho_13342" data-name="Caminho 13342" d="M4233.971,2881.437c-2.725-1.266-7.816,1.251-11.969-1.091-1.457-.819-1.1-1.55-3.062-1.937,1.363,5.761,14.185,5.011,15.03,3.029Z" transform="translate(-3714.873 -1696.04)" fill="#d7726d"/>
      <path id="Caminho_13343" data-name="Caminho 13343" d="M3065.7,2295.842c.609,1.492,1.534.523,3.591,1.565-.629,1.6-3.407,6.01.4,6.226-.368-2.366-1.472-3.231.7-4.672,1.672.877.271,1.419,2.649,2.12C3072.155,2297.392,3068.6,2294.288,3065.7,2295.842Z" transform="translate(-2587.475 -1126.131)" fill="#d7726d"/>
      <path id="Caminho_13344" data-name="Caminho 13344" d="M4513.417,2385.014c-.333-.823-.7-1.356-.982-2.239-.156-.5-.15-.765-.266-1.22a3.867,3.867,0,0,0-.257-.8l-.331-.459.058,9.743c-2.154,1.294-2.564.008-4.868.446.642,1.792,5.992,3.161,6.051-1.97l.025-2.813c.325-.852-.143-.14.569-.693Z" transform="translate(-3996.25 -1209.095)" fill="#d7726d"/>
      <path id="Caminho_13345" data-name="Caminho 13345" d="M4965.1,2133.194c-.393,4.386,4.019,3.728,4.517,1.52a2.431,2.431,0,0,0-1.51-2.944C4966.656,2131.423,4965.782,2132.511,4965.1,2133.194Z" transform="translate(-4444.281 -966.073)" fill="#454444"/>
      <path id="Caminho_13346" data-name="Caminho 13346" d="M4084.848,1908.6c-1.583.085-3.19-.658-4.739-.937-.05.033-2,.24,1.622,1.4a13.112,13.112,0,0,0,3.347.5l-.23-.963Z" transform="translate(-3578.592 -747.051)" fill="#c8938c"/>
    </g>
  </g>
</svg>
