<svg id="Camada_x0020_1" xmlns="http://www.w3.org/2000/svg" width="106.268" height="32.287" viewBox="0 0 106.268 32.287">
  <g id="_1538491521008" transform="translate(0 0)">
    <path id="Caminho_13881" data-name="Caminho 13881" d="M92.844.039a4.634,4.634,0,0,1,1.771.451,4.826,4.826,0,0,1,2.407,2.536,4.665,4.665,0,0,1,.355,1.815,4.571,4.571,0,0,1-.348,1.783,4.667,4.667,0,0,1-.96,1.462A4.764,4.764,0,0,1,94.635,9.1a4.848,4.848,0,0,1-1.789.431H90.67V.026h2.175V.039Zm0,7.3a2.705,2.705,0,0,0,.933-.263,2.646,2.646,0,0,0,.747-.541A2.443,2.443,0,0,0,95.2,4.841a2.588,2.588,0,0,0-.18-.96,2.651,2.651,0,0,0-.5-.811,2.708,2.708,0,0,0-.747-.579,2.526,2.526,0,0,0-.927-.277V7.337ZM103.8,2.254H99.912V3.683h3.154V5.858H99.912V7.351H103.8V9.527H97.736V.09L103.8.077V2.253Zm6.745,7.273h-5.626V.064h2.175V7.351h3.45V9.527Zm3.064,0h-2.175V.064h2.175ZM119.749,0h2.3l-3.218,9.527h-2.06L113.725,0h2.291l1.815,5.844Zm8.3,2.253h-3.887V3.681h3.154V5.857h-3.154V7.35h3.887V9.525h-6.064V.089l6.064-.013V2.251Zm3.978,4.827c-.111.018-.223.03-.335.039l-.348.026V9.525h-2.175V.115h2.175a4.255,4.255,0,0,1,2.762,1.053,3.5,3.5,0,0,1,.837,1.107,3.077,3.077,0,0,1,.3,1.349,3.139,3.139,0,0,1-.322,1.408,3.4,3.4,0,0,1-.9,1.125l2.085,3.369H133.55Zm-.682-2.124a2.258,2.258,0,0,0,.662-.122,2,2,0,0,0,.554-.289,1.373,1.373,0,0,0,.373-.419,1.017,1.017,0,0,0,.136-.508.969.969,0,0,0-.136-.5,1.406,1.406,0,0,0-.373-.412,1.969,1.969,0,0,0-.554-.289,2.258,2.258,0,0,0-.662-.122V4.958Zm7.184,4.57,1.094-2.677L136.4,0H138.8l1.944,4.106L142.407,0h2.356l-3.875,9.527h-2.356Z" transform="translate(-80.06 0)" fill="#fff"/>
    <path id="Caminho_13882" data-name="Caminho 13882" d="M11.432,100.89v4.293H7.85v14.43H3.556v-14.43H0V100.89Zm8.917,18.723a7.021,7.021,0,0,1-4.953-2.007,7.274,7.274,0,0,1-1.562-2.287,7.125,7.125,0,0,1-.571-2.718V100.94h4.293v11.635a2.685,2.685,0,0,0,.838,1.957,2.8,2.8,0,0,0,1.981.788,2.58,2.58,0,0,0,1.067-.228,2.969,2.969,0,0,0,.889-.61,2.6,2.6,0,0,0,.584-.889,2.91,2.91,0,0,0,.2-1.093V100.94h4.293v11.534a6.7,6.7,0,0,1-.521,2.744,7.116,7.116,0,0,1-1.5,2.261,7.247,7.247,0,0,1-2.236,1.536,6.924,6.924,0,0,1-2.731.6h-.076Zm15.269-4.827q-.33.051-.66.076c-.22.018-.449.034-.686.051v4.7H29.978V101.042h4.293a8.389,8.389,0,0,1,5.45,2.078,6.89,6.89,0,0,1,1.651,2.185,6.06,6.06,0,0,1,.6,2.663,6.18,6.18,0,0,1-.635,2.778,6.679,6.679,0,0,1-1.779,2.219l4.116,6.648H38.615Zm-1.347-4.192a4.45,4.45,0,0,0,1.308-.241,3.948,3.948,0,0,0,1.093-.571,2.7,2.7,0,0,0,.736-.826,2,2,0,0,0,.267-1,1.935,1.935,0,0,0-.267-.991,2.785,2.785,0,0,0-.736-.813,3.917,3.917,0,0,0-1.093-.571,4.451,4.451,0,0,0-1.308-.241V110.6Zm21.315-2.211a6.584,6.584,0,0,1,1.879,2.147,5.779,5.779,0,0,1,.128,5.209,6.347,6.347,0,0,1-1.538,2.02,7.4,7.4,0,0,1-2.274,1.36,7.692,7.692,0,0,1-2.769.495H45.55V100.891l4.953.026a6.094,6.094,0,0,1,4.04,1.511,5.1,5.1,0,0,1,1.232,1.625,4.555,4.555,0,0,1,.445,1.994,4.479,4.479,0,0,1-.635,2.337Zm-5.741-3.2v1.727h.686a1.768,1.768,0,0,0,1.016-.309.763.763,0,0,0,.381-.568c0-.173-.128-.356-.381-.555a1.647,1.647,0,0,0-1.041-.3h-.66Zm1.169,10.136a3.56,3.56,0,0,0,1.08-.165,3.271,3.271,0,0,0,.915-.449,2.22,2.22,0,0,0,.623-.652,1.463,1.463,0,0,0,.228-.779,1.528,1.528,0,0,0-.228-.792,2.138,2.138,0,0,0-.623-.665,3.285,3.285,0,0,0-.915-.448,3.554,3.554,0,0,0-1.08-.165H49.845v4.116h1.169ZM67.743,100.94a9.042,9.042,0,0,1,3.629.736,9.635,9.635,0,0,1,2.968,1.994,9.307,9.307,0,0,1,2,2.959,9.32,9.32,0,0,1,0,7.266,9.333,9.333,0,0,1-2,2.959,9.663,9.663,0,0,1-2.968,1.994,9.313,9.313,0,0,1-7.258,0,9.317,9.317,0,0,1-4.945-4.953,9.333,9.333,0,0,1,0-7.266,9.318,9.318,0,0,1,4.945-4.953A9.022,9.022,0,0,1,67.743,100.94Zm.013,14.354a4.884,4.884,0,0,0,1.957-.394,5.064,5.064,0,0,0,2.681-2.681,5.065,5.065,0,0,0,0-3.913,5.064,5.064,0,0,0-2.681-2.681,5.051,5.051,0,0,0-3.913,0,5.064,5.064,0,0,0-2.681,2.681,5.065,5.065,0,0,0,0,3.913A5.064,5.064,0,0,0,65.8,114.9,4.9,4.9,0,0,0,67.756,115.294Z" transform="translate(0 -89.084)" fill="#fff"/>
    <g id="Grupo_5056" data-name="Grupo 5056" transform="translate(78.75 4.763)">
      <path id="Caminho_13883" data-name="Caminho 13883" d="M671.523,58.869a8.616,8.616,0,0,1-.66,1.3,16.094,16.094,0,0,1-2.517,3.306c-.281.3-3.761,3.736-3.842,3.885-.006.619.054,4.9-.02,5.1-.043.118-1.1,1.13-1.279,1.309a11.709,11.709,0,0,1-1.318,1.257,3.932,3.932,0,0,0-.62-.668c-.219-.216-.409-.406-.627-.624l-1.273-1.276-.026.013c-.914.341-2.105.7-3.082,1.033s-.674.28-.953.1a5.07,5.07,0,0,1-.981.937,6,6,0,0,1-1.194.681,8.508,8.508,0,0,1-3.175.634,2.828,2.828,0,0,1-.92.061A3.643,3.643,0,0,1,649.1,75a8.406,8.406,0,0,1,.634-3.17,5.91,5.91,0,0,1,.7-1.218,4.468,4.468,0,0,1,.93-.951c-.168-.239-.2-.087-.074-.459.393-1.127.793-2.522,1.2-3.581l.013-.026-1.916-1.921a5.241,5.241,0,0,0-.648-.6c.078-.208,2.543-2.6,2.579-2.606.343-.1,4.295.083,5.131-.023a3.157,3.157,0,0,0,.523-.465L659.58,58.5a23.167,23.167,0,0,1,5.233-4.42,8.4,8.4,0,0,1,1.278-.647,10.176,10.176,0,0,1,1.51-.63,16.692,16.692,0,0,1,5.491-.937,17.2,17.2,0,0,1-.456,3.859,15.115,15.115,0,0,1-1.113,3.14Zm-24.037,4.147a8.106,8.106,0,0,0,.733.752l2.276,2.3a11.618,11.618,0,0,1-.377,1.188c-.084.252-.511,1.62-.611,1.773a12.468,12.468,0,0,0-1,1.418,8.527,8.527,0,0,0-.878,2.328,21.769,21.769,0,0,0-.3,4.861c2.645,0,4.844.029,6.866-.99a7.04,7.04,0,0,0,1.547-1.032,6.982,6.982,0,0,1,1.851-.728c.212-.07,1.164-.415,1.3-.415.092,0,2.773,2.825,3.048,3.01.208-.139,4.279-4.318,4.279-4.318.054-.136.016-4.283.016-4.908,0-.322.126-.335.521-.73l2.482-2.482,1.036-1.114a17.208,17.208,0,0,0,2.171-3.065,17.981,17.981,0,0,0,1.78-4.355c.053-.178.073-.322.119-.507l.294-1.542c.043-.394.161-1.311.16-1.716l.039-2.5c0-.184-.24-.117-.7-.117a22.113,22.113,0,0,0-5.557.578,18.488,18.488,0,0,0-2.792.96c-.59.275-1.086.517-1.642.821l-1.51.953c-.548.412-1.037.745-1.561,1.214-1.291,1.149-2.663,2.581-3.889,3.809-.11.111-.172.245-.36.266-.579.062-4.649-.055-4.962,0a13.982,13.982,0,0,0-1.575,1.512c-.12.119-.208.166-.333.291-.214.216-2.359,2.323-2.471,2.491Z" transform="translate(-647.324 -50.109)"/>
      <path id="Caminho_13884" data-name="Caminho 13884" d="M699.937,89.672l-.318.291-.311.314c-.483.491-3.657,3.759-3.864,3.837a.428.428,0,0,1-.549-.59c.055-.112,4.365-4.41,4.484-4.468.444-.216.737.318.558.614Zm2.995-6.623a2.569,2.569,0,1,1-2.016,3.04,2.578,2.578,0,0,1,2.016-3.04Zm-6.362,2.509-2.576,2.572c-.854.852-1.765,1.713-2.571,2.578l-.013.026a7.109,7.109,0,0,1,.865.836c.6.6,5.86,5.8,5.995,6.022l.026-.013c.858-.812,1.706-1.7,2.557-2.551.433-.433.837-.838,1.27-1.27a17.179,17.179,0,0,1,1.311-1.28c.081-.149,3.56-3.581,3.842-3.885a16.094,16.094,0,0,0,2.517-3.306,8.671,8.671,0,0,0,.66-1.3L705.02,78.55a8.337,8.337,0,0,0-1.278.647,23.135,23.135,0,0,0-5.233,4.42l-1.415,1.477a3.155,3.155,0,0,1-.523.465Z" transform="translate(-686.251 -75.222)" fill="#fff"/>
      <path id="Caminho_13885" data-name="Caminho 13885" d="M680.651,186.691a5.127,5.127,0,0,1,.859.813c.045.064.013,0,.036.069a10.445,10.445,0,0,1,1.1,1.06,10.718,10.718,0,0,1,1.061,1.1l.228.188.234.235a1.94,1.94,0,0,1,.426.482c.279.18-.03.232.953-.1s2.168-.693,3.082-1.033c-.135-.22-5.392-5.42-5.995-6.022a7.194,7.194,0,0,0-.865-.836c-.4,1.059-.8,2.455-1.2,3.581-.13.373-.095.22.074.459Z" transform="translate(-676.615 -167.14)" fill="#495358"/>
      <path id="Caminho_13886" data-name="Caminho 13886" d="M807.7,66.726l5.432,5.433a15.2,15.2,0,0,0,1.113-3.14,17.346,17.346,0,0,0,.456-3.859,16.692,16.692,0,0,0-5.491.937,10,10,0,0,0-1.51.63Z" transform="translate(-788.933 -63.399)" fill="#e81224"/>
      <path id="Caminho_13887" data-name="Caminho 13887" d="M750.24,202.66l1.273,1.276c.219.216.408.406.627.624a3.932,3.932,0,0,1,.62.668,11.7,11.7,0,0,0,1.318-1.257c.179-.179,1.236-1.191,1.279-1.309.074-.2.015-4.482.02-5.1a17.188,17.188,0,0,0-1.311,1.28c-.433.432-.838.837-1.27,1.27-.851.851-1.7,1.74-2.557,2.551Z" transform="translate(-738.197 -180.305)" fill="#00bcf2"/>
      <path id="Caminho_13888" data-name="Caminho 13888" d="M672.174,143.51c.806-.865,1.717-1.726,2.571-2.578l2.576-2.572c-.837.106-4.788-.081-5.131.023-.036.011-2.5,2.4-2.579,2.606a5.241,5.241,0,0,1,.648.6Z" transform="translate(-667.002 -128.024)" fill="#00bcf2"/>
      <path id="Caminho_13889" data-name="Caminho 13889" d="M662.26,222.493l-.03.893.891-.032a8.508,8.508,0,0,0,3.175-.634,5.943,5.943,0,0,0,1.194-.681,5.069,5.069,0,0,0,.981-.937,1.961,1.961,0,0,0-.426-.482c-.088-.088-.148-.146-.234-.235l-.228-.188a5.455,5.455,0,0,1-3.647,1.485,6.25,6.25,0,0,1,.9-2.959c.1-.146.177-.239.268-.358.11-.143.18-.165.311-.331-.025-.067.007,0-.036-.069a5.136,5.136,0,0,0-.859-.813,4.5,4.5,0,0,0-.93.951,5.907,5.907,0,0,0-.7,1.218,8.389,8.389,0,0,0-.634,3.17Z" transform="translate(-660.486 -197.603)" fill="#f7630c"/>
      <path id="Caminho_13890" data-name="Caminho 13890" d="M773.068,119.273a1.715,1.715,0,0,1,1.48-1.917,1.711,1.711,0,1,1,.427,3.4,1.7,1.7,0,0,1-1.907-1.478Zm1.2-2.736a2.569,2.569,0,1,0,3.026,1.994,2.572,2.572,0,0,0-3.026-1.994Z" transform="translate(-757.582 -108.711)" fill="#a6a6a6"/>
      <path id="Caminho_13891" data-name="Caminho 13891" d="M779.578,125.788a1.713,1.713,0,0,0,3.4-.431,1.734,1.734,0,0,0-1.919-1.487,1.716,1.716,0,0,0-1.48,1.917Z" transform="translate(-764.092 -115.226)" fill="#ccc"/>
      <path id="Caminho_13892" data-name="Caminho 13892" d="M680.428,226.891a40.4,40.4,0,0,0-2.164-2.161c-.131.166-.2.187-.311.331-.091.119-.17.212-.268.358a6.234,6.234,0,0,0-.9,2.959,5.451,5.451,0,0,0,3.648-1.485Z" transform="translate(-673.333 -204.296)" fill="#fec73c"/>
      <path id="Caminho_13893" data-name="Caminho 13893" d="M725.849,168.572c.179-.3-.115-.832-.558-.614-.119.059-4.428,4.355-4.484,4.468a.428.428,0,0,0,.549.59c.208-.078,3.381-3.346,3.864-3.837l.311-.314.318-.291Z" transform="translate(-712.163 -154.122)" fill="#00bcf2"/>
      <path id="Caminho_13894" data-name="Caminho 13894" d="M662.858,263.681l-.891.032.03-.893a3.65,3.65,0,0,0-.06.922A2.827,2.827,0,0,0,662.858,263.681Z" transform="translate(-660.224 -237.929)" fill="#6c2b05"/>
    </g>
  </g>
</svg>
