<svg xmlns="http://www.w3.org/2000/svg" width="51.346" height="51.354" viewBox="0 0 51.346 51.354">
  <g id="Grupo_4424" data-name="Grupo 4424" transform="translate(0.001)">
    <path id="Caminho_3544" data-name="Caminho 3544" d="M2119.151,42.35c-.532,3.157-2.562,5.013-5.889,5.316a64.806,64.806,0,0,1-10.89-.071c-3.231-.489-4.981-2.473-5.35-5.778a65.617,65.617,0,0,1,.07-11.112c.508-3.146,2.622-4.955,5.925-5.252a65.566,65.566,0,0,1,11.105.129c3.046.578,4.83,2.556,5.1,5.958a67.3,67.3,0,0,1-.073,10.811ZM2105.6,11.032c-13.43,1.438-24.5,13-23.026,28.153a25.679,25.679,0,1,0,51.072-5.407C2132.292,20.674,2120.316,9.457,2105.6,11.032Z" transform="translate(-2082.441 -10.884)" fill="#fff"/>
    <path id="Caminho_3556" data-name="Caminho 3556" d="M2640.919,565.393a5.5,5.5,0,0,1,7.107,3.614,5.748,5.748,0,0,1-3.577,7.132C2637.484,578.457,2633.374,568.04,2640.919,565.393Zm-7.415,10.053c.163,3.19,1.676,4.22,4.806,4.427a70.4,70.4,0,0,0,8.993-.032c3.158-.284,4.235-1.763,4.423-4.927a70.9,70.9,0,0,0-.05-8.99c-.293-3.139-1.768-4.161-4.923-4.292a85.09,85.09,0,0,0-8.924.027c-3,.222-4.224,1.773-4.353,4.834-.12,2.845-.117,6.11.028,8.953Z" transform="translate(-2616.921 -545.067)" fill="#fff"/>
    <path id="Caminho_3563" data-name="Caminho 3563" d="M2565.684,508.495c-.145-2.843-.148-6.108-.028-8.953.13-3.062,1.358-4.612,4.354-4.834a85.235,85.235,0,0,1,8.924-.027c3.155.131,4.63,1.154,4.923,4.292a70.812,70.812,0,0,1,.049,8.989c-.187,3.164-1.264,4.643-4.422,4.927a70.391,70.391,0,0,1-8.993.032c-3.13-.207-4.643-1.237-4.806-4.427Zm20.126,1.087a67.41,67.41,0,0,0,.074-10.811c-.273-3.4-2.057-5.379-5.1-5.958a65.594,65.594,0,0,0-11.105-.129c-3.3.3-5.417,2.106-5.925,5.252a65.618,65.618,0,0,0-.069,11.112c.369,3.305,2.119,5.289,5.35,5.778a64.8,64.8,0,0,0,10.89.071C2583.248,514.594,2585.279,512.738,2585.811,509.582Z" transform="translate(-2549.1 -478.115)" fill="#22b9c2"/>
    <path id="Caminho_3569" data-name="Caminho 3569" d="M2755.186,681.8a3.675,3.675,0,0,1,1.595,7.174C2751.92,689.928,2750.418,682.883,2755.186,681.8Zm-.921-1.772c-7.545,2.647-3.436,13.064,3.531,10.746a5.747,5.747,0,0,0,3.577-7.132A5.5,5.5,0,0,0,2754.265,680.03Z" transform="translate(-2730.266 -659.704)" fill="#22b9c2"/>
    <path id="Caminho_3574" data-name="Caminho 3574" d="M2821.754,747.256c-4.77,1.08-3.267,8.125,1.594,7.174a3.675,3.675,0,0,0-1.594-7.174Z" transform="translate(-2796.834 -725.157)" fill="#fff"/>
  </g>
</svg>
