<svg xmlns="http://www.w3.org/2000/svg" xmlns:xlink="http://www.w3.org/1999/xlink" width="240.003" height="312.787" viewBox="0 0 240.003 312.787">
  <defs>
    <filter id="Caminho_13681">
      <feOffset dx="12" dy="-8" input="SourceAlpha"/>
      <feGaussianBlur stdDeviation="9" result="blur"/>
      <feFlood flood-opacity="0.11" result="color"/>
      <feComposite operator="out" in="SourceGraphic" in2="blur"/>
      <feComposite operator="in" in="color"/>
      <feComposite operator="in" in2="SourceGraphic"/>
    </filter>
    <clipPath id="clip-path">
      <path id="Caminho_13242" data-name="Caminho 13242" d="M14784.463,5264.819a96.982,96.982,0,1,1-96.988,96.98A96.979,96.979,0,0,1,14784.463,5264.819Z" transform="translate(-14687.475 -5264.819)"/>
    </clipPath>
  </defs>
  <g id="Grupo_4869" data-name="Grupo 4869" transform="translate(22388.387 2280.349)">
    <g data-type="innerShadowGroup">
      <path id="Caminho_13681-2" data-name="Caminho 13681" d="M14784.463,5264.819a96.982,96.982,0,1,1-96.988,96.98A96.979,96.979,0,0,1,14784.463,5264.819Z" transform="translate(-37075.859 -7426.347)" fill="#fff"/>
      <g transform="matrix(1, 0, 0, 1, -22388.39, -2280.35)" filter="url(#Caminho_13681)">
        <path id="Caminho_13681-3" data-name="Caminho 13681" d="M14784.463,5264.819a96.982,96.982,0,1,1-96.988,96.98A96.979,96.979,0,0,1,14784.463,5264.819Z" transform="translate(-14687.47 -5146)" fill="#fff"/>
      </g>
    </g>
    <g id="Grupo_4865" data-name="Grupo 4865" transform="translate(-23216.619 -3399.895)">
      <g id="Grupo_4482" data-name="Grupo 4482" transform="translate(828.236 1238.364)" clip-path="url(#clip-path)">
        <g id="_2500125329664" transform="translate(45.597 110.422)">
          <path id="_1" data-name="1" d="M16801.07,10158.994c-12.5-1.655-28.633-.312-41.59-.314-14.184-.007-28.227-.334-42.4.061l-.133-1.24-.633,25.992c.012,3.028-.312,5.471-.312,8.819,0,6.179-.32,11.368-.32,17.646,0,3.35-.312,5.475-.312,8.825,0,2.8.211,6.44,0,9.141l-.312,12.918c.016,1.967-.324,2.438-.316,4.406,0,2.941-.008,5.885,0,8.826,0,3.028-.316,5.47-.316,8.819,0,6.156-.336,11.357-.316,17.651l-.625,17.638c.027,6.194-.215,11.455-.3,17.664-.023,1.6-.336,2.141-.328,4.084l-.34,13.209a27.473,27.473,0,0,0-.3,4.119c.02,3-.484,5.545-.621,8.194-.125,2.208-.418,2-.074,4.163l-.559,15.058c-.09,1.2-.285.822-.332,2.191-.055,1.41.117,3.045.02,4.43l-.32,4.094a163.87,163.87,0,0,1-.918,17.036c-.168,1.34.078,3.024-.023,4.389l-.7,12.851a22.908,22.908,0,0,0-.246,4.165l-.332,4.4c-.242,6.1-.3,11.688-.3,17.973h29.93a48.277,48.277,0,0,1,.5-7.058l2.34-29.176c-.012-2.674.555-4.7.633-7.24l1.637-22c.352-2.259.367-4.711.559-7.316.25-3.52.949-7.311.941-10.713-.016-3.613.93-7.515.957-11.016l1.188-14.572c.422-2.687.035-4.733.508-7.373l1.445-18.085c.094-1.258.184-.569.293-1.6l1.262-12.605c.066-.606-.016-1.234.047-1.846l1.676-16.28c.207-1.154.176-2.249.375-3.4.188-1.006.332-2.886.426-3.679l1.313-14.447c.1-1.03.2-.341.285-1.6l2.52-24.894a15.159,15.159,0,0,1,.125-2.079c.207-1.153.172-2.25.383-3.4l.461-5.517c.117-1.034.211-.345.293-1.6.1-1.527.316-2.5.316-3.783,5.172,0,4.395-.607,5.047,7.25.176,2.213.574,4.984.867,7,.9,6.033,1.535,14.389,2.52,21.11.168,1.1.3,2.521.383,3.405l2.141,18.023c1.016,6.862,1.5,14.207,2.523,21.107.16,1.1.3,2.521.367,3.408.633,6.871,2.6,18.641,2.836,24.892l.715,7.488c.348,2.266.246,4.744.688,7.192l2.27,29.241c.371,2.08.273,5.223.438,7.435l1.574,18.274c0,3.568.844,7.592.961,11.016.012.607-.062,1.272,0,1.883.465,4.08.582,9.167,1.18,13.006l1.969,25.761a34.627,34.627,0,0,0,.3,3.79h29.93l-.3-8.513c0-1.793-.34-2.167-.332-4.086l-.434-13.427c-.543-3-.512-18.667-1.113-23.78l-.34-11.32c.02-1.919-.266-2.638-.32-4.087-.066-1.538.078-3.207.023-4.752-.16-3.951-.66-8.515-.645-12.59,0-2.01-.3-2.778-.324-4.4-.023-1.391.109-3.073.012-4.426-.1-1.242-.227-.641-.324-1.885l0-4.728c-.09-1.245-.219-.65-.32-1.889-.113-1.479.078-3.231.016-4.74-.055-1.451-.332-2.165-.324-4.084a27.6,27.6,0,0,0-.242-4.481,32.157,32.157,0,0,1-.062-4.352c-.008-3-.656-9.223-.637-13.227l-.453-8.693c-.391-2.185-2.07-52.379-2.07-52.44l-.508-8.629a38.356,38.356,0,0,1-.117-4.288c-.215-2.784-.656-5.646-.645-8.5l-.621-12.924c.035-7.579-1.2-15.554-1.25-21.438a7.952,7.952,0,0,0-.262-1.949c-.129-.86,0-1.612-.07-2.454-.082-1.25-.227-.632-.316-1.885Z" transform="translate(-16707.809 -10157.5)" fill="#191919"/>
        </g>
      </g>
      <path id="Caminho_13243" data-name="Caminho 13243" d="M14784.463,5264.819a96.982,96.982,0,1,1-96.988,96.98A96.979,96.979,0,0,1,14784.463,5264.819Z" transform="translate(-13859.242 -4026.452)" fill="none"/>
      <path id="Caminho_13244" data-name="Caminho 13244" d="M16183.533,7402.072c1.139-1.013,6.727-3.431,8.488-4.043,5.631-.442,24.889-.065,33.084-.065l3.8-.015c1.066.135.439-.043.922.355l3.086.024-.238,3.375c-.01.03-.029.11-.051.165l.264,11.4-73.746-.046c.809-.94,1.543-.953,3-1.668C16165.826,7409.75,16182.123,7402.253,16183.533,7402.072Zm-57.256-33.41.523,38.757a30.87,30.87,0,0,0,1.207,8.557c2.2,6.576,6.742,7.214,12.7,5.354l7.2-2.881c0,.121-.033,1.255-.023,1.274.234,1.036-.074.344.588.928l-.43-2.623,1.785-.436c.877-.889,2.461-1.395,3.719-2.022a25.818,25.818,0,0,1,3.816-1.717c2.084-.9,14.707-.448,17.961-.448l53.254,0c.229-.007,1.109-.035,1.27-.013,1.141.149.5,0,.932.371.844.554.508.383,1.852.386l.033,3.435-.279,6.853c.779-.343.643.841.6-2.836,0-1.048,0-2.1,0-3.149,4.906,3.279,8,2.733,14.912-.216l6.619-3.147c1.234-.614,2.215-1.11,3.361-1.683,4.684-2.346,12.275-5.321,16.91-7.663l27-12.392c6.52-3.24,15.969-4.509,21.438-8.175,1.074-.714,1.781-1.169,2.848-1.885a16.788,16.788,0,0,0,2.621-2.416c3.031-3.029,8.033-9.1,2.91-12.525-6.521,1.517-2.246-.484-10.293,2.938a50.4,50.4,0,0,1-5.77,2.418c.1-1.165.8-1.84,1.32-2.774.779-1.393.578-1.879-.066-3.21-2.23,0-2.869.732-4.535,1.44a14.192,14.192,0,0,0-1.863.974,9.9,9.9,0,0,1-2.1,1.051l-.24.315c-1.346,3.917-2.217,8.418-3.633,12.514-2.654,7.653-4.166,4.331-7.445,8.276-5.551.238-30.967-.767-33.74.449l-5.791,1.644c-2.025.684-4.135,1.214-6.187,1.694V7392.3l-18.344-.007.068,5.42c-2.123.083-3.174-.3-5.039-.324-10-.144-26.848.526-35.006-.056,1.844-.289,8.006-4.142,12.818-5.089,5.076-2.381,9.74-2.022,17.055-7.3,2.127-1.536,12.041-10.507,6.082-14.692-6.162-.689-11.822,3.928-16.637,5.286.6-2.609,2.689-3.1,1.48-6.248-3.072.255-5.479,2.3-7.9,3.215-1.041,1.034-1.617,1.163-2.457,2.152-.869,1.024-1.441,1.183-2.166,2.554-1.6,3.017-.49,4.166-4.572,4.976a21.1,21.1,0,0,1-7.35,2.357c-1.006,1.026-9.855,3.289-12.1,3.941-3.34.972-9.17,3.481-12.164,3.869-1.795,1.211-13.8,4.831-16.607,5.226l.385-.883c-.85-.389-.445.589-.625-1.234l1.621-24.287h.756l-.389-.338c-.662-.573-.35-4.433-.363-5.478-3.592-.059-21.137.628-23.4,1.317Z" transform="translate(-15265.57 -6079.59)" fill="#f1a295"/>
      <path id="Caminho_13245" data-name="Caminho 13245" d="M15835.181,6880.3a7.77,7.77,0,0,1-4.408-.368l-1.871,9.794a32.1,32.1,0,0,0-.65,3.438c2.406,0,4.162.632,6.727.632l.123-1.977c2.264-.691,19.816-1.374,23.395-1.318.012,1.045-.295,4.908.369,5.477l.387.337c1.648,0,1.627.285,3.025.316l-1.893,10.575,44.957.12c4.08-.808,2.967-1.96,4.566-4.975.73-1.368,1.3-1.53,2.166-2.551.84-.993,1.426-1.122,2.455-2.151l.488-2.459-46.92-.024.5-3.621,47.377-.1,3.191-11.91-48.383.188-1.059,2.618c-4.514.22-12.113-.984-16.914-1.389A122.724,122.724,0,0,0,15835.181,6880.3Z" transform="translate(-14974.266 -5604.723)" fill="#f2f1ee"/>
      <path id="Caminho_13246" data-name="Caminho 13246" d="M16098.428,5474.43c-2.506.208-2.213.483-5.355-.248-.316,1.36-.461,2.386-.756,3.971-.258,1.41-.717,2.931-.822,4.22-.453,5.666,2.656.87,6.3,3.748l32.873,2.4.816-3.3,50.27-.083,3.221-11.9-54.02.089.486,3.037c-4.189.2-11.719-.939-16.266-1.338A115.247,115.247,0,0,0,16098.428,5474.43Z" transform="translate(-15231.523 -4230.167)" fill="#f2f1ee"/>
      <path id="Caminho_13247" data-name="Caminho 13247" d="M15974.791,6169.688c-1.613.458-3.482-.174-5.354-.174-.053,2.443-1.58,7.771-1.58,10.714a15.77,15.77,0,0,0,2.525.316l.313.555,35.906,2.694,1.01-2.68c.463-.613-.533-.39,1.186-.569l48.023-.034c.6-2.446,3.047-10.07,2.961-12l-49.967.147-.645,2.813c-3.045,1.042-13.383-.509-17.055-.941C15986.125,6169.824,15981.02,6169.153,15974.791,6169.688Z" transform="translate(-15110.719 -4909.751)" fill="#f2f1ee"/>
      <path id="Caminho_13248" data-name="Caminho 13248" d="M17091.145,9682.151c-.705,2.265.059,5.346.059,7.728l.143,1.235c14.182-.395,28.215-.061,42.4-.061,12.961,0,29.1-1.34,41.59.319,0-1.762.258-3.869-.279-5.441l.279-6.852-82.846.013-1.785.436Z" transform="translate(-16208.227 -8341.096)" fill="#f2f1ee"/>
      <path id="Caminho_13249" data-name="Caminho 13249" d="M16251.8,4795.992l30.6,2.294-.564-2.952,56.42-.465c.533-2.653,2.477-5.26,3.734-5.646,2.24-.686,13.389-.425,14.982-1.065-.611-1-6.937-4.657-8.121-4.737-3.92-.271-9.037.013-13.1.013l-.955.437c-.857.569-1.477,1.919-3.637,3.3-10.547,6.729-32.02,3.584-42.84-2.141l-2.287-1.642-20.064-.025c-4.877.4-13.268,4.109-15.635,7.117l-3.266,4.61h4.727Z" transform="translate(-15383.633 -3555.806)" fill="#f2f1ee"/>
      <path id="Caminho_13250" data-name="Caminho 13250" d="M16058.835,6001.451l-6.932-.279c0,1.749-.32,1.869-.32,3.466a11.187,11.187,0,0,1,5.047.8c6.23-.536,11.328.136,17.322.838,3.668.435,14.01,1.985,17.059.943l.639-2.812,49.971-.15a8.449,8.449,0,0,0,1.178-3.791l-50.271.083-.824,3.3Z" transform="translate(-15192.563 -4745.5)" fill="#191919"/>
      <path id="Caminho_13251" data-name="Caminho 13251" d="M16183.57,5316.938l-5.357.051c-.461.962-.477,2.18-.941,3.146a17.52,17.52,0,0,1,5.039.877,115.425,115.425,0,0,1,16.756.6c4.541.4,12.07,1.54,16.256,1.338l-.484-3.038,54.018-.086.988-3.544-56.23,0,.564,2.95-30.607-2.3Z" transform="translate(-15315.414 -4076.752)" fill="#191919"/>
      <path id="Caminho_13252" data-name="Caminho 13252" d="M15929.741,6709.88l-3.146.089a10.143,10.143,0,0,1-.639,3.455l4.066.349c.715.209.229.01.662.334a123.425,123.425,0,0,1,17.631.647c4.8.408,12.408,1.612,16.916,1.391l1.063-2.614c1.574-.813,20.764-.335,24.258-.366,7.633-.07,16.848-.643,24.258-.178l.885-3.341c-3.4-.3-47.537-.092-49.035.251l-1,2.679Z" transform="translate(-15069.773 -5438.531)" fill="#191919"/>
      <path id="Caminho_13253" data-name="Caminho 13253" d="M17169.785,9513.766l82.834-.007-.027-3.439c-1.354,0-1.006.169-1.865-.381-.24.137-.1.175-.645.256l-3.436.016c-11.732,0-67.939.326-69.33-.181a25.364,25.364,0,0,0-3.807,1.713C17172.252,9512.373,17170.662,9512.88,17169.785,9513.766Z" transform="translate(-16285.523 -8175.77)" fill="#191919"/>
      <path id="Caminho_13254" data-name="Caminho 13254" d="M17219.807,8109.7c2.146-.852,1.221-.5,2.2-1.607l26.893.134a21.1,21.1,0,0,0,7.354-2.354l-44.957-.124a30.452,30.452,0,0,1-.943,3.921Z" transform="translate(-16325.18 -6803.273)" fill="#191919"/>
      <path id="Caminho_13255" data-name="Caminho 13255" d="M17107.7,8303.778l-.385.882c2.8-.4,14.807-4.015,16.6-5.231-2.395-.2-3.682.035-4.641-1.5a4.334,4.334,0,0,1-.488-4.55h-9.461c0,2.713-2.2,8.579-1.625,10.4Z" transform="translate(-16224.469 -6986.662)" fill="#f2f1ee"/>
      <path id="Caminho_13256" data-name="Caminho 13256" d="M17084.8,4611.518l20.057.026c-1.023-2.143-2.156-2.545-3.816-4.054C17093.391,4607.49,17089.318,4608.285,17084.8,4611.518Z" transform="translate(-16202.453 -3383.961)" fill="#191919"/>
      <path id="Caminho_13257" data-name="Caminho 13257" d="M17808.688,5040.821c-1.393-10.608,15.107-13.229,16.48-2.051C17826.547,5050.057,17810.107,5051.672,17808.688,5040.821Zm-93.871-37.567,56.225,0-.988,3.543-3.213,11.9a8.278,8.278,0,0,1-1.18,3.789c.088,1.931-2.357,9.556-2.953,12l-48.033.033c-1.7.178-.725-.044-1.17.571,1.486-.345,45.623-.556,49.027-.251l-.877,3.337c-7.412-.463-16.633.112-24.258.182-3.5.03-22.684-.45-24.268.361l48.389-.188-3.2,11.907-.961,3.749-.49,2.46c2.424-.919,4.832-2.963,7.9-3.216,1.213,3.146-.869,3.635-1.477,6.248,4.818-1.359,10.473-5.977,16.627-5.286,5.967,4.181-3.949,13.155-6.074,14.691-7.318,5.275-11.98,4.916-17.057,7.295l27.164.049,18.352.008,9.125-.012c.4,0,1.27-.057,1.6-.031,1.92.149.717-.078,1.234.481,2.777-1.218,28.193-.214,33.734-.452,3.285-3.943,4.807-.622,7.453-8.276,1.418-4.1,2.3-8.6,3.633-12.516-.1-.416-.184-.315.246-.315l10.508-38.01c1.3-3.912,3.977-12.158,2.2-16.293a7.8,7.8,0,0,0-.857-1.35l-2.855-2.186c-3.891-1.918-10.557-1.375-15.3-1.4-2.105-.012-2.719.327-4.723.321-3.293-.012-5.879-.321-9.455-.321h-48.9c-1.6.641-12.746.378-14.992,1.067-1.246.385-3.191,2.99-3.727,5.642l-56.42.469Z" transform="translate(-16816.609 -3763.726)" fill="#686266"/>
      <path id="Caminho_13258" data-name="Caminho 13258" d="M17501.006,1751.407l18.945.048c-.766,4.3-4.377,6.543-9.342,6.634C17505.422,1758.185,17501.523,1756.209,17501.006,1751.407Zm34.32-9.84a7.348,7.348,0,0,1,2.7-4.287,4.408,4.408,0,0,1,2.258-1.211c2.5-.5,2.432.875,2.5,1.005-1.98.49-2.055.06-3.781,1.1,0,0,3.811,5.557-.326,6.317.047-1.574.766-2.085.617-3.1a2.817,2.817,0,0,0-1.725-1.914C17536.811,1740.466,17536.977,1741.473,17535.326,1741.568Zm-52.477-3.435c-1.664-.87-1.8-.633-3.771-1.065.436-2.459,6.461-.747,7.541,4.671-1.807-.446-1.273-1.175-2.8-2.132-2.107,1.933-.949,2.7-.291,4.921-1.361-.091-1.287.167-1.832-.725C17480.2,1741.361,17482.467,1739.2,17482.85,1738.132Zm.83,57.113c1.654,1.51,2.791,1.913,3.816,4.055l2.293,1.64c10.814,5.723,32.291,8.87,42.826,2.142,2.162-1.383,2.785-2.732,3.643-3.3l.957-.44c-.559-.229-.641-.009-.17-.315l.8-4.412a14.058,14.058,0,0,0-4.057-2.4,32.761,32.761,0,0,0-4.6-1.7c0-4.922-.252-9.579.291-14.2l.037-5.977c-.057-1.427-.328-1.173-.328-2.684-1.332,1.128-1.35,3.908-2.055,5.688a15.1,15.1,0,0,1-7.8,7.949c-7.785,3.013-12.463-.853-17.121-4.754-1.67-1.4-6.094-6.277-6.967-9.081,2.18.7,6.518,8.29,18.24,6.424,9.527-1.516,13.855-8.624,15.381-9.732,1.041-.6.348-.005.965-1.356l2.469-5.084a66.9,66.9,0,0,0,1.932-7.841c3.844,1.845,6.854-2.566,8.506-5.347a16.961,16.961,0,0,0,1.615-3.431c.789-2.187,1.719-5.32.775-8.112-.926-2.721-2.7-2.693-4.93-2.662-1.533.021-1.047-.057-2.189.488-1.512.845-1.76,2.357-2.158,4.366l-.086,1.832c-2.521,1.458-1.312.572-2.35,3.548a10.039,10.039,0,0,1-10.545,7.1c-11.648-.871-7.43-11.877-12.629-11.042l-.428.679c-.77,2.532-1.178,8.4.238,10.587,1.816.228,2.395-.911,4.266-.2a4.17,4.17,0,0,1-4.811,1.088c-1.986-1.009-1.342-3.1-1.434-5.623l-.65-.2c-1.992,1.846-1.146,2.111-4.238,3.607a10.941,10.941,0,0,1-6.621.948,9.226,9.226,0,0,1-7.965-8.035l-.506-1.781-1.877-.928c-.656-4.41-.807-3.208-2.373-6.115-1.861-.149-5.377-1.4-7.08,2.094-1.895,3.913,2.064,12.274,3.979,14.527,2.01,2.362,3,2.917,7.166,2.917,0,3.448,2.141,9.822,4.156,12.86,1.326,1.992,1.215,1.3,1.2,4.469-.039,7.468.3,15.27-.311,22.688a30.564,30.564,0,0,0-4.939,2.313,13.8,13.8,0,0,0-4.342,2.729Z" transform="translate(-16585.078 -571.716)" fill="#f1a295"/>
      <path id="Caminho_13259" data-name="Caminho 13259" d="M17754.658,39.37c1.561,2.906,1.705,1.7,2.373,6.115l1.865.928.514,1.781.162-.061c.242-1.812-1.012-9.072,6.408-11.586,7.525-2.548,10.9,3.565,12.2,4.467a4.291,4.291,0,0,0-2.637-3.658c-1.633-.922-.838-.018-.963-1.137a2.979,2.979,0,0,1,.582-.21l.762-.286a2.638,2.638,0,0,0,.244-.134l.381-4.247c-2.639-.013-6.592-.391-8.971.185-2.045.5-4.666,2.778-5.162,4.426l1.842.428a19.713,19.713,0,0,0-3.852,3.73c-2.133,3.176-.436,4.974-2.6,5.174-.113-1.526,1.855-8.927,2.289-11.151a97.227,97.227,0,0,0,1.613-11.982c1.789-.162,6.9,2.146,8.859,2.845a94.047,94.047,0,0,0,9.359,2.914c14.143,3.5,18.227.52,21.643.74l4.139,15.132.943.111c.41-2.01.664-3.521,2.17-4.367,0-2.7,1.6-9.853,1.74-12.233.029-.58-.17-1.407-.174-2.411-.012-2.836-.1-2.8.77-4.924a30.887,30.887,0,0,0,1.633-4.031,8.9,8.9,0,0,0,.193-4.99,14.021,14.021,0,0,0-1.65-4.024l-1.187-1.639c-1.764-2.211-5.865-4.1-9.123-4.74a33.531,33.531,0,0,0-12.924.157c-7.207,1.471-3.93.541-11.217,2.956-.887.292-1.381.447-2.092.747a5.871,5.871,0,0,1-2.209.63,8.473,8.473,0,0,0-.625-1.891c-4.676,0-11,3.863-12.572,8.225-.625,1.719-.773,4.15-1.729,5.521-1.795,2.591-4.127,4.774-4.3,9.559-.184,4.932.762,8.749,1.3,12.931Z" transform="translate(-16855.891 1119.565)" fill="#191919"/>
      <path id="Caminho_13260" data-name="Caminho 13260" d="M17655.889,8982.958l-49.09.2c-1.408.182-17.709,7.68-21.4,9.482-1.453.714-2.187.723-2.99,1.666l73.744.049Z" transform="translate(-16688.828 -7660.678)" fill="#f2f1ee"/>
      <path id="Caminho_13261" data-name="Caminho 13261" d="M17971.895,1000.931c1.316.55,1.428,1.883,1.643,3.731l3.787-.183c.688-1.327.92-3.119,1.719-4.421.99-1.645,1.871-2.077,3.629-2.975.146-.771.32-.486.936-1.219l-3.574-.268.051-4.263a45.343,45.343,0,0,1,8.609.035c2.166.285,4.748,2.442,4.885,4.151l.918.456-.752.968a8.948,8.948,0,0,1,3.486,3.54c2.158,3.488.246,4.45,2.129,4.756l.055-1.539-4.139-15.132c-3.412-.22-7.5,2.756-21.637-.74a94.168,94.168,0,0,1-9.367-2.914c-1.939-.7-7.066-3.007-8.85-2.845a98.373,98.373,0,0,1-1.621,11.982c-.434,2.224-2.4,9.625-2.293,11.151,2.176-.2.475-2,2.609-5.173a19.436,19.436,0,0,1,3.848-3.731l-1.838-.428c.5-1.648,3.113-3.927,5.168-4.426,2.373-.576,6.318-.2,8.955-.185l-.373,4.248c-.088.049-.186.106-.244.134l-.76.286a3.116,3.116,0,0,0-.584.21c.123,1.12-.676.215.961,1.137a4.312,4.312,0,0,1,2.645,3.659Z" transform="translate(-17049.594 159.648)" fill="#f1a295"/>
      <path id="Caminho_13262" data-name="Caminho 13262" d="M19147.246,1602.955c2.682-.969,3.994,3.688,1.111,4.417C19145.348,1608.135,19143.4,1604.348,19147.246,1602.955Zm-3.131-3.7c-2.926,1.793-5.287,7.363-3.508,11.887,3.654,9.295,17.7,7.682,18.791-2.49a10.009,10.009,0,0,0-1.678-6.751c-1.475-2.065-3.086-2.455-4.408-4-1.5.426-3.361-.308-5.076-.063C19146.445,1598.092,19145.645,1598.81,19144.115,1599.259Z" transform="translate(-18211.258 -442.182)" fill="#f1b2a9"/>
      <path id="Caminho_13263" data-name="Caminho 13263" d="M18042.061,1602.617c-1.6.027-2.914-.151-3.48-1.255a2.528,2.528,0,0,1,1.025-3.049C18042.27,1596.761,18044.117,1599.5,18042.061,1602.617Zm-12.092,2.507c.264.333.033-.147.434.659l.545,1.359c3.561,6.538,13.645,7.878,17.57-.2,1.877-3.86.471-5.345.061-8.936-1.3-.9-4.684-7.015-12.205-4.467C18028.955,1596.054,18030.205,1603.312,18029.969,1605.125Z" transform="translate(-17126.281 -437.427)" fill="#f1b2a9"/>
      <path id="Caminho_13264" data-name="Caminho 13264" d="M18351.08,3233.274a9.978,9.978,0,0,0-.328-3.5c-1.529,1.106-5.854,8.213-15.381,9.731-11.729,1.865-16.066-5.726-18.244-6.423.869,2.8,5.3,7.679,6.965,9.078,4.666,3.9,9.344,7.77,17.129,4.756a15.127,15.127,0,0,0,7.8-7.95C18349.729,3237.182,18349.734,3234.4,18351.08,3233.274Z" transform="translate(-17406.969 -2037.334)" fill="#191919"/>
      <path id="Caminho_13265" data-name="Caminho 13265" d="M21943.426,6578.706c1.414,10.848,17.863,9.233,16.477-2.055C21958.543,6565.475,21942.039,6568.1,21943.426,6578.706Z" transform="translate(-20951.352 -5301.605)" fill="#686266" stroke="#686266" stroke-width="1"/>
      <path id="Caminho_13266" data-name="Caminho 13266" d="M19119.5,8556.619l-27.156-.051c-4.816.948-10.973,4.8-12.82,5.09,8.16.582,25.008-.085,35.008.055,1.871.025,2.918.409,5.043.325Z" transform="translate(-18152.164 -7243.918)" fill="#f2f1ee"/>
      <path id="Caminho_13267" data-name="Caminho 13267" d="M17640.615,7411.007l.963-3.749-47.375.1-.508,3.62Z" transform="translate(-16699.867 -6120.545)" fill="#191919"/>
      <path id="Caminho_13268" data-name="Caminho 13268" d="M18663.4,8816.822l49.084-.2a1.283,1.283,0,0,0,.049-.163l.244-3.381-3.076-.019c-9.572-.308-25.045-.105-35.621-.022-.311,0-.986.034-1.264.011-.881-.084-.408,0-.932-.266C18670.119,8813.391,18664.535,8815.809,18663.4,8816.822Z" transform="translate(-17745.414 -7494.342)" fill="#191919"/>
      <path id="Caminho_13269" data-name="Caminho 13269" d="M17597.533,8211.165l-.3.29a4.338,4.338,0,0,0,.479,4.547c.965,1.535,2.252,1.306,4.643,1.5,3-.386,8.832-2.892,12.168-3.868,2.258-.651,11.1-2.914,12.107-3.941l-26.893-.135C17598.744,8210.671,17599.672,8210.316,17597.533,8211.165Z" transform="translate(-16702.898 -6904.738)" fill="#2c2b2b"/>
      <path id="Caminho_13270" data-name="Caminho 13270" d="M18572.4,2665.039c.514,4.8,4.408,6.778,9.6,6.683,4.967-.092,8.588-2.333,9.346-6.634Z" transform="translate(-17656.477 -1485.348)" fill="#f2f1ee"/>
      <path id="Caminho_13271" data-name="Caminho 13271" d="M18061.424,1578.951c1.316,1.549,2.924,1.94,4.395,4a9.907,9.907,0,0,1,1.688,6.751c-1.1,10.172-15.148,11.785-18.8,2.49-1.771-4.524.6-10.095,3.521-11.888l.207-.345c-1.75.9-2.635,1.329-3.629,2.975-.8,1.3-1.023,3.094-1.717,4.42l-3.781.182c-.215-1.848-.332-3.18-1.645-3.731.4,3.591,1.816,5.077-.066,8.936-3.918,8.079-14,6.739-17.566.2l-.553-1.36c-.4-.805-.172-.325-.434-.657l-.152.061a9.209,9.209,0,0,0,7.963,8.035,10.971,10.971,0,0,0,6.625-.946c3.08-1.5,2.23-1.762,4.232-3.607a19.937,19.937,0,0,0,1.164-2.632c.432-1.723-.172-2.418,1.234-3.029l.414-.679c5.2-.834.99,10.17,12.639,11.042a10.058,10.058,0,0,0,10.545-7.1c1.021-2.977-.186-2.091,2.35-3.548l.07-1.833-.943-.111-.062,1.539c-1.875-.306.037-1.268-2.127-4.755a8.936,8.936,0,0,0-3.488-3.541l.754-.967-.92-.456-1.912.553Z" transform="translate(-17119.367 -423.231)" fill="#2c2b2b"/>
      <path id="Caminho_13272" data-name="Caminho 13272" d="M19218,1390.363l-.211.345c1.527-.448,2.324-1.167,4.121-1.421,1.715-.244,3.57.49,5.078.064l1.914-.553c-.125-1.709-2.715-3.866-4.891-4.152a45.331,45.331,0,0,0-8.605-.035l-.043,4.263,3.574.268C19218.324,1389.877,19218.156,1389.592,19218,1390.363Z" transform="translate(-18284.938 -233.631)" fill="#191919"/>
      <path id="Caminho_13273" data-name="Caminho 13273" d="M20169.293,4583.959h5.686c2.393,0,3.58-.313,5.68-.313-.816-1.205-2.994-2.19-4.408-2.838a14.277,14.277,0,0,0-6.154-1.258Z" transform="translate(-19217.336 -3356.652)" fill="#191919"/>
      <path id="Caminho_13274" data-name="Caminho 13274" d="M17600.5,1982c1.971.432,2.115.2,3.779,1.066-.389,1.068-2.643,3.228-1.154,5.671.547.891.473.633,1.828.724-.65-2.224-1.828-2.988.3-4.922,1.52.957.986,1.686,2.8,2.132C17606.957,1981.254,17600.938,1979.542,17600.5,1982Z" transform="translate(-16706.516 -816.65)" fill="#d7726d"/>
      <path id="Caminho_13275" data-name="Caminho 13275" d="M20093.1,1986.306c1.641-.095,1.488-1.1,2.242-2.089a2.811,2.811,0,0,1,1.723,1.914c.141,1.013-.578,1.523-.625,3.1,4.148-.76.328-6.316.328-6.318,1.734-1.039,1.809-.608,3.781-1.1-.066-.13-.012-1.5-2.5-1a4.445,4.445,0,0,0-2.246,1.21A7.27,7.27,0,0,0,20093.1,1986.306Z" transform="translate(-19142.852 -816.453)" fill="#d7726d"/>
      <path id="Caminho_13276" data-name="Caminho 13276" d="M19369.275,1821.056c-3.848,1.394-1.9,5.18,1.107,4.418C19373.266,1824.745,19371.951,1820.086,19369.275,1821.056Z" transform="translate(-18433.289 -660.283)" fill="#454444"/>
      <path id="Caminho_13277" data-name="Caminho 13277" d="M18406.473,1816.69c2.049-3.121.2-5.856-2.463-4.3a2.511,2.511,0,0,0-1.016,3.05c.553,1.1,1.883,1.282,3.479,1.253Z" transform="translate(-17490.688 -651.5)" fill="#454444"/>
      <path id="Caminho_13278" data-name="Caminho 13278" d="M18856.8,2045.361l.645.2c.1,2.518-.551,4.612,1.438,5.623a4.162,4.162,0,0,0,4.809-1.088c-1.867-.717-2.449.422-4.27.195-1.4-2.183-1.008-8.054-.23-10.586-1.4.611-.793,1.306-1.227,3.029A20.47,20.47,0,0,1,18856.8,2045.361Z" transform="translate(-17934.469 -874.121)" fill="#d7726d"/>
      <text id="_0" data-name="0" transform="translate(906.693 1188.888)" fill="#dfdfdf" font-size="1" font-family="TheBoldFont, The Font"><tspan x="0" y="0">0</tspan></text>
      <g id="Grupo_4485" data-name="Grupo 4485" transform="translate(979.892 1264.082)">
        <path id="Caminho_13279" data-name="Caminho 13279" d="M3.46,10.6q-.122,0-.242-.012t-.24-.029q-.119-.018-.238-.045t-.235-.061q-.117-.035-.231-.078t-.223-.1q-.11-.053-.216-.114t-.208-.132a3.33,3.33,0,0,1-.334-.265,3.1,3.1,0,0,1-.29-.3,3.046,3.046,0,0,1-.245-.334A3.189,3.189,0,0,1,.306,7.964a3.38,3.38,0,0,1-.045-.429A3.752,3.752,0,0,1,.27,7.088l2.352.041a1.591,1.591,0,0,0,0,.2,1.118,1.118,0,0,0,.02.172.815.815,0,0,0,.045.15.647.647,0,0,0,.069.127q.041.058.079.106t.076.088a.969.969,0,0,0,.072.07.608.608,0,0,0,.068.052,1.042,1.042,0,0,0,.122.075.985.985,0,0,0,.264.094,1.053,1.053,0,0,0,.142.019,1.222,1.222,0,0,0,.145,0,1.236,1.236,0,0,0,.145-.016,1.3,1.3,0,0,0,.144-.034,1.43,1.43,0,0,0,.144-.051q.05-.02.1-.042t.087-.048a.93.93,0,0,0,.078-.053.818.818,0,0,0,.069-.058q.032-.03.06-.061t.053-.06q.025-.03.047-.059t.04-.058q.018-.029.033-.057t.027-.057q.012-.028.02-.056t.014-.055l.01-.052q0-.025.008-.047T4.8,7.37q0-.02,0-.037t0-.037q0-.02,0-.042t0-.047q0-.025,0-.053A.558.558,0,0,0,4.8,7.1q0-.029-.011-.058T4.77,6.98q-.01-.03-.023-.062t-.03-.062Q4.7,6.825,4.68,6.795t-.044-.061q-.024-.03-.051-.06a.807.807,0,0,0-.059-.058q-.032-.029-.069-.056t-.079-.054q-.042-.026-.089-.051L4.214,6.42l-.078-.033-.081-.032-.083-.03-.086-.03L3.8,6.263,3.708,6.23l-.093-.035-.171-.06-.174-.064L3.091,6l-.181-.071q-.091-.036-.182-.078t-.181-.09q-.09-.048-.18-.1t-.179-.114q-.116-.078-.221-.166a2.687,2.687,0,0,1-.2-.184,2.646,2.646,0,0,1-.18-.2,2.691,2.691,0,0,1-.16-.222q-.075-.115-.137-.235t-.113-.243q-.05-.124-.089-.252t-.065-.26Q1,3.651.982,3.517t-.016-.27q0-.136.009-.274T1.01,2.7q.023-.14.059-.276t.086-.27q.05-.133.113-.263t.139-.257q.072-.116.151-.225T1.724,1.2Q1.811,1.1,1.9,1T2.1.825q.1-.085.206-.16T2.52.523Q2.63.457,2.745.4T2.978.294Q3.1.246,3.22.208T3.468.143Q3.594.115,3.724.1T3.987.071q.133-.008.266,0t.266.018q.133.015.266.041t.266.063q.13.034.252.076T5.542.36q.115.052.224.112t.21.13q.1.07.2.146t.18.159q.086.083.164.173t.147.186q.071.1.132.2t.112.209q.051.107.093.22t.073.231q.032.118.054.239t.033.243q.011.123.011.248t-.01.253L4.823,3.065a.791.791,0,0,0,0-.147.505.505,0,0,0-.028-.123.371.371,0,0,0-.055-.1.353.353,0,0,0-.082-.076q-.048-.032-.093-.059t-.088-.048q-.043-.022-.083-.038t-.077-.027l-.019,0-.028,0-.037-.007-.047-.01-.053-.009-.057,0H4.012l-.065.007q-.033,0-.068.012t-.069.019q-.035.011-.071.026t-.072.033a.519.519,0,0,0-.07.042.549.549,0,0,0-.063.054.624.624,0,0,0-.057.065.75.75,0,0,0-.051.077.71.71,0,0,0-.053.111.624.624,0,0,0-.031.114.609.609,0,0,0-.008.117.665.665,0,0,0,.014.12.676.676,0,0,0,.034.115.6.6,0,0,0,.053.1.593.593,0,0,0,.071.09A.653.653,0,0,0,3.6,3.6l.1.056.1.053.107.051.112.048.117.047.12.046.124.045.127.044.116.038.117.039.117.041.118.043.118.045.118.049.119.052.12.056a3.375,3.375,0,0,1,.412.239,3.022,3.022,0,0,1,.359.286,2.888,2.888,0,0,1,.306.334,2.963,2.963,0,0,1,.253.381A3.05,3.05,0,0,1,6.968,6a2.969,2.969,0,0,1,.127.436,3.1,3.1,0,0,1,.061.457,3.506,3.506,0,0,1-.076.949,3.3,3.3,0,0,1-.134.449,3.345,3.345,0,0,1-.2.427,3.6,3.6,0,0,1-.259.405,3.539,3.539,0,0,1-.313.37,3.476,3.476,0,0,1-.358.321,3.609,3.609,0,0,1-.4.272,3.944,3.944,0,0,1-.448.223q-.093.04-.186.074t-.188.063q-.094.029-.189.051t-.19.04q-.1.017-.19.03t-.189.021q-.094.008-.188.011t-.188,0Z" transform="translate(38.125 1.286)"/>
        <path id="Caminho_13280" data-name="Caminho 13280" d="M3.13.06q.106.008.211.02t.207.028q.1.016.2.036t.2.044A1.088,1.088,0,0,0,4.02.564.971.971,0,0,0,4.2.871a.867.867,0,0,0,.275.208.834.834,0,0,0,.344.081H4.86a2.7,2.7,0,0,0,0,.434,1.315,1.315,0,0,0,.069.335.531.531,0,0,0,.137.217.306.306,0,0,0,.2.08.422.422,0,0,0,.122-.017.652.652,0,0,0,.13-.054,1.04,1.04,0,0,0,.136-.088,1.6,1.6,0,0,0,.14-.12,1.8,1.8,0,0,0,.13.275,1.092,1.092,0,0,0,.156.209.651.651,0,0,0,.179.133.469.469,0,0,0,.2.049A.479.479,0,0,0,6.587,2.6a.582.582,0,0,0,.126-.049.788.788,0,0,0,.123-.081,1.106,1.106,0,0,0,.119-.111q.072.117.137.238t.124.247q.059.126.112.257t.1.266a4.6,4.6,0,0,1,.132.467,4.7,4.7,0,0,1,.083.482,4.95,4.95,0,0,1,.034.5q0,.252-.015.511t-.062.5q-.043.247-.108.485t-.154.468q-.088.23-.2.451T6.9,7.655q-.128.207-.273.4t-.307.373q-.162.18-.34.346t-.37.315q-.192.149-.4.281t-.423.247q-.218.115-.449.213t-.47.174q-.239.076-.486.13t-.5.085q-.255.032-.518.041L0,10.222.76,0,3.131.046Zm.228,4.029a.465.465,0,0,1,.2.076.85.85,0,0,1,.191.171.873.873,0,0,1,.141.235.637.637,0,0,1,.047.267,2.008,2.008,0,0,1-.275-.04c-.121-.023-.264-.054-.406-.084s-.283-.061-.4-.084A1.918,1.918,0,0,0,2.6,4.59a.329.329,0,0,1,.142-.184.563.563,0,0,1,.212-.074,1.165,1.165,0,0,1,.2-.012c.056,0,.1,0,.107,0a.278.278,0,0,0,.048-.014.064.064,0,0,0,.018-.011.068.068,0,0,1,.018-.012.259.259,0,0,1,.047-.015c0-.027,0-.048,0-.064a.189.189,0,0,0,0-.04.172.172,0,0,0-.011-.033l-.02-.043Zm.666-.615h.04l.152.025a.8.8,0,0,1-.038.2.887.887,0,0,1-.067.149c-.025.046-.052.089-.078.137a.922.922,0,0,0-.069.162c.04.067.076.123.108.176a1.042,1.042,0,0,1,.081.155.69.69,0,0,1,.045.181,1.329,1.329,0,0,1,0,.254.3.3,0,0,1,.076.012.151.151,0,0,1,.052.026.111.111,0,0,1,.031.039.145.145,0,0,1,.013.049l-.007.092c0,.022-.011.045-.018.068s-.015.047-.023.071l-.025.07c-.008.023-.016.046-.023.068l-.227.018a.559.559,0,0,1-.027.11c-.014.044-.033.093-.053.143s-.041.1-.06.146-.036.088-.049.12c-.031.082-.077.205-.132.347s-.117.3-.179.456-.124.306-.178.43a2.618,2.618,0,0,1-.129.269L2.459,7.3l-.095-.02-.094-.019-.094-.019-.094-.018L1.99,7.2l-.1-.021-.1-.02c-.032-.006-.063-.011-.093-.014l.011-.14.011-.14.01-.14q.005-.07.01-.14c0-.049.008-.094.013-.137s.011-.084.017-.125.012-.083.018-.128.011-.092.015-.145c.007-.1.015-.189.024-.278s.018-.176.027-.263.019-.173.027-.261.017-.178.024-.272a.3.3,0,0,1-.076-.012.151.151,0,0,1-.052-.026A.111.111,0,0,1,1.753,4.9a.144.144,0,0,1-.013-.049l.007-.092c0-.022.01-.045.017-.068s.015-.047.023-.071l.025-.07c.008-.023.016-.046.023-.068l.058-.011.046-.006.051,0h.073a.443.443,0,0,1,.059-.154.843.843,0,0,1,.109-.142,1.324,1.324,0,0,1,.13-.121,1.451,1.451,0,0,1,.123-.09,1.194,1.194,0,0,1,.321-.149,1.041,1.041,0,0,1,.321-.04,1.179,1.179,0,0,1,.316.055,1.587,1.587,0,0,1,.308.136c.006-.018.021-.056.042-.1s.047-.1.076-.155.058-.107.085-.148a.279.279,0,0,1,.07-.083Z" transform="translate(27.006 1.231)"/>
        <path id="Caminho_13281" data-name="Caminho 13281" d="M6.809,2.482,2.919,2.409l-.1,1.549L5.9,4.015,5.737,6.369,2.66,6.315,2.4,10.28,0,10.24.672,0l6.3.122Z" transform="translate(0.395 0.839)"/>
        <g id="Grupo_4483" data-name="Grupo 4483" transform="translate(45.157)">
          <g id="_1931372768816">
            <path id="Caminho_13282" data-name="Caminho 13282" d="M.895.618.9.61A.351.351,0,0,0,.728.6,1.259,1.259,0,0,0,.493.661a1.294,1.294,0,0,0-.227.1A.435.435,0,0,0,.121.887C.032.9,0,.839.011.753A.723.723,0,0,1,.177.432,1.2,1.2,0,0,1,.563.124a.97.97,0,0,1,.549-.1.289.289,0,0,1,.105.058.285.285,0,0,1,.07.092.3.3,0,0,1,.028.114A.314.314,0,0,1,1.3.412.333.333,0,0,1,1.231.52a.34.34,0,0,1-.1.075A.329.329,0,0,1,1.017.63.306.306,0,0,1,.895.618Z"/>
          </g>
          <path id="Caminho_13283" data-name="Caminho 13283" d="M.912.028A.523.523,0,0,0,.619.05,1.377,1.377,0,0,0,.291.206.919.919,0,0,0,.053.414C0,.483-.012.548.029.594" transform="translate(0.092 0.293)" fill="none"/>
          <g id="_1931372771312" transform="translate(0.857 0.9)">
            <path id="Caminho_13284" data-name="Caminho 13284" d="M.955.709C.812.613.715.552.641.511A1.019,1.019,0,0,0,.472.431C.425.414.38.4.314.382S.163.331.035.277A.817.817,0,0,1,.314.067.7.7,0,0,1,.605.011a1.4,1.4,0,0,1,.31.044c.107.025.218.059.334.092A.284.284,0,0,1,1.4.32a.3.3,0,0,1,.012.117.32.32,0,0,1-.036.12.337.337,0,0,1-.184.161.322.322,0,0,1-.119.019A.3.3,0,0,1,.955.708Z"/>
          </g>
          <path id="Caminho_13285" data-name="Caminho 13285" d="M1.078.222C.981.176.893.135.81.1A1.37,1.37,0,0,0,.565.026.937.937,0,0,0,.31.01a1.316,1.316,0,0,0-.3.061" transform="translate(0.882 1.106)" fill="none"/>
          <g id="_1931372774352" transform="translate(0.368 1.77)">
            <path id="Caminho_13286" data-name="Caminho 13286" d="M.8.7C.667.606.586.545.529.5S.44.435.409.407.349.348.3.293.173.159.055.035C.241.028.357.02.439.015a.994.994,0,0,1,.173,0A.879.879,0,0,1,.774.053c.075.023.181.058.353.108a.284.284,0,0,1,.09.079.288.288,0,0,1,.049.105.3.3,0,0,1,0,.118A.324.324,0,0,1,1.226.58a.338.338,0,0,1-.194.149.32.32,0,0,1-.12.011A.3.3,0,0,1,.8.7Z"/>
          </g>
          <path id="Caminho_13287" data-name="Caminho 13287" d="M.936.4C.866.359.793.321.719.284S.569.213.493.18.339.115.262.085.107.026.03,0" transform="translate(0.393 1.804)" fill="none"/>
        </g>
        <g id="Grupo_4484" data-name="Grupo 4484" transform="translate(24.911 14.285)">
          <path id="machine" d="M1.937.644H1.931l-.005,0,0,0,0,0L1,2.442V2.45a.018.018,0,0,0,0,.008l0,.006.006,0,.007,0h.006l.006,0,0,0,0,0L1.932.712,2.318,1.79l-.342.667v.008a.018.018,0,0,0,0,.008l0,.006.006,0,.007,0H2L2,2.48l0,0,0,0,.325-.633.23.641,0,0,0,0,.005,0H2.59l.007,0,0-.006a.02.02,0,0,0,0-.007.015.015,0,0,0,0,0V2.466l-.242-.675L2.906.728,3.538,2.5l0,0,0,0,0,0h.013l.007,0,0-.006a.02.02,0,0,0,0-.007.015.015,0,0,0,0,0V2.481L2.928.672l0,0,0,0-.005,0H2.905L2.9.663l0,0,0,0-.549,1.07L1.954.656l0,0,0,0-.005,0H1.937Zm3.189.05H5.12L5.115.7l0,0,0,0L4.191,2.49V2.5a.018.018,0,0,0,0,.008l0,.006.006,0,.007,0h.006l.005,0,0,0,0,0,.9-1.743.63,1.767,0,0,0,0,.005,0h.013l.007,0,0-.006a.02.02,0,0,0,0-.007.015.015,0,0,0,0,0V2.515L5.143.707l0,0,0,0,0,0H5.126ZM7.467.732A1.015,1.015,0,0,0,7.093.8a.971.971,0,0,0-.309.188.959.959,0,0,0-.218.288.986.986,0,0,0-.1.363A.922.922,0,0,0,6.51,2a.813.813,0,0,0,.173.294.824.824,0,0,0,.28.2.951.951,0,0,0,.363.075,1.041,1.041,0,0,0,.193-.015A1,1,0,0,0,7.7,2.5a.976.976,0,0,0,.165-.08.962.962,0,0,0,.145-.108l0,0,0,0,0,0v0a.018.018,0,0,0,0-.008l0-.006-.006,0L8,2.281H7.992l0,0,0,0a.921.921,0,0,1-.138.1.932.932,0,0,1-.157.076.956.956,0,0,1-.173.047,1,1,0,0,1-.186.014.919.919,0,0,1-.349-.072.784.784,0,0,1-.268-.188.773.773,0,0,1-.165-.281.891.891,0,0,1-.041-.351A.952.952,0,0,1,6.6,1.287a.913.913,0,0,1,.208-.276.924.924,0,0,1,.3-.18A.981.981,0,0,1,7.464.77a.969.969,0,0,1,.183.02.867.867,0,0,1,.166.052.8.8,0,0,1,.145.081.772.772,0,0,1,.122.107l0,0,0,0H8.1l.007,0,0-.006a.02.02,0,0,0,0-.007.016.016,0,0,0,0,0v0l0,0,0,0A.806.806,0,0,0,7.982.892.841.841,0,0,0,7.83.807.906.906,0,0,0,7.657.753,1.006,1.006,0,0,0,7.467.732ZM8.94.755H8.932l-.006,0,0,.006a.02.02,0,0,0,0,.007h0L8.781,2.568a.018.018,0,0,0,0,.008l0,.006.006,0,.007,0h.008l.007,0,0-.006a.02.02,0,0,0,0-.007l.067-.878,1.259.02-.068.877h0a.018.018,0,0,0,0,.007l0,.006.006,0,.007,0h.008l.007,0,0-.006a.02.02,0,0,0,0-.007h0L10.257.8h0a.018.018,0,0,0,0-.008l0-.006-.006,0-.007,0h-.008l-.006,0,0,.006a.02.02,0,0,0,0,.007h0l-.068.878-1.259-.02L8.958.775h0a.018.018,0,0,0,0-.008l0-.006-.006,0-.007,0h0Zm2.13.053L10.931,2.6h0a.018.018,0,0,0,0,.007l0,.006.006,0,.007,0h.008l.007,0,0-.006a.02.02,0,0,0,0-.007h0L11.109.809h0a.018.018,0,0,0,0-.008l0-.006-.006,0-.007,0h-.008l-.006,0,0,.006a.02.02,0,0,0,0,.007Zm2.169.015h-.008l-.006,0,0,.006a.02.02,0,0,0,0,.007h0l-.135,1.732L11.958.811l0,0,0,0,0,0h-.012l-.007,0,0,.006a.02.02,0,0,0,0,.007h0l-.139,1.793h0a.018.018,0,0,0,0,.008l0,.006.006,0,.007,0h.008l.007,0,0-.006a.02.02,0,0,0,0-.007h0L11.956.882l1.125,1.763,0,0,0,0,0,0H13.1l.006,0,0-.006a.02.02,0,0,0,0-.007l.14-1.792h0a.018.018,0,0,0,0-.008l0-.006-.006,0-.007,0h0Zm.851.014h-.008l-.007,0,0,.006a.02.02,0,0,0,0,.007.018.018,0,0,0,0,.008l0,.006.006,0,.007,0,1.3.02h.008l.007,0,0-.006a.02.02,0,0,0,0-.007.018.018,0,0,0,0-.008l0-.006-.006,0-.007,0Zm-.07.9h-.008l-.007,0,0,.006a.02.02,0,0,0,0,.007.018.018,0,0,0,0,.007l0,.006.006,0,.007,0,1.165.018h.008l.007,0,0-.006a.02.02,0,0,0,0-.007.018.018,0,0,0,0-.007l0-.006-.006,0-.007,0Zm-.07.9h-.008l-.007,0,0,.006a.02.02,0,0,0,0,.007.018.018,0,0,0,0,.007l0,.006.006,0,.007,0h0l1.295.02h.008l.006,0,0-.006a.02.02,0,0,0,0-.007.018.018,0,0,0,0-.007l0-.006-.006,0-.007,0h0Z" transform="translate(0 0)" stroke="#000" stroke-linecap="round" stroke-linejoin="round" stroke-width="0.5"/>
        </g>
        <g id="_1931378527424" transform="translate(17.18 0.944)">
          <path id="Caminho_13288" data-name="Caminho 13288" d="M.715,4.6a.588.588,0,0,1,.364.13,2.154,2.154,0,0,1,.317.311,4.773,4.773,0,0,0,.335.358,1.3,1.3,0,0,0,.417.271,1.346,1.346,0,0,0,.771.058,1.574,1.574,0,0,0,.36-.126,1.92,1.92,0,0,0,.331-.207l.081-.065L3.8,5.242c.037-.029.074-.057.107-.08a.443.443,0,0,1,.08-.047c-.006.067-.012.125-.018.179s-.01.1-.012.151a1.36,1.36,0,0,0,0,.149,1.606,1.606,0,0,0,.131.542,1.634,1.634,0,0,0,.818.83,1.717,1.717,0,0,0,.644.156,1.783,1.783,0,0,0,.6-.08,1.98,1.98,0,0,0,.516-.247,1.818,1.818,0,0,0,.387-.346L7.093,6.4l.042-.056.041-.058.038-.059A1.511,1.511,0,0,0,7.3,6.071c.015-.033.021-.05.028-.062a.09.09,0,0,1,.038-.032l.114-.062A2.576,2.576,0,0,0,7.8,5.7c.1-.077.2-.155.3-.224A1.3,1.3,0,0,1,8.424,5.3a1.168,1.168,0,0,1,.977.139A1.831,1.831,0,0,1,9.76,5.8a2.474,2.474,0,0,0,.349.373,1.093,1.093,0,0,0,.531.232,2.087,2.087,0,0,1-.064.245c-.028.087-.061.177-.1.266s-.072.177-.109.258-.072.157-.1.221a5.1,5.1,0,0,1-.419.7,5.5,5.5,0,0,1-.522.628,5.59,5.59,0,0,1-.6.54,5.285,5.285,0,0,1-.659.436,5.425,5.425,0,0,1-2.315.69,5.022,5.022,0,0,1-2.2-.359A4.755,4.755,0,0,1,1.772,8.775,4.665,4.665,0,0,1,.737,6.769a4.733,4.733,0,0,1-.1-.53,4.361,4.361,0,0,1-.032-.518,5.291,5.291,0,0,1,.027-.537C.652,5,.68,4.8.715,4.6ZM5.73,3.884a1.483,1.483,0,0,1,.618.1,1.386,1.386,0,0,1,.477.315,1.432,1.432,0,0,1,.413,1.012,1.519,1.519,0,0,1-.133.616,1.583,1.583,0,0,1-.345.488,1.681,1.681,0,0,1-.488.328,1.584,1.584,0,0,1-.563.135,1.5,1.5,0,0,1-.62-.1,1.387,1.387,0,0,1-.479-.314,1.432,1.432,0,0,1-.416-1.013,1.518,1.518,0,0,1,.133-.618,1.574,1.574,0,0,1,.346-.489,1.682,1.682,0,0,1,.49-.328A1.6,1.6,0,0,1,5.73,3.884ZM4.549,1.522a2.872,2.872,0,0,0,.318-.011,1.391,1.391,0,0,0,.254-.047,1.105,1.105,0,0,0,.219-.091,1.628,1.628,0,0,0,.214-.141,1.34,1.34,0,0,0,.205-.192A1.135,1.135,0,0,0,5.9.833,1.512,1.512,0,0,0,6,.606c.027-.08.051-.166.074-.257a3.584,3.584,0,0,1,.592.038,5.234,5.234,0,0,1,.614.127A5.468,5.468,0,0,1,7.853.7a3.761,3.761,0,0,1,.479.224c.15.085.28.163.4.24s.222.153.321.232.194.163.29.257.2.2.3.314a3.933,3.933,0,0,1,.31.386,4.505,4.505,0,0,1,.278.447,4.862,4.862,0,0,1,.535,1.6,4.344,4.344,0,0,1,.045.553,5.186,5.186,0,0,1-.023.576c-.019.2-.048.408-.086.63a.405.405,0,0,1-.122-.02.836.836,0,0,1-.127-.052,1.207,1.207,0,0,1-.114-.065.972.972,0,0,1-.085-.061c-.031-.025-.059-.051-.086-.077s-.052-.052-.076-.078-.047-.053-.069-.08l-.067-.081c-.04-.048-.081-.1-.127-.151a1.934,1.934,0,0,0-.15-.154A1.344,1.344,0,0,0,9.5,5.2a1.185,1.185,0,0,0-.227-.112A1.334,1.334,0,0,0,9,5.024a1.481,1.481,0,0,0-.546.026,1.323,1.323,0,0,0-.245.084,1.732,1.732,0,0,0-.242.138c-.076.051-.147.105-.212.157s-.124.1-.175.138a.613.613,0,0,1-.129.081c.008-.114.017-.216.022-.311a1.939,1.939,0,0,0,0-.274,1.248,1.248,0,0,0-.055-.272,1.716,1.716,0,0,0-.136-.307,1.581,1.581,0,0,0-.691-.665,1.752,1.752,0,0,0-.9-.168,1.919,1.919,0,0,0-.892.3,1.808,1.808,0,0,0-.652.734.628.628,0,0,1-.049.091.1.1,0,0,1-.042.034c-.017.008-.04.016-.075.034a1.236,1.236,0,0,0-.148.09c-.1.066-.186.138-.277.207a3.025,3.025,0,0,1-.279.2,1.256,1.256,0,0,1-.312.138,1.091,1.091,0,0,1-.378.035,1.288,1.288,0,0,1-.164-.023,1.182,1.182,0,0,1-.15-.041,1.054,1.054,0,0,1-.134-.057.906.906,0,0,1-.116-.071,1.584,1.584,0,0,1-.269-.259c-.082-.1-.159-.2-.246-.29a1.412,1.412,0,0,0-.3-.256,1.127,1.127,0,0,0-.424-.155l.026-.1a.454.454,0,0,1,.072.008l.087.017.094.018a.783.783,0,0,0,.093.011,1.363,1.363,0,0,0,.511-.075A1.408,1.408,0,0,0,2.1,3.974a1.364,1.364,0,0,0,.481-.924.369.369,0,0,1,.063.022l.074.033c.028.012.061.025.1.037a1.194,1.194,0,0,0,.138.035q.054.011.109.017t.109.007q.054,0,.108,0t.106-.01a1.348,1.348,0,0,0,.351-.1,1.431,1.431,0,0,0,.57-.443,1.328,1.328,0,0,0,.18-.316,1.408,1.408,0,0,0,.069-.221,1.038,1.038,0,0,0,.024-.193,1.412,1.412,0,0,0-.009-.189c-.007-.065-.017-.133-.028-.208Zm-.323-.149a.244.244,0,0,0,.022.066c.012.027.026.06.041.1a.876.876,0,0,1,.039.144,1,1,0,0,1,.015.2,1.062,1.062,0,0,1-.16.538,1.15,1.15,0,0,1-.387.38,1.129,1.129,0,0,1-.516.16,1.029,1.029,0,0,1-.545-.12A.64.64,0,0,1,2.676,2.8l-.049-.036-.046-.035c-.015-.012-.031-.023-.048-.034a.148.148,0,0,0-.07-.024.113.113,0,0,0-.062.014.12.12,0,0,0-.046.046.162.162,0,0,0-.02.072c0,.026,0,.05,0,.074s0,.046,0,.07,0,.048,0,.074a.722.722,0,0,1-.007.086,1.064,1.064,0,0,1-.17.441,1.167,1.167,0,0,1-.335.33,1.129,1.129,0,0,1-.441.17A1.044,1.044,0,0,1,.9,4.011C.837,3.991.788,3.974.75,3.966a.109.109,0,0,0-.088.01A.192.192,0,0,0,.6,4.07c-.018.049-.037.117-.062.209A5.317,5.317,0,0,0,.4,5.018a5.464,5.464,0,0,0-.039.745,5.127,5.127,0,0,0,.063.725,4.379,4.379,0,0,0,.163.677,5.9,5.9,0,0,0,.226.586,4.6,4.6,0,0,0,.271.512,4.654,4.654,0,0,0,.33.469c.121.152.255.3.4.454.078.08.163.16.255.238s.188.155.289.228.2.144.308.21.209.127.313.182a5.138,5.138,0,0,0,1.69.546,5.433,5.433,0,0,0,1.747-.041A5.749,5.749,0,0,0,9.513,8.874a5.65,5.65,0,0,0,.925-1.282,5.4,5.4,0,0,0,.51-1.427,5.268,5.268,0,0,0,.091-1.485A5.2,5.2,0,0,0,10.7,3.222a4.406,4.406,0,0,0-.438-.848c-.085-.129-.177-.253-.274-.375s-.2-.241-.31-.361a3.757,3.757,0,0,0-.339-.324,4.9,4.9,0,0,0-.4-.3C8.81.917,8.665.828,8.519.747S8.225.592,8.078.528Q7.952.474,7.82.425T7.552.335Q7.416.293,7.275.258T6.988.2q-.12-.023-.242-.04T6.5.127Q6.377.116,6.253.11T6,.1a.3.3,0,0,0-.081.008A.106.106,0,0,0,5.873.14.133.133,0,0,0,5.844.2a.474.474,0,0,0-.015.086,1.072,1.072,0,0,1-.071.3,1.059,1.059,0,0,1-.136.242,1.158,1.158,0,0,1-.176.188,1.242,1.242,0,0,1-.194.136,1.052,1.052,0,0,1-.115.056,1.114,1.114,0,0,1-.128.044,1.109,1.109,0,0,1-.138.029,1.062,1.062,0,0,1-.145.011,1,1,0,0,1-.174-.019c-.059-.01-.117-.022-.167-.026a.2.2,0,0,0-.122.019.112.112,0,0,0-.039.114Z"/>
          <path id="Caminho_13289" data-name="Caminho 13289" d="M.24.013A.138.138,0,0,0,.188.045.105.105,0,0,0,.161.091a.137.137,0,0,0,0,.056A.223.223,0,0,0,.177.209c.031.067.063.135.1.2s.071.136.109.2S.46.747.5.81.582.936.625.994l.183.235c.075.093.152.18.233.264s.164.163.251.24.178.15.274.221.195.14.3.208l.08.053c.034.022.073.046.112.067a.658.658,0,0,0,.118.051.16.16,0,0,0,.1.005.106.106,0,0,0,.043-.03.137.137,0,0,0,.027-.049A.13.13,0,0,0,2.348,2.2a.107.107,0,0,0-.022-.053L1.8,1.813a3.789,3.789,0,0,1-.411-.339A4.632,4.632,0,0,1,1,1.059,4.348,4.348,0,0,1,.662.6,3.209,3.209,0,0,1,.414.124C.407.108.4.091.392.074A.174.174,0,0,0,.36.029.092.092,0,0,0,.312,0,.136.136,0,0,0,.24.013Z" transform="translate(1.081 7.265)"/>
          <path id="Caminho_13290" data-name="Caminho 13290" d="M.713.02C.676.032.637.046.6.062L.474.113.351.168.234.22.174.244C.153.252.132.261.111.27A.278.278,0,0,0,.056.3.12.12,0,0,0,.02.349.138.138,0,0,0,.009.422.1.1,0,0,0,.036.478.112.112,0,0,0,.093.509a.165.165,0,0,0,.077,0A.478.478,0,0,0,.219.488L.286.459.354.428.408.4.524.357C.569.338.619.318.666.3A1.1,1.1,0,0,0,.791.233.163.163,0,0,0,.858.171.135.135,0,0,0,.867.1.1.1,0,0,0,.839.044.105.105,0,0,0,.785.015.139.139,0,0,0,.713.02Z" transform="translate(4.574 9.017)"/>
          <path id="Caminho_13291" data-name="Caminho 13291" d="M.7.023C.66.037.621.052.583.068L.467.118.352.169.234.221.172.244C.15.252.128.26.108.27A.245.245,0,0,0,.053.3.118.118,0,0,0,.018.353.136.136,0,0,0,.01.427a.1.1,0,0,0,.03.055A.115.115,0,0,0,.1.51a.148.148,0,0,0,.072,0L.222.487.283.461.345.433.4.41.511.363C.556.344.606.323.654.3A1.337,1.337,0,0,0,.783.238.176.176,0,0,0,.851.18.142.142,0,0,0,.865.1.1.1,0,0,0,.838.045.107.107,0,0,0,.779.015.154.154,0,0,0,.7.023Z" transform="translate(8.703 7.251)"/>
          <path id="Caminho_13292" data-name="Caminho 13292" d="M.7.023C.664.037.625.053.586.069L.47.119.353.17.235.222.174.245C.152.254.13.263.109.273A.274.274,0,0,0,.053.307.115.115,0,0,0,.018.353.136.136,0,0,0,.01.428.1.1,0,0,0,.041.484.116.116,0,0,0,.1.513a.148.148,0,0,0,.073,0L.225.488.285.462.346.435.4.411.5.37C.546.352.6.33.647.308A1.469,1.469,0,0,0,.783.24.188.188,0,0,0,.855.181.14.14,0,0,0,.868.1.1.1,0,0,0,.84.046.108.108,0,0,0,.782.015.149.149,0,0,0,.7.023Z" transform="translate(2.097 4.437)"/>
          <path id="Caminho_13293" data-name="Caminho 13293" d="M.709.022C.669.035.629.05.589.067L.47.118.35.172.231.222.169.247C.147.255.126.264.106.274A.258.258,0,0,0,.052.308.116.116,0,0,0,.018.354.135.135,0,0,0,.01.425.105.105,0,0,0,.037.48.11.11,0,0,0,.092.511a.152.152,0,0,0,.075,0L.64.306.7.285C.717.277.739.268.76.258A.308.308,0,0,0,.819.223.117.117,0,0,0,.856.177.137.137,0,0,0,.866.1.105.105,0,0,0,.783.016.138.138,0,0,0,.709.021Z" transform="translate(9.033 3.714)"/>
          <path id="Caminho_13294" data-name="Caminho 13294" d="M.624.014A.578.578,0,0,0,.536.045C.5.06.457.08.414.1L.29.158.2.2.142.225A.528.528,0,0,0,.088.25.194.194,0,0,0,.044.282.115.115,0,0,0,.015.328.136.136,0,0,0,.01.395.1.1,0,0,0,.036.447a.109.109,0,0,0,.052.03.158.158,0,0,0,.072,0A.543.543,0,0,0,.239.449L.365.392.5.331.585.289.638.266A.469.469,0,0,0,.691.241.183.183,0,0,0,.734.207.114.114,0,0,0,.761.159.127.127,0,0,0,.763.1.108.108,0,0,0,.688.016.129.129,0,0,0,.624.014Z" transform="translate(0.912 5.614)"/>
          <path id="Caminho_13295" data-name="Caminho 13295" d="M.306.017A.165.165,0,0,0,.262.042.11.11,0,0,0,.235.075.4.4,0,0,0,.215.122C.207.141.2.164.187.192L.147.283.088.422C.068.47.049.518.034.556A.444.444,0,0,0,.009.634.122.122,0,0,0,.017.689.1.1,0,0,0,.048.732.106.106,0,0,0,.1.754.154.154,0,0,0,.168.747.142.142,0,0,0,.236.689.609.609,0,0,0,.292.582C.309.542.325.5.339.459S.367.383.379.355L.4.305.429.239C.438.216.447.193.454.173A.223.223,0,0,0,.466.123.122.122,0,0,0,.456.065.1.1,0,0,0,.422.024.1.1,0,0,0,.371.006.141.141,0,0,0,.306.017Z" transform="translate(7.01 8.398)"/>
          <path id="Caminho_13296" data-name="Caminho 13296" d="M.3.018A.151.151,0,0,0,.26.044.12.12,0,0,0,.233.078.433.433,0,0,0,.213.127C.205.146.2.168.186.194L.163.25.14.3.117.36.094.415.073.463.045.527C.036.549.027.571.02.591A.207.207,0,0,0,.009.638.118.118,0,0,0,.018.693.109.109,0,0,0,.05.736.11.11,0,0,0,.1.758.145.145,0,0,0,.168.752C.192.745.223.7.255.645a2.179,2.179,0,0,0,.1-.209C.384.361.412.286.433.229s.033-.1.034-.1A.121.121,0,0,0,.457.067.1.1,0,0,0,.423.025.105.105,0,0,0,.37.006.14.14,0,0,0,.3.018Z" transform="translate(3.524 3.451)"/>
          <path id="Caminho_13297" data-name="Caminho 13297" d="M.311.015A.17.17,0,0,0,.26.044.137.137,0,0,0,.23.083a.372.372,0,0,0-.022.05C.2.151.193.172.184.2L.143.29C.125.331.1.38.084.428S.045.523.031.562A.348.348,0,0,0,.008.643.111.111,0,0,0,.02.695.109.109,0,0,0,.053.734.113.113,0,0,0,.1.755.137.137,0,0,0,.165.749.136.136,0,0,0,.227.693.692.692,0,0,0,.285.587C.3.546.32.5.336.461S.367.381.38.349L.4.3.431.234C.44.212.448.19.455.17A.212.212,0,0,0,.466.12.118.118,0,0,0,.456.064.1.1,0,0,0,.423.024.1.1,0,0,0,.373.006.138.138,0,0,0,.311.015Z" transform="translate(3.216 7.764)"/>
          <path id="Caminho_13298" data-name="Caminho 13298" d="M.417.02A.172.172,0,0,0,.375.046.216.216,0,0,0,.342.081C.332.094.321.109.309.127S.284.166.267.189L.232.236.2.281.166.326.132.371.1.414.062.466A.607.607,0,0,0,.028.52.157.157,0,0,0,.01.566.124.124,0,0,0,.015.628.108.108,0,0,0,.105.7.15.15,0,0,0,.178.688.424.424,0,0,0,.258.6C.3.555.345.492.392.428S.485.3.52.246A.532.532,0,0,0,.581.138.116.116,0,0,0,.576.074.1.1,0,0,0,.539.028.114.114,0,0,0,.483.009.138.138,0,0,0,.417.02Z" transform="translate(6.484 1.208)"/>
          <path id="Caminho_13299" data-name="Caminho 13299" d="M.324.01A.151.151,0,0,0,.271.034.127.127,0,0,0,.238.071a.336.336,0,0,0-.024.05C.207.141.2.162.19.185L.009.632A.131.131,0,0,0,.015.689.1.1,0,0,0,.044.733.106.106,0,0,0,.092.757a.152.152,0,0,0,.066,0A.123.123,0,0,0,.222.7.623.623,0,0,0,.281.6C.3.559.317.515.333.473S.365.391.379.358L.4.308.428.243C.437.221.446.2.453.18A.242.242,0,0,0,.466.131.122.122,0,0,0,.459.076.108.108,0,0,0,.431.033.1.1,0,0,0,.384.009.126.126,0,0,0,.324.01Z" transform="translate(6.712 2.619)"/>
          <path id="Caminho_13300" data-name="Caminho 13300" d="M.136,0A.148.148,0,0,0,.079.028.132.132,0,0,0,.04.073.113.113,0,0,0,.026.129.124.124,0,0,0,.045.191.658.658,0,0,0,.127.248C.174.279.237.318.3.355A2.055,2.055,0,0,0,.5.454.256.256,0,0,0,.626.486.112.112,0,0,0,.672.46.143.143,0,0,0,.7.415.129.129,0,0,0,.717.359.11.11,0,0,0,.7.3.118.118,0,0,0,.671.273.481.481,0,0,0,.624.243L.571.215.524.19.443.14C.41.12.371.1.333.074A.915.915,0,0,0,.221.019.169.169,0,0,0,.136,0Z" transform="translate(7.535 3.783)"/>
          <path id="Caminho_13301" data-name="Caminho 13301" d="M.12.006A.165.165,0,0,0,.072.033.133.133,0,0,0,.038.074.106.106,0,0,0,.026.125.122.122,0,0,0,.043.183.13.13,0,0,0,.076.219.361.361,0,0,0,.124.251L.177.279.225.3l.082.05C.342.374.382.4.421.42A.865.865,0,0,0,.537.473.158.158,0,0,0,.624.485.116.116,0,0,0,.67.459.144.144,0,0,0,.7.415.127.127,0,0,0,.716.361.106.106,0,0,0,.7.306.127.127,0,0,0,.67.274.506.506,0,0,0,.621.241L.566.21.52.184.439.135C.4.114.365.09.324.068A.82.82,0,0,0,.207.015.143.143,0,0,0,.12.006Z" transform="translate(4.876 2.6)"/>
          <path id="Caminho_13302" data-name="Caminho 13302" d="M.119.008A.138.138,0,0,0,.07.036.131.131,0,0,0,.037.079.117.117,0,0,0,.026.133.12.12,0,0,0,.043.189.427.427,0,0,0,.131.255c.048.031.112.069.177.1S.44.43.5.454A.285.285,0,0,0,.62.487.107.107,0,0,0,.669.461.137.137,0,0,0,.7.413.126.126,0,0,0,.714.354.112.112,0,0,0,.69.294.3.3,0,0,0,.631.251C.6.232.561.209.521.186L.4.122.326.079.279.05A.506.506,0,0,0,.229.021.186.186,0,0,0,.176,0,.123.123,0,0,0,.119.008Z" transform="translate(7.491 6.463)"/>
          <path id="Caminho_13303" data-name="Caminho 13303" d="M.111.005.083.017A.1.1,0,0,0,.062.031a.08.08,0,0,0-.016.02A.147.147,0,0,0,.033.082a.126.126,0,0,0,0,.079A.119.119,0,0,0,.073.216.456.456,0,0,0,.144.259C.171.273.2.287.23.3L.312.355C.346.377.385.4.425.421A.7.7,0,0,0,.541.472.154.154,0,0,0,.632.479.112.112,0,0,0,.679.446.141.141,0,0,0,.707.394a.133.133,0,0,0,0-.058A.1.1,0,0,0,.687.285L.611.235C.565.206.5.167.436.13a1.848,1.848,0,0,0-.193-.1A.223.223,0,0,0,.111.005Z" transform="translate(7.952 2.291)"/>
          <path id="Caminho_13304" data-name="Caminho 13304" d="M.117,0a.174.174,0,0,0-.05.032A.135.135,0,0,0,.034.083.1.1,0,0,0,.027.137.117.117,0,0,0,.054.194.921.921,0,0,0,.136.25c.047.03.11.068.175.105a1.923,1.923,0,0,0,.19.1A.232.232,0,0,0,.629.48.121.121,0,0,0,.675.45.142.142,0,0,0,.706.4.123.123,0,0,0,.715.347.1.1,0,0,0,.694.293.7.7,0,0,0,.609.233C.561.2.5.164.431.127a1.879,1.879,0,0,0-.19-.1A.21.21,0,0,0,.117,0Z" transform="translate(5.239 7.659)"/>
          <path id="Caminho_13305" data-name="Caminho 13305" d="M.108.006A.131.131,0,0,0,.06.04.139.139,0,0,0,.031.09a.122.122,0,0,0,0,.056A.1.1,0,0,0,.05.2L.418.412.464.44A.483.483,0,0,0,.517.469.2.2,0,0,0,.574.485a.117.117,0,0,0,.1-.039A.141.141,0,0,0,.706.4.126.126,0,0,0,.712.34.1.1,0,0,0,.689.288S.656.264.609.234.5.165.433.128a1.8,1.8,0,0,0-.193-.1A.216.216,0,0,0,.108.005Z" transform="translate(2.613 6.836)"/>
          <path id="Caminho_13306" data-name="Caminho 13306" d="M.112.011A.16.16,0,0,0,.047.047.087.087,0,0,0,.022.1a.189.189,0,0,0,0,.065c0,.024.013.051.021.08s.012.043.02.063A.2.2,0,0,0,.1.361a.092.092,0,0,0,.05.033A.143.143,0,0,0,.226.388.105.105,0,0,0,.28.351.118.118,0,0,0,.3.294.246.246,0,0,0,.3.227.5.5,0,0,0,.282.158C.276.136.27.114.262.093A.2.2,0,0,0,.234.038.085.085,0,0,0,.188.006.136.136,0,0,0,.112.011Z" transform="translate(1.017 6.706)"/>
        </g>
        <path id="Caminho_13307" data-name="Caminho 13307" d="M.626.825a2.079,2.079,0,0,1,.621.274,5.388,5.388,0,0,1,.529.4c.173.143.348.288.542.419a2.694,2.694,0,0,0,.659.331,3.253,3.253,0,0,0,.947.146,2.614,2.614,0,0,0,.815-.136A4.063,4.063,0,0,0,5.505,1.9c.256-.149.518-.325.8-.517a2.068,2.068,0,0,1,1.757-.363,5.371,5.371,0,0,1,1.55.788,5.59,5.59,0,0,0,1.535.8,1.981,1.981,0,0,0,1.716-.337,9.344,9.344,0,0,1,2.1-1.089,1.253,1.253,0,0,1,1.046.044,5.255,5.255,0,0,1,.768.652,3.551,3.551,0,0,0,1.263.733,2.974,2.974,0,0,0,1.543.156,3.085,3.085,0,0,0,1.1-.48c.33-.212.64-.449.987-.63a2.39,2.39,0,0,1,1.2-.295L22.925.6C22.86.6,22.8.607,22.736.61l-.181.01c-.06,0-.12.008-.18.015s-.123.016-.187.03S22.062.692,22,.71s-.132.038-.2.061-.13.048-.192.077a1.549,1.549,0,0,0-.173.092,7.232,7.232,0,0,1-2.241,1.048,1.346,1.346,0,0,1-1.127-.218c-.288-.2-.536-.5-.893-.761A3.056,3.056,0,0,0,15.631.427a2.9,2.9,0,0,0-1.559.266c-.46.205-.874.486-1.286.718a2.752,2.752,0,0,1-1.268.429,2.3,2.3,0,0,1-1.508-.6c-.2-.159-.376-.3-.545-.434A3.622,3.622,0,0,0,8.958.472,2.225,2.225,0,0,0,8.388.264,3.435,3.435,0,0,0,6.9.3a3.017,3.017,0,0,0-.624.248,6.429,6.429,0,0,0-.59.36c-.2.135-.413.283-.651.439a2,2,0,0,1-1.321.282,2.667,2.667,0,0,1-1.048-.488c-.338-.232-.68-.5-1.078-.723A3.206,3.206,0,0,0,.172,0L.116.752l.51.073Z" transform="translate(0 14.774)"/>
        <path id="Caminho_13308" data-name="Caminho 13308" d="M6.588.114A5.773,5.773,0,0,1,8.82.6a5.435,5.435,0,0,1,1.76,1.244A5.255,5.255,0,0,1,11.7,3.66a5.328,5.328,0,0,1,.3,2.2,5.661,5.661,0,0,1-.611,2.178A6.06,6.06,0,0,1,10.018,9.8a6.249,6.249,0,0,1-1.925,1.171,6.119,6.119,0,0,1-2.286.4,5.777,5.777,0,0,1-2.228-.478A5.438,5.438,0,0,1,1.814,9.658,5.256,5.256,0,0,1,.689,7.848a5.325,5.325,0,0,1-.309-2.2A5.658,5.658,0,0,1,.986,3.46,6.058,6.058,0,0,1,2.357,1.689,6.249,6.249,0,0,1,4.291.514,6.117,6.117,0,0,1,6.588.114ZM2.305,5.789a.226.226,0,0,0,.034.094.236.236,0,0,0,.068.069.265.265,0,0,0,.093.039.292.292,0,0,0,.107,0L9.594,4.839a.287.287,0,0,0,.191-.111.256.256,0,0,0,.047-.182.232.232,0,0,0-.091-.159.287.287,0,0,0-.223-.043L2.562,5.492a.337.337,0,0,0-.106.037A.322.322,0,0,0,2.37,5.6a.268.268,0,0,0-.054.089A.227.227,0,0,0,2.305,5.789ZM5.489,8.925c.247-.041.509-.082.776-.125s.541-.086.813-.132.543-.094.806-.146.516-.107.754-.166c.075-.019.146-.04.213-.063s.13-.048.19-.075.119-.056.176-.086.114-.063.17-.1a1.058,1.058,0,0,0,.249-.207,1.2,1.2,0,0,0,.178-.267,1.289,1.289,0,0,0,.1-.3,1.228,1.228,0,0,0,.026-.309c0-.01,0-.02,0-.031s0-.02,0-.031,0-.021,0-.031,0-.021,0-.031a.305.305,0,0,1,0-.031c0-.009,0-.016,0-.024s0-.015,0-.024a.3.3,0,0,0,0-.033l-3.377.559c-.162.027-.323.059-.481.1s-.315.081-.467.129-.3.1-.443.162a4.543,4.543,0,0,0-.411.194l-.07.039-.077.046-.074.048c-.023.016-.044.031-.062.045l-.032.025-.03.023-.029.023-.029.026-.029.028-.028.029-.028.029-.029.03-.028.028L4.186,8.3l-.022.027c-.008.01-.015.021-.024.034s-.014.024-.021.036l-.02.037c-.007.012-.014.024-.021.035a.182.182,0,0,1-.024.029.586.586,0,0,0-.111-.2,2.179,2.179,0,0,0-.209-.233,2.044,2.044,0,0,0-.221-.189A.282.282,0,0,0,3.367,7.8c-.194.032-.331.052-.426.066a.793.793,0,0,0-.177.038c-.028.013-.032.03-.026.058a1.112,1.112,0,0,1,.029.127,1.055,1.055,0,0,0,.1.326,1.036,1.036,0,0,0,.189.268,1.1,1.1,0,0,0,.263.2A1.193,1.193,0,0,0,3.637,9a2.508,2.508,0,0,0,.409.049A4.424,4.424,0,0,0,4.5,9.045c.158-.009.322-.026.487-.046s.333-.046.5-.074Zm-3.22-2.1c.01.078.017.157.026.234a1.386,1.386,0,0,0,.044.222.614.614,0,0,0,.094.194.521.521,0,0,0,.178.15.948.948,0,0,0,.1.046A.521.521,0,0,0,2.8,7.7a.612.612,0,0,0,.094.01c.034,0,.071,0,.115,0l.227-.043.043-.005h.06l.028,0,.189-.044L3.6,7.608h.059l.028,0,.188-.044.043-.005h.06l.028,0,.188-.044L4.237,7.5H4.3l.028,0,.188-.044.043-.005h.06l.028,0L4.832,7.4,4.875,7.4h.059l.028,0,.188-.044.043-.005h.059l.028,0L5.47,7.3l.043-.005h.059l.028,0,.188-.044.043-.005h.059l.028,0,.188-.044.043-.005h.059l.028,0,.188-.044.043-.005h.059l.028,0,.188-.044.043-.005h.059l.028,0,.188-.044.043-.005h.059l.028,0,.188-.044.043-.005h.059l.028,0L7.7,6.928l.043-.005H7.8l.028,0,.188-.044.043-.005h.059l.028,0,.188-.044.043-.005h.059l.028,0,.188-.044L8.7,6.765H8.76l.028,0,.188-.044.043-.005h.059l.028,0,.188-.044a.45.45,0,0,1,.048-.005h.039l.038,0a.28.28,0,0,0,.043-.009c.045-.013.085-.021.123-.028s.074-.014.11-.025a.5.5,0,0,0,.112-.047.723.723,0,0,0,.128-.1.687.687,0,0,0,.165-.217.629.629,0,0,0,.056-.228,1.329,1.329,0,0,0-.01-.243c-.01-.084-.024-.172-.035-.263a.374.374,0,0,0-.034-.11.678.678,0,0,0-.068-.114.754.754,0,0,0-.089-.1.5.5,0,0,0-.1-.073.632.632,0,0,0-.183-.068.8.8,0,0,0-.189-.014,1.7,1.7,0,0,0-.2.021c-.069.01-.14.024-.214.036-.015,0-.034.02-.057.048s-.049.065-.078.106-.059.085-.09.128a1.055,1.055,0,0,1-.093.113L8.69,5.5l-.029.03-.028.031L8.6,5.6a2.255,2.255,0,0,1-.278.261,1.291,1.291,0,0,1-.315.186A.749.749,0,0,1,7.67,6.1a.709.709,0,0,1-.349-.132c-.036-.025-.081-.061-.13-.1s-.1-.08-.156-.117a1.04,1.04,0,0,0-.156-.093.239.239,0,0,0-.131-.028.8.8,0,0,0-.215.06.294.294,0,0,0-.095.07.467.467,0,0,1-.063.065.259.259,0,0,1-.119.044.188.188,0,0,1-.071,0,.4.4,0,0,1-.075-.026A.664.664,0,0,1,6.041,5.8C6.02,5.788,6,5.775,5.988,5.765l-.031-.021L5.93,5.728,5.9,5.714,5.875,5.7a.5.5,0,0,1-.053-.043L5.8,5.627a.033.033,0,0,0-.016-.011.069.069,0,0,0-.026,0l-2.778.459a1.663,1.663,0,0,0-.171.036.916.916,0,0,0-.139.05.673.673,0,0,0-.116.067.726.726,0,0,0-.1.09.638.638,0,0,0-.075.1.747.747,0,0,0-.062.124.668.668,0,0,0-.039.14.529.529,0,0,0,0,.147Zm3.8-2.47c0-.028.018-.051.053-.07a.408.408,0,0,1,.13-.039.423.423,0,0,1,.134,0c.037.007.064.022.067.046s-.018.049-.053.067a.427.427,0,0,1-.129.041.412.412,0,0,1-.134,0C6.1,4.4,6.075,4.383,6.072,4.357Zm-2.8.3a.5.5,0,0,1,.108-.029.475.475,0,0,1,.12,0,.264.264,0,0,1,.106.032.151.151,0,0,1,.067.078.293.293,0,0,1-.113.043.366.366,0,0,1-.124,0,.265.265,0,0,1-.106-.041A.141.141,0,0,1,3.275,4.66ZM7.5,3.8a.483.483,0,0,1,.2-.037.323.323,0,0,1,.14.035.107.107,0,0,1,.059.061c0,.02-.01.036-.044.042l-.066.01a.556.556,0,0,1-.059.005.362.362,0,0,1-.059,0A.442.442,0,0,1,7.607,3.9a.271.271,0,0,1-.038-.014.121.121,0,0,1-.029-.019.1.1,0,0,1-.022-.027A.166.166,0,0,1,7.5,3.8Zm-2.672.52a.2.2,0,0,1-.037,0,.078.078,0,0,1-.026,0,.072.072,0,0,1-.02-.012l-.019-.018a.132.132,0,0,1,.043-.076.3.3,0,0,1,.09-.056.521.521,0,0,1,.116-.033A.541.541,0,0,1,5.1,4.121a.124.124,0,0,1-.021.083.2.2,0,0,1-.067.059.433.433,0,0,1-.09.039.674.674,0,0,1-.091.021ZM8.269,3.28A.121.121,0,0,1,8.323,3.2a.313.313,0,0,1,.11-.047.4.4,0,0,1,.127-.008.206.206,0,0,1,.1.036.173.173,0,0,1-.075.084.349.349,0,0,1-.118.042.394.394,0,0,1-.12,0A.146.146,0,0,1,8.269,3.28ZM5.9,3.5l.06-.008a.39.39,0,0,1,.059,0,.2.2,0,0,1,.054.01.113.113,0,0,1,.043.026.106.106,0,0,1-.055.074.323.323,0,0,1-.111.038.549.549,0,0,1-.127.007.308.308,0,0,1-.1-.021.126.126,0,0,1,.019-.052.116.116,0,0,1,.037-.035.224.224,0,0,1,.054-.023A.612.612,0,0,1,5.9,3.5Zm-1.747.367a.192.192,0,0,1-.138-.011C4,3.835,4,3.809,4.021,3.782a.278.278,0,0,1,.126-.074.633.633,0,0,1,.231-.025.2.2,0,0,1,0,.047.067.067,0,0,1-.011.03.084.084,0,0,1-.023.021L4.308,3.8l-.032.016-.042.018-.043.016-.035.01Zm2.5-.842A.125.125,0,0,1,6.7,2.93a.312.312,0,0,1,.1-.066.48.48,0,0,1,.122-.034.267.267,0,0,1,.1,0,.12.12,0,0,1-.04.1.235.235,0,0,1-.045.032c-.017.01-.035.018-.053.027s-.044.019-.063.026a.316.316,0,0,1-.056.014.228.228,0,0,1-.054,0A.292.292,0,0,1,6.659,3.021ZM4.9,2.993a.169.169,0,0,1,.075-.062A.43.43,0,0,1,5.088,2.9a.416.416,0,0,1,.121,0,.151.151,0,0,1,.087.036A.106.106,0,0,1,5.237,3a.357.357,0,0,1-.112.036.758.758,0,0,1-.112.01.342.342,0,0,1-.059,0L4.92,3.036a.019.019,0,0,1-.01-.009.121.121,0,0,1,0-.012A.061.061,0,0,0,4.9,2.993ZM2.465,5.365,9.582,4.191a.058.058,0,0,0,.03-.011.024.024,0,0,0,.007-.021.2.2,0,0,0-.007-.033c0-.013-.008-.029-.011-.048a1.334,1.334,0,0,0-.119-.365,1.842,1.842,0,0,0-.213-.336A2.136,2.136,0,0,0,9,3.09a1.884,1.884,0,0,0-.3-.216,3.959,3.959,0,0,0-.688-.309,4.046,4.046,0,0,0-.723-.172,4.589,4.589,0,0,0-.756-.044,5.622,5.622,0,0,0-.787.075,5.473,5.473,0,0,0-.718.169,5.415,5.415,0,0,0-.709.273,4.645,4.645,0,0,0-.658.375,3.62,3.62,0,0,0-.563.475c-.056.058-.11.119-.161.182s-.1.129-.147.2-.089.137-.128.207a2.107,2.107,0,0,0-.1.217c-.028.067-.05.13-.068.192a1.547,1.547,0,0,0-.043.182,1.6,1.6,0,0,0-.02.184c0,.063,0,.129,0,.2,0,.012,0,.024,0,.036a.135.135,0,0,0,0,.031.027.027,0,0,0,.013.02.051.051,0,0,0,.034,0Z" transform="translate(6.09 0.521)"/>
        <path id="Caminho_13309" data-name="Caminho 13309" d="M.294.141l1.941-.1L2.22,3.847l-1.938.1Z" transform="translate(36.481 0.606)"/>
      </g>
    </g>
  </g>
</svg>
