<svg id="Grupo_4228" data-name="Grupo 4228" xmlns="http://www.w3.org/2000/svg" width="15.016" height="12.438" viewBox="0 0 15.016 12.438">
  <path id="Caminho_364" data-name="Caminho 364" d="M310.586,1692.845h3.433a1.082,1.082,0,0,0,.489-.159,1.148,1.148,0,0,0,.3-1.68,1.326,1.326,0,0,0-.518-.375,6.988,6.988,0,0,0-1.746-4.228,6.9,6.9,0,0,0-1.669-1.339,6.5,6.5,0,0,0-2.214-.791c0-.585.052-.743-.195-1.123a1.14,1.14,0,0,0-1.862,0c-.246.382-.195.539-.195,1.123a6.539,6.539,0,0,0-2.185.773,6.847,6.847,0,0,0-2.867,3.152,7.048,7.048,0,0,0-.578,2.433,1.11,1.11,0,0,0-.752,1.178,1.086,1.086,0,0,0,.505.858,1.072,1.072,0,0,0,.512.179h9.54Zm-9.8-1.132a.435.435,0,0,1,.421-.377H313.87a.378.378,0,1,1,0,.754H301.2A.435.435,0,0,1,300.782,1691.714Zm6.755-6.782a6.013,6.013,0,0,1,5.348,3.345,5.474,5.474,0,0,1,.611,2.308H301.58a5.955,5.955,0,0,1,2.626-4.616,6.15,6.15,0,0,1,3.331-1.035Zm-.375-1.084a.376.376,0,1,1,.75,0v.329h-.75Z" transform="translate(-300.03 -1680.41)" fill="#177b81"/>
  <path id="Caminho_365" data-name="Caminho 365" d="M314.75,1702.811a4.687,4.687,0,0,0,.752.282,4.42,4.42,0,0,1,3.326-2.69,6.3,6.3,0,0,1,.8-.09v-.753a5.158,5.158,0,0,0-4.143,2.01,6.689,6.689,0,0,0-.735,1.241Z" transform="translate(-312.122 -1694.285)" fill="#177b81"/>
  <path id="Caminho_366" data-name="Caminho 366" d="M347.28,1675.775l.516.539,1.078-1.059-.541-.566Z" transform="translate(-338.845 -1673.854)" fill="#177b81"/>
  <path id="Caminho_367" data-name="Caminho 367" d="M327.95,1675.338l1.057,1.084.539-.518-1.055-1.083Z" transform="translate(-322.965 -1673.961)" fill="#177b81"/>
  <path id="Caminho_368" data-name="Caminho 368" d="M339.98,1671.516h.75v-1.506h-.75Z" transform="translate(-332.849 -1670.01)" fill="#177b81"/>
  <path id="Caminho_369" data-name="Caminho 369" d="M323.16,1687.645h1.5v-.755h-1.5Z" transform="translate(-319.031 -1683.876)" fill="#177b81"/>
  <path id="Caminho_370" data-name="Caminho 370" d="M352.59,1687.645h1.5v-.755h-1.5Z" transform="translate(-343.207 -1683.876)" fill="#177b81"/>
</svg>
